<svg xmlns="http://www.w3.org/2000/svg" xmlns:xlink="http://www.w3.org/1999/xlink" width="527" zoomAndPan="magnify" viewBox="0 0 395.25 305.25" height="407" preserveAspectRatio="xMidYMid meet" version="1.0"><defs><clipPath id="8bccb344f5"><path d="M 0.109375 110 L 125 110 L 125 259 L 0.109375 259 Z M 0.109375 110 " clip-rule="nonzero"/></clipPath><clipPath id="55d00b7525"><path d="M 14 113 L 140 113 L 140 261.109375 L 14 261.109375 Z M 14 113 " clip-rule="nonzero"/></clipPath><clipPath id="c2c50073a6"><path d="M 269 73 L 393.644531 73 L 393.644531 222 L 269 222 Z M 269 73 " clip-rule="nonzero"/></clipPath><clipPath id="936592c059"><path d="M 79 90 L 378.398438 90 L 378.398438 208 L 79 208 Z M 79 90 " clip-rule="nonzero"/></clipPath></defs><g clip-path="url(#8bccb344f5)"><path fill="#c1ff72" d="M 0.109375 224.5625 L 4.253906 187.976562 L 72.707031 110.601562 L 119.972656 115.957031 L 110.613281 198.621094 L 124.851562 200.234375 L 120.546875 238.214844 L 106.308594 236.582031 L 103.859375 258.347656 L 59.546875 253.332031 L 62.011719 231.578125 Z M 73.566406 161.382812 L 48.511719 191.589844 L 69.871094 194.011719 Z M 73.566406 161.382812 " fill-opacity="1" fill-rule="nonzero"/></g><g clip-path="url(#55d00b7525)"><path fill="#00bf63" d="M 14.640625 227.46875 L 18.773438 190.878906 L 87.230469 113.507812 L 134.492188 118.859375 L 125.128906 201.527344 L 139.367188 203.136719 L 135.066406 241.121094 L 120.828125 239.507812 L 118.363281 261.261719 L 74.066406 256.234375 L 76.53125 234.480469 Z M 88.085938 164.28125 L 63.03125 194.492188 L 84.390625 196.910156 Z M 88.085938 164.28125 " fill-opacity="1" fill-rule="nonzero"/></g><g clip-path="url(#c2c50073a6)"><path fill="#c1ff72" d="M 273.449219 205.957031 L 269.511719 169.347656 L 319.433594 78.902344 L 366.730469 73.804688 L 375.628906 156.539062 L 389.875 155.011719 L 393.953125 192.992188 L 379.707031 194.523438 L 382.046875 216.292969 L 337.722656 221.058594 L 335.378906 199.292969 Z M 331.351562 128.265625 L 313.492188 163.21875 L 334.863281 160.921875 Z M 331.351562 128.265625 " fill-opacity="1" fill-rule="nonzero"/></g><path fill="#00bf63" d="M 268.089844 213.996094 L 264.152344 177.390625 L 314.074219 86.949219 L 361.371094 81.851562 L 370.269531 164.566406 L 384.515625 163.039062 L 388.59375 201.019531 L 374.34375 202.550781 L 376.6875 224.316406 L 332.359375 229.085938 L 330.019531 207.316406 Z M 325.992188 136.304688 L 308.132812 171.257812 L 329.503906 168.960938 Z M 325.992188 136.304688 " fill-opacity="1" fill-rule="nonzero"/><path fill="#c1ff72" d="M 165.472656 24.210938 C 185.472656 0.0273438 240.824219 6.242188 254.945312 34.4375 C 271.792969 60.601562 264.941406 120.34375 242.761719 142.011719 C 222.660156 166.359375 167.304688 160.039062 153.285156 131.875 C 136.613281 105.867188 143.371094 45.816406 165.472656 24.210938 Z M 219.726562 60.695312 C 218.21875 55.117188 214.234375 51.960938 207.777344 51.230469 C 201.183594 50.480469 196.53125 52.660156 193.820312 57.761719 C 188.515625 66.683594 185.257812 95.828125 188.398438 105.617188 C 190.4375 116.613281 209.808594 118.957031 214.304688 108.554688 C 219.550781 99.722656 222.902344 70.582031 219.726562 60.695312 Z M 219.726562 60.695312 " fill-opacity="1" fill-rule="nonzero"/><path fill="#00bf63" d="M 176.191406 24.210938 C 196.191406 0.0273438 251.546875 6.242188 265.667969 34.4375 C 282.511719 60.601562 275.664062 120.34375 253.480469 142.011719 C 233.382812 166.359375 178.027344 160.039062 163.996094 131.875 C 147.335938 105.867188 154.089844 45.816406 176.191406 24.210938 Z M 230.449219 60.695312 C 228.941406 55.117188 224.960938 51.960938 218.5 51.230469 C 211.90625 50.480469 207.25 52.660156 204.539062 57.761719 C 199.234375 66.683594 195.980469 95.828125 199.117188 105.617188 C 201.160156 116.613281 220.53125 118.957031 225.027344 108.550781 C 230.273438 99.722656 233.609375 70.582031 230.449219 60.695312 Z M 230.449219 60.695312 " fill-opacity="1" fill-rule="nonzero"/><path fill="#ffffff" d="M 205.421875 140.609375 C 205.339844 139.433594 204.988281 128.480469 204.363281 107.75 C 204.207031 102.558594 207.800781 98.007812 212.886719 96.957031 C 213.226562 96.886719 213.394531 96.851562 213.394531 96.851562 C 219.535156 96.425781 224.996094 100.71875 226.023438 106.78125 L 231.285156 137.742188 " fill-opacity="1" fill-rule="evenodd"/><path fill="#000000" d="M 213.335938 97.089844 L 212.84375 97.195312 C 207.878906 98.21875 204.367188 102.664062 204.519531 107.730469 C 205.144531 128.449219 205.5 139.410156 205.578125 140.582031 C 205.589844 140.71875 205.484375 140.835938 205.347656 140.847656 C 205.210938 140.855469 205.089844 140.753906 205.082031 140.617188 C 204.996094 139.4375 204.644531 128.492188 204.019531 107.746094 C 203.859375 102.4375 207.539062 97.777344 212.742188 96.703125 L 213.253906 96.597656 L 213.285156 96.59375 C 219.550781 96.15625 225.125 100.539062 226.179688 106.730469 L 231.441406 137.6875 C 231.464844 137.824219 231.371094 137.953125 231.234375 137.976562 C 231.097656 138 230.96875 137.910156 230.945312 137.773438 L 225.683594 106.8125 C 224.675781 100.882812 219.339844 96.679688 213.335938 97.089844 Z M 213.335938 97.089844 " fill-opacity="1" fill-rule="nonzero"/><path fill="#ffffff" d="M 201.34375 137.882812 L 198.65625 116.984375 C 198.394531 114.972656 199.816406 113.132812 201.828125 112.875 C 201.984375 112.855469 202.140625 112.84375 202.296875 112.84375 C 204.789062 112.84375 206.996094 114.445312 207.769531 116.8125 L 214.65625 137.898438 Z M 201.34375 137.882812 " fill-opacity="1" fill-rule="evenodd"/><path fill="#000000" d="M 201.128906 137.980469 C 201 137.980469 200.894531 137.886719 200.878906 137.761719 L 198.191406 116.863281 C 197.914062 114.714844 199.433594 112.75 201.582031 112.472656 C 201.746094 112.449219 201.914062 112.441406 202.082031 112.441406 C 204.679688 112.441406 206.984375 114.113281 207.792969 116.582031 L 214.679688 137.667969 C 214.734375 137.828125 214.613281 137.996094 214.441406 137.996094 Z M 201.347656 137.480469 L 214.097656 137.492188 L 207.316406 116.738281 C 206.578125 114.472656 204.464844 112.941406 202.082031 112.941406 C 201.9375 112.941406 201.789062 112.949219 201.644531 112.96875 C 199.769531 113.210938 198.445312 114.925781 198.6875 116.800781 Z M 201.347656 137.480469 " fill-opacity="1" fill-rule="nonzero"/><path fill="#00bf63" d="M 267.605469 189.175781 L 242.09375 180.859375 C 239.203125 179.914062 237.09375 177.417969 236.648438 174.410156 L 231.195312 137.5625 L 201.628906 137.5625 L 206.859375 184.378906 C 207.78125 192.625 212.222656 200.070312 219.042969 204.800781 L 248.0625 224.917969 Z M 267.605469 189.175781 " fill-opacity="1" fill-rule="evenodd"/><path fill="#c1ff72" d="M 206.308594 180.15625 C 212.207031 183.382812 216.496094 187.058594 219.167969 191.179688 C 221.839844 195.296875 224.121094 201.476562 226.015625 209.71875 C 224.382812 208.527344 222.988281 207.523438 221.839844 206.710938 C 217.132812 203.386719 213.519531 200.359375 211.316406 196.859375 C 208.3125 192.070312 206.640625 186.5 206.308594 180.15625 Z M 206.308594 180.15625 " fill-opacity="1" fill-rule="evenodd"/><path fill="#000000" d="M 238.417969 178.015625 C 238.417969 178.011719 238.414062 178.007812 238.410156 178.003906 C 238.40625 177.996094 238.398438 177.988281 238.390625 177.980469 C 237.585938 176.941406 237.042969 175.699219 236.839844 174.351562 L 231.394531 137.539062 C 231.375 137.417969 231.269531 137.328125 231.144531 137.328125 L 201.582031 137.328125 C 201.433594 137.328125 201.316406 137.457031 201.332031 137.605469 L 203.605469 157.9375 C 203.566406 157.984375 203.546875 158.050781 203.550781 158.117188 C 203.558594 158.1875 203.59375 158.25 203.644531 158.289062 L 206.5625 184.394531 C 207.492188 192.726562 211.988281 200.25 218.890625 205.015625 L 247.753906 224.957031 C 247.847656 225.019531 247.96875 225.015625 248.054688 224.941406 C 252.027344 221.628906 255.332031 217.425781 257.972656 212.339844 C 260.605469 207.261719 263.558594 199.398438 266.839844 188.746094 C 266.882812 188.617188 266.808594 188.476562 266.679688 188.433594 L 242.164062 180.613281 C 240.652344 180.132812 239.359375 179.214844 238.417969 178.015625 Z M 258.445312 186.332031 L 266.289062 188.835938 C 263.046875 199.34375 260.125 207.101562 257.527344 212.109375 C 254.953125 217.078125 251.734375 221.1875 247.882812 224.4375 L 240.527344 219.355469 Z M 257.960938 186.179688 L 240.109375 219.066406 L 219.175781 204.605469 C 212.394531 199.921875 207.972656 192.527344 207.058594 184.335938 L 204.152344 158.3125 L 233.554688 155.671875 C 233.558594 155.671875 233.566406 155.667969 233.570312 155.667969 L 236.347656 174.425781 C 236.546875 175.78125 237.074219 177.035156 237.851562 178.097656 L 220.359375 190.640625 C 220.246094 190.722656 220.21875 190.878906 220.300781 190.992188 C 220.378906 191.101562 220.535156 191.128906 220.648438 191.046875 L 238.160156 178.492188 C 239.152344 179.6875 240.476562 180.601562 242.011719 181.089844 Z M 233.496094 155.171875 L 204.097656 157.816406 L 201.863281 137.828125 L 230.929688 137.828125 Z M 233.496094 155.171875 " fill-opacity="1" fill-rule="nonzero"/><path fill="#c1ff72" d="M 313.535156 194.351562 C 313.535156 194.351562 321.332031 198.417969 336.917969 206.542969 L 330.285156 218.722656 L 310.195312 205.195312 C 312.421875 197.964844 313.535156 194.351562 313.535156 194.351562 Z M 313.535156 194.351562 " fill-opacity="1" fill-rule="evenodd"/><path fill="#ffffff" d="M 158.539062 249.636719 L 163.382812 210.21875 L 160.875 209.050781 L 150.519531 193.683594 L 148.683594 193.183594 C 148.019531 193.023438 147.515625 193.023438 147.179688 193.183594 C 146.84375 193.339844 146.398438 193.785156 145.84375 194.519531 L 145.84375 241.285156 C 146.210938 242.171875 146.546875 242.78125 146.84375 243.121094 C 147.144531 243.464844 147.648438 243.796875 148.347656 244.125 Z M 203.132812 284.378906 L 171.398438 272.6875 L 169.894531 277.027344 L 149.183594 282.375 L 148.347656 283.878906 C 148.539062 284.980469 148.761719 285.761719 149.015625 286.214844 C 149.273438 286.671875 149.773438 287.171875 150.519531 287.71875 L 193.78125 297.90625 C 194.675781 297.996094 195.398438 297.886719 195.949219 297.574219 C 196.503906 297.261719 197.058594 296.648438 197.621094 295.734375 Z M 203.132812 284.378906 " fill-opacity="1" fill-rule="evenodd"/><path fill="#000000" d="M 313.773438 194.144531 L 337.15625 206.335938 C 337.28125 206.402344 337.328125 206.554688 337.257812 206.679688 L 330.625 218.855469 C 330.554688 218.988281 330.386719 219.027344 330.265625 218.945312 L 310.175781 205.417969 C 310.082031 205.355469 310.042969 205.242188 310.078125 205.132812 L 313.417969 194.292969 C 313.460938 194.140625 313.632812 194.070312 313.773438 194.144531 Z M 310.609375 205.105469 L 330.316406 218.375 L 336.699219 206.664062 L 313.808594 194.726562 Z M 310.609375 205.105469 " fill-opacity="1" fill-rule="nonzero"/><path fill="#00bf63" d="M 241.882812 235.773438 L 241.882812 236.289062 L 264.765625 192.011719 L 297.167969 205.710938 C 296.5625 225.484375 293.796875 238.621094 288.863281 245.128906 C 283.933594 251.632812 275.175781 253.691406 262.59375 251.308594 L 244.386719 251.308594 Z M 241.882812 235.773438 " fill-opacity="1" fill-rule="evenodd"/><path fill="#000000" d="M 241.585938 235.773438 L 241.585938 236.289062 C 241.585938 236.386719 241.632812 236.457031 241.699219 236.5 L 244.09375 251.347656 C 244.113281 251.46875 244.21875 251.558594 244.339844 251.558594 L 262.523438 251.558594 C 275.175781 253.953125 284.019531 251.867188 289.015625 245.277344 C 293.988281 238.71875 296.765625 225.539062 297.371094 205.71875 C 297.375 205.613281 297.3125 205.519531 297.21875 205.480469 L 264.816406 191.78125 C 264.695312 191.730469 264.554688 191.78125 264.496094 191.898438 L 241.9375 235.542969 C 241.789062 235.480469 241.585938 235.566406 241.585938 235.773438 Z M 241.648438 236.191406 L 241.636719 236.125 L 241.675781 236.050781 C 241.652344 236.09375 241.644531 236.144531 241.648438 236.191406 Z M 264.835938 192.335938 L 296.863281 205.875 C 296.253906 225.503906 293.496094 238.542969 288.617188 244.976562 C 283.753906 251.390625 275.089844 253.429688 262.59375 251.0625 L 262.546875 251.058594 L 244.554688 251.058594 L 242.160156 236.207031 Z M 264.835938 192.335938 " fill-opacity="1" fill-rule="nonzero"/><path fill="#c1ff72" d="M 247.894531 224.917969 L 246.226562 228.089844 C 251.359375 232.140625 255.421875 234.980469 258.417969 236.609375 C 261.414062 238.238281 264.699219 239.742188 268.273438 241.117188 L 270.277344 237.609375 C 267.019531 236.203125 263.902344 234.644531 260.921875 232.933594 C 257.945312 231.222656 253.601562 228.550781 247.894531 224.917969 Z M 247.894531 224.917969 " fill-opacity="1" fill-rule="evenodd"/><path fill="#c1ff72" d="M 238.039062 292.894531 L 158.871094 249.972656 L 163.214844 210.386719 L 241.714844 248.96875 " fill-opacity="1" fill-rule="evenodd"/><path fill="#000000" d="M 248.035156 224.542969 C 253.90625 228.5 258.46875 231.394531 261.714844 233.21875 C 264.953125 235.039062 268 236.421875 270.855469 237.375 C 270.988281 237.417969 271.058594 237.558594 271.015625 237.691406 C 270.972656 237.820312 270.832031 237.894531 270.699219 237.847656 C 267.8125 236.886719 264.734375 235.488281 261.46875 233.652344 C 258.207031 231.820312 253.636719 228.921875 247.753906 224.957031 C 247.640625 224.882812 247.609375 224.726562 247.6875 224.609375 C 247.765625 224.496094 247.921875 224.464844 248.035156 224.542969 Z M 248.035156 224.542969 " fill-opacity="1" fill-rule="nonzero"/><path fill="#000000" d="M 246.257812 227.890625 C 251.707031 232.023438 256.472656 235.191406 260.542969 237.390625 C 264.59375 239.578125 267.359375 240.742188 268.796875 240.871094 C 268.933594 240.882812 269.035156 241.003906 269.023438 241.140625 C 269.011719 241.277344 268.890625 241.378906 268.75 241.367188 C 267.222656 241.230469 264.417969 240.054688 260.304688 237.832031 C 256.207031 235.621094 251.425781 232.4375 245.953125 228.289062 C 245.84375 228.207031 245.820312 228.050781 245.90625 227.9375 C 245.988281 227.828125 246.148438 227.808594 246.257812 227.890625 Z M 246.257812 227.890625 " fill-opacity="1" fill-rule="nonzero"/><path fill="#000000" d="M 159.054688 249.746094 C 159.066406 249.722656 159.070312 249.699219 159.074219 249.675781 L 163.414062 210.605469 L 241.726562 249.195312 C 241.847656 249.253906 242 249.203125 242.058594 249.078125 C 242.121094 248.957031 242.070312 248.804688 241.945312 248.746094 L 161.332031 209.023438 L 151.019531 193.820312 C 150.65625 193.285156 150.050781 192.964844 149.402344 192.976562 C 149.175781 192.980469 148.953125 193.023438 148.753906 193.097656 C 148.738281 193.074219 148.714844 193.046875 148.683594 193.015625 C 148.570312 192.902344 148.441406 192.835938 148.292969 192.804688 C 148.140625 192.773438 147.988281 192.757812 147.835938 192.757812 C 146.539062 192.757812 145.484375 193.804688 145.484375 195.101562 L 145.414062 239.96875 C 145.410156 241.898438 146.371094 243.796875 148.21875 244.261719 L 148.21875 244.296875 C 148.21875 244.386719 148.269531 244.46875 148.347656 244.511719 L 238.042969 293.117188 C 238.164062 293.183594 238.316406 293.136719 238.382812 293.015625 C 238.445312 292.894531 238.402344 292.742188 238.28125 292.675781 Z M 158.589844 249.492188 L 148.71875 244.140625 L 148.011719 194.917969 C 148 194.132812 148.625 193.488281 149.410156 193.476562 C 149.886719 193.46875 150.335938 193.703125 150.605469 194.101562 L 160.957031 209.359375 C 160.980469 209.394531 161.011719 209.421875 161.050781 209.441406 L 162.984375 210.394531 C 162.949219 210.433594 162.925781 210.480469 162.917969 210.539062 Z M 148.238281 193.390625 C 147.785156 193.75 147.5 194.304688 147.511719 194.925781 L 148.210938 243.738281 C 146.671875 243.273438 145.910156 241.621094 145.914062 239.96875 L 145.984375 195.105469 C 145.988281 194.085938 146.816406 193.257812 147.835938 193.261719 C 147.957031 193.261719 148.074219 193.273438 148.195312 193.296875 C 148.210938 193.332031 148.222656 193.363281 148.238281 193.390625 Z M 148.238281 193.390625 " fill-opacity="1" fill-rule="nonzero"/><path fill="#00bf63" d="M 301.175781 243.804688 L 298.625 257.667969 L 279.585938 291.269531 C 274.574219 300.113281 263.898438 304.023438 254.363281 300.507812 L 247.6875 298.046875 C 241.269531 295.679688 235.730469 291.398438 231.824219 285.78125 L 214.578125 260.996094 L 203.132812 284.378906 L 171.398438 272.6875 L 193.707031 219.925781 C 196.152344 214.144531 201.820312 210.386719 208.097656 210.386719 C 214.726562 210.386719 221.089844 213.015625 225.789062 217.691406 L 255.699219 247.476562 " fill-opacity="1" fill-rule="evenodd"/><path fill="#c1ff72" d="M 227.019531 218.90625 C 221.671875 223.023438 216.105469 225.976562 210.316406 227.757812 C 204.523438 229.539062 198.121094 229.148438 191.105469 226.585938 C 192.671875 221.398438 194.398438 217.78125 196.285156 215.730469 C 198.53125 213.289062 202.722656 211.113281 205.136719 210.554688 C 208.308594 209.816406 214.160156 210.667969 218.832031 212.890625 C 221.082031 213.960938 223.808594 215.964844 227.019531 218.90625 Z M 227.019531 218.90625 " fill-opacity="1" fill-rule="evenodd"/><path fill="#000000" d="M 148.429688 283.339844 L 148.339844 283.316406 L 148.335938 283.332031 C 147.816406 285.488281 149.140625 287.660156 151.300781 288.179688 L 193.023438 298.238281 C 194.90625 298.691406 196.855469 297.824219 197.78125 296.136719 C 197.859375 296.125 197.929688 296.074219 197.964844 296 L 214.617188 261.476562 L 231.617188 285.914062 C 235.554688 291.574219 241.136719 295.886719 247.601562 298.269531 L 254.277344 300.730469 C 263.925781 304.289062 274.734375 300.332031 279.804688 291.382812 L 298.84375 257.777344 C 298.855469 257.753906 298.863281 257.726562 298.871094 257.699219 L 301.421875 243.835938 C 301.449219 243.699219 301.359375 243.570312 301.222656 243.542969 C 301.085938 243.519531 300.957031 243.609375 300.929688 243.746094 L 298.386719 257.566406 L 279.367188 291.136719 C 274.417969 299.871094 263.867188 303.734375 254.449219 300.261719 L 247.777344 297.800781 C 241.40625 295.453125 235.90625 291.203125 232.03125 285.628906 L 214.78125 260.839844 C 214.671875 260.683594 214.433594 260.703125 214.351562 260.875 L 203.140625 284.113281 L 171.765625 272.554688 L 190.597656 227.945312 C 201.738281 233.378906 214.191406 230.773438 227.929688 220.164062 L 255.523438 247.644531 C 255.621094 247.742188 255.777344 247.742188 255.875 247.640625 C 255.972656 247.542969 255.972656 247.386719 255.875 247.289062 L 225.964844 217.503906 C 221.21875 212.777344 214.796875 210.125 208.097656 210.125 C 201.71875 210.125 195.964844 213.941406 193.484375 219.816406 L 171.253906 272.484375 C 171.214844 272.511719 171.179688 272.550781 171.164062 272.601562 C 171.148438 272.640625 171.144531 272.683594 171.152344 272.722656 L 169.5 276.636719 L 149.875 281.589844 C 149.175781 281.769531 148.632812 282.324219 148.472656 283.03125 C 148.449219 283.132812 148.433594 283.234375 148.429688 283.339844 Z M 148.730469 284.492188 C 148.992188 284.902344 149.410156 285.210938 149.921875 285.328125 L 197.257812 296.039062 C 196.414062 297.433594 194.75 298.140625 193.140625 297.753906 L 151.417969 287.695312 C 149.878906 287.324219 148.824219 285.992188 148.730469 284.492188 Z M 202.921875 284.566406 L 197.601562 295.601562 L 150.03125 284.839844 C 149.269531 284.664062 148.789062 283.90625 148.960938 283.140625 C 149.078125 282.621094 149.480469 282.207031 150 282.078125 L 169.742188 277.09375 C 169.816406 277.074219 169.882812 277.019531 169.910156 276.949219 L 171.570312 273.015625 Z M 190.789062 227.484375 L 193.945312 220.011719 C 196.347656 214.324219 201.921875 210.625 208.097656 210.625 C 214.664062 210.625 220.960938 213.226562 225.613281 217.859375 L 227.570312 219.808594 C 213.984375 230.285156 201.734375 232.832031 190.789062 227.484375 Z M 190.789062 227.484375 " fill-opacity="1" fill-rule="nonzero"/><path fill="#00bf63" d="M 284.808594 188.671875 L 347.28125 228.570312 C 361.492188 237.644531 366.710938 255.886719 359.453125 271.105469 L 354.972656 280.496094 C 347.027344 297.148438 327.089844 304.207031 310.441406 296.265625 C 309.550781 295.839844 308.679688 295.378906 307.832031 294.878906 L 279.253906 277.996094 C 273.929688 274.851562 269.585938 270.292969 266.699219 264.824219 L 266.351562 264.167969 C 263.363281 258.503906 263.269531 251.746094 266.101562 246 L 273.117188 231.765625 C 283.53125 239.53125 289.152344 244.875 289.984375 247.800781 C 290.726562 250.410156 299.21875 255.78125 315.460938 263.921875 C 318.984375 265.683594 323.269531 264.449219 325.3125 261.078125 C 326.949219 258.371094 326.085938 254.847656 323.378906 253.207031 C 323.070312 253.019531 322.742188 252.863281 322.402344 252.738281 L 291.988281 241.453125 " fill-opacity="1" fill-rule="evenodd"/><path fill="#c1ff72" d="M 360.304688 269.511719 C 359.46875 271.851562 355.839844 279.171875 354.457031 281.539062 C 353 284.027344 351.449219 286.382812 349.445312 288.71875 C 347.460938 291.035156 344.792969 293.324219 340.761719 295.402344 C 339.414062 296.097656 337.964844 296.820312 336.417969 297.574219 C 337.460938 288.796875 338.628906 282.671875 339.925781 279.199219 C 340.976562 276.386719 342.050781 273.566406 343.601562 271.351562 C 347.496094 265.78125 353.796875 260.15625 362.496094 254.46875 C 363.261719 258.261719 362.53125 263.277344 360.304688 269.511719 Z M 360.304688 269.511719 " fill-opacity="1" fill-rule="evenodd"/><path fill="#ffffff" d="M 288.816406 244.625 L 288.484375 248.96875 C 284.464844 256.578125 281.992188 261.167969 281.070312 262.746094 C 280.097656 264.40625 278.171875 268.5 275.289062 275.023438 C 272.054688 272.226562 269.496094 269.332031 267.605469 266.339844 C 265.714844 263.347656 264.542969 260.339844 264.097656 257.320312 C 263.652344 253.3125 264.765625 248.800781 267.4375 243.792969 C 268.769531 241.292969 270.71875 237.117188 273.28125 231.265625 C 280.550781 235.113281 285.617188 238.285156 288.484375 240.785156 C 291.347656 243.28125 291.457031 244.5625 288.816406 244.625 Z M 288.816406 244.625 " fill-opacity="1" fill-rule="evenodd"/><path fill="#000000" d="M 266.445312 245.957031 C 263.648438 251.632812 263.742188 258.304688 266.691406 263.898438 L 267.039062 264.554688 C 269.902344 269.980469 274.21875 274.507812 279.5 277.628906 L 308.179688 294.570312 C 308.992188 295.046875 309.824219 295.492188 310.671875 295.902344 C 327.171875 303.835938 346.984375 296.894531 354.921875 280.394531 L 359.234375 271.425781 C 366.449219 256.429688 361.429688 238.410156 347.5 229.304688 L 285.671875 188.882812 C 285.558594 188.808594 285.523438 188.652344 285.601562 188.535156 C 285.675781 188.417969 285.832031 188.386719 285.945312 188.464844 L 347.773438 228.882812 C 361.914062 238.128906 367.007812 256.417969 359.6875 271.640625 L 355.371094 280.609375 C 347.316406 297.359375 327.207031 304.410156 310.453125 296.351562 C 309.59375 295.9375 308.75 295.488281 307.925781 295 L 279.246094 278.058594 C 273.882812 274.890625 269.503906 270.296875 266.597656 264.789062 L 266.25 264.132812 C 263.222656 258.394531 263.128906 251.554688 265.996094 245.738281 L 273.011719 231.5 C 273.070312 231.378906 273.214844 231.328125 273.339844 231.382812 C 281.644531 235.109375 286.742188 237.894531 288.65625 239.769531 C 289.535156 240.628906 290.019531 241.710938 290.21875 243.027344 C 290.339844 243.84375 290.351562 244.550781 290.300781 245.816406 C 290.257812 246.929688 290.257812 247.269531 290.347656 247.578125 C 291.058594 250.078125 299.558594 255.457031 315.691406 263.542969 C 319.097656 265.25 323.242188 264.054688 325.21875 260.796875 C 326.761719 258.246094 325.945312 254.929688 323.398438 253.386719 C 323.082031 253.195312 322.75 253.039062 322.40625 252.914062 L 290.738281 241.6875 C 290.605469 241.644531 290.539062 241.5 290.585938 241.371094 C 290.632812 241.238281 290.773438 241.171875 290.90625 241.214844 L 322.574219 252.441406 C 322.949219 252.578125 323.3125 252.75 323.65625 252.957031 C 326.441406 254.644531 327.332031 258.269531 325.644531 261.054688 C 323.535156 264.535156 319.105469 265.816406 315.46875 263.992188 C 299.117188 255.796875 290.636719 250.429688 289.863281 247.714844 C 289.753906 247.332031 289.753906 246.984375 289.800781 245.796875 C 289.847656 244.5625 289.839844 243.878906 289.722656 243.101562 C 289.539062 241.886719 289.097656 240.902344 288.308594 240.128906 C 286.46875 238.328125 281.472656 235.589844 273.355469 231.941406 Z M 266.445312 245.957031 " fill-opacity="1" fill-rule="nonzero"/><path stroke-linecap="round" transform="matrix(-0.594664, 0, 0, 0.594664, 378.341852, 58.929363)" fill-opacity="1" fill="#00bf63" fill-rule="evenodd" stroke-linejoin="round" d="M 191.071084 223.741639 C 181.257244 201.933107 175.35843 187.448825 173.374642 180.282226 C 166.950321 157.054825 162.470376 136.789969 138.467852 136.789969 C 114.471898 136.789969 95.015008 156.246858 95.015008 180.249382 C 95.015008 187.087539 100.913822 209.007742 112.704881 246.00999 C 130.105725 245.937733 144.182739 245.070647 154.935922 243.408732 C 165.689105 241.746816 177.736349 235.191119 191.071084 223.741639 Z M 191.071084 223.741639 " stroke="#f56843" stroke-width="0.843" stroke-opacity="1" stroke-miterlimit="4"/><path stroke-linecap="round" transform="matrix(-0.594664, 0, 0, 0.594664, 378.341852, 58.929363)" fill-opacity="1" fill="#00bf63" fill-rule="evenodd" stroke-linejoin="round" d="M 190.992258 223.675951 C 181.178418 201.867418 175.279604 187.383137 173.295816 180.216538 C 166.871495 156.989137 162.39155 136.72428 138.389026 136.72428 C 114.393072 136.72428 94.936182 156.18117 94.936182 180.183694 C 94.936182 187.015282 100.834996 208.935485 112.626055 245.944302 C 130.026899 245.872045 144.103913 245.004959 154.857096 243.343043 C 165.610279 241.681128 177.657523 235.125431 190.992258 223.675951 Z M 190.992258 223.675951 " stroke="#f56843" stroke-width="0.843" stroke-opacity="1" stroke-miterlimit="4"/><path fill="#000000" d="M 264.535156 191.835938 C 270.367188 178.882812 273.871094 170.277344 275.046875 166.03125 C 275.199219 165.476562 275.878906 162.996094 276.0625 162.332031 C 278.3125 154.222656 279.867188 150.078125 282.371094 146.597656 C 285.535156 142.203125 289.859375 139.984375 296.046875 139.984375 C 310.457031 139.984375 322.136719 151.667969 322.136719 166.078125 C 322.136719 170.179688 318.628906 183.21875 311.605469 205.257812 C 311.570312 205.363281 311.472656 205.433594 311.363281 205.433594 C 301.007812 205.390625 292.625 204.875 286.214844 203.882812 C 279.769531 202.886719 272.566406 198.96875 264.601562 192.128906 C 264.519531 192.058594 264.492188 191.9375 264.535156 191.835938 Z M 286.292969 203.390625 C 292.632812 204.371094 300.933594 204.882812 311.183594 204.929688 C 318.148438 183.070312 321.636719 170.09375 321.636719 166.078125 C 321.636719 151.945312 310.179688 140.488281 296.046875 140.488281 C 290.023438 140.488281 285.847656 142.625 282.78125 146.890625 C 280.320312 150.308594 278.78125 154.410156 276.546875 162.46875 C 276.363281 163.128906 275.683594 165.609375 275.527344 166.164062 C 274.351562 170.425781 270.867188 178.988281 265.070312 191.871094 C 272.914062 198.578125 279.988281 202.414062 286.292969 203.390625 Z M 286.292969 203.390625 " fill-opacity="1" fill-rule="nonzero"/><path fill="#000000" d="M 308.132812 177.96875 C 308.132812 177.96875 294.179688 183.449219 272.980469 175.996094 C 272.617188 175.871094 272.214844 175.640625 271.78125 175.3125 C 272.875 173.117188 273.542969 171.613281 273.785156 170.800781 C 274.761719 167.488281 274.851562 165.386719 275.957031 163.285156 C 276.667969 161.925781 276.917969 159.609375 277.625 157.441406 C 278.007812 156.269531 278.730469 154.429688 279.796875 151.925781 C 280.855469 149.824219 281.582031 148.433594 281.96875 147.75 C 282.5625 146.707031 282.5625 145.691406 283.339844 145.804688 C 287.527344 146.414062 292.046875 149.132812 296.894531 153.957031 C 308.15625 165.171875 308.132812 177.96875 308.132812 177.96875 Z M 308.132812 177.96875 " fill-opacity="1" fill-rule="nonzero"/><path fill="#ffffff" d="M 299.171875 156.4375 C 298.003906 155.101562 297.355469 154.265625 296.332031 153.265625 C 295.308594 152.261719 293.992188 151.09375 291.65625 149.421875 C 290.429688 152.652344 289.207031 156.160156 287.648438 160.945312 C 285.308594 168.128906 289.011719 169.261719 293.492188 164.453125 C 296.480469 161.25 298.261719 158.6875 299.171875 156.4375 Z M 285.925781 156.023438 C 285.089844 156.082031 284.636719 159.695312 284.382812 160.316406 C 284.242188 160.660156 284.40625 161.058594 284.75 161.199219 C 285.066406 161.328125 285.429688 161.203125 285.597656 160.90625 C 286.574219 159.171875 287.058594 158.132812 287.050781 157.785156 C 287.035156 156.90625 286.757812 155.964844 285.925781 156.023438 Z M 285.925781 156.023438 " fill-opacity="1" fill-rule="evenodd"/><path fill="#000000" d="M 290.605469 240.785156 C 279.351562 240.785156 270.230469 231.660156 270.230469 220.40625 C 270.230469 209.152344 279.351562 200.03125 290.605469 200.03125 C 301.859375 200.03125 310.984375 209.152344 310.984375 220.40625 C 310.984375 231.660156 301.859375 240.785156 290.605469 240.785156 Z M 290.605469 240.785156 " fill-opacity="1" fill-rule="nonzero"/><path fill="#000000" d="M 307.898438 176.257812 C 309.660156 168.441406 307.074219 161.011719 300.117188 153.941406 C 293.15625 146.871094 288.238281 143.445312 285.449219 143.660156 C 285.308594 143.667969 285.488281 143.714844 285.476562 143.578125 C 285.464844 143.4375 285.503906 143.417969 285.644531 143.410156 C 285.722656 143.402344 285.570312 143.148438 285.652344 143.148438 C 288.675781 143.117188 293.589844 146.597656 300.472656 153.589844 C 307.542969 160.773438 310.191406 168.375 308.386719 176.367188 C 308.359375 176.503906 308.222656 176.585938 308.089844 176.558594 C 307.953125 176.527344 307.871094 176.394531 307.898438 176.257812 Z M 307.898438 176.257812 " fill-opacity="1" fill-rule="nonzero"/><path fill="#ffffff" d="M 303.800781 236.273438 L 296.285156 217.054688 L 277.433594 211.589844 C 276.726562 211.386719 275.984375 211.792969 275.78125 212.503906 C 275.65625 212.929688 275.753906 213.390625 276.035156 213.730469 L 286.765625 226.585938 L 287.648438 240.785156 Z M 303.800781 236.273438 " fill-opacity="1" fill-rule="evenodd"/><path fill="#00bf63" d="M 296.328125 217.066406 C 298.890625 219.867188 300.523438 221.710938 301.21875 222.589844 C 304.875 227.21875 304.742188 228.96875 303.007812 230.09375 C 299.667969 232.265625 296.207031 236.621094 293.871094 232.613281 C 292.3125 229.941406 293.128906 224.757812 296.328125 217.066406 Z M 296.328125 217.066406 " fill-opacity="1" fill-rule="evenodd"/><path fill="#000000" d="M 296.46875 216.886719 C 296.347656 216.75 296.125 216.789062 296.054688 216.957031 C 292.828125 224.71875 292 229.960938 293.609375 232.726562 C 294.53125 234.304688 295.703125 234.777344 297.136719 234.320312 C 298.171875 233.992188 298.957031 233.453125 301.042969 231.816406 C 301.542969 231.421875 301.832031 231.199219 302.148438 230.964844 C 302.492188 230.707031 302.804688 230.488281 303.101562 230.292969 C 305.203125 228.929688 304.820312 226.785156 301.375 222.425781 C 300.671875 221.535156 299.039062 219.691406 296.46875 216.886719 Z M 294.042969 232.472656 C 292.5625 229.933594 293.324219 224.9375 296.367188 217.515625 C 298.773438 220.148438 300.3125 221.890625 300.980469 222.734375 C 304.269531 226.898438 304.597656 228.726562 302.832031 229.875 C 302.523438 230.074219 302.203125 230.296875 301.847656 230.5625 C 301.53125 230.796875 301.234375 231.027344 300.734375 231.421875 C 298.703125 233.015625 297.9375 233.539062 296.984375 233.84375 C 295.777344 234.226562 294.847656 233.851562 294.042969 232.472656 Z M 286.183594 225.945312 C 286.105469 225.832031 285.949219 225.800781 285.835938 225.878906 C 285.71875 225.960938 285.691406 226.117188 285.773438 226.230469 C 286.742188 227.628906 287.636719 228.339844 288.484375 228.339844 C 288.621094 228.339844 288.734375 228.230469 288.734375 228.089844 C 288.734375 227.953125 288.621094 227.839844 288.484375 227.839844 C 287.847656 227.839844 287.070312 227.21875 286.183594 225.945312 Z M 286.183594 225.945312 " fill-opacity="1" fill-rule="nonzero"/><path fill="#ffffff" d="M 309.027344 180.988281 C 307.644531 180.988281 306.519531 179.867188 306.519531 178.484375 C 306.519531 177.101562 307.644531 175.980469 309.027344 175.980469 C 310.410156 175.980469 311.53125 177.101562 311.53125 178.484375 C 311.53125 179.867188 310.410156 180.988281 309.027344 180.988281 Z M 309.027344 180.988281 " fill-opacity="1" fill-rule="nonzero"/><path fill="#000000" d="M 309.144531 181.242188 C 307.625 181.242188 306.390625 180.007812 306.390625 178.484375 C 306.390625 176.960938 307.625 175.726562 309.144531 175.726562 C 310.667969 175.726562 311.902344 176.960938 311.902344 178.484375 C 311.902344 180.007812 310.667969 181.242188 309.144531 181.242188 Z M 309.144531 180.738281 C 310.390625 180.738281 311.402344 179.730469 311.402344 178.484375 C 311.402344 177.238281 310.390625 176.230469 309.144531 176.230469 C 307.902344 176.230469 306.890625 177.238281 306.890625 178.484375 C 306.890625 179.730469 307.902344 180.738281 309.144531 180.738281 Z M 309.144531 180.738281 " fill-opacity="1" fill-rule="nonzero"/><path fill="#000000" d="M 309.144531 179.902344 C 308.277344 179.902344 307.558594 179.277344 307.558594 178.484375 C 307.558594 177.691406 308.277344 177.066406 309.144531 177.066406 C 310.015625 177.066406 310.734375 177.691406 310.734375 178.484375 C 310.734375 179.277344 310.015625 179.902344 309.144531 179.902344 Z M 309.144531 179.402344 C 309.753906 179.402344 310.230469 178.984375 310.230469 178.484375 C 310.230469 177.984375 309.753906 177.566406 309.144531 177.566406 C 308.539062 177.566406 308.0625 177.984375 308.0625 178.484375 C 308.0625 178.984375 308.539062 179.402344 309.144531 179.402344 Z M 309.144531 179.402344 " fill-opacity="1" fill-rule="nonzero"/><path fill="#ffffff" d="M 287.648438 239.617188 L 288.601562 248.96875 L 302.800781 257.320312 L 314.039062 263.167969 L 319.550781 255.816406 C 314.941406 255.550781 312.324219 254.824219 311.699219 253.644531 C 309.851562 250.152344 307.234375 244.417969 303.847656 236.441406 Z M 287.648438 239.617188 " fill-opacity="1" fill-rule="evenodd"/><path fill="#000000" d="M 287.597656 239.203125 C 287.472656 239.226562 287.386719 239.34375 287.398438 239.472656 L 288.351562 248.828125 C 288.363281 248.90625 288.40625 248.976562 288.476562 249.019531 L 302.683594 257.375 L 313.921875 263.222656 C 314.03125 263.277344 314.164062 263.246094 314.238281 263.148438 L 319.75 255.800781 C 319.871094 255.640625 319.761719 255.410156 319.5625 255.398438 C 315.046875 255.136719 312.484375 254.429688 311.921875 253.359375 C 310.074219 249.875 307.460938 244.144531 304.078125 236.175781 C 304.035156 236.070312 303.917969 236.007812 303.800781 236.027344 Z M 303.699219 236.558594 C 307.046875 244.445312 309.636719 250.121094 311.476562 253.59375 C 312.140625 254.84375 314.65625 255.578125 319.070312 255.871094 L 313.964844 262.679688 L 302.925781 256.9375 L 288.839844 248.648438 L 287.921875 239.652344 Z M 288.730469 248.585938 L 288.851562 248.777344 L 288.839844 248.648438 Z M 288.730469 248.585938 " fill-opacity="1" fill-rule="nonzero"/><path fill="#ffffff" d="M 348.613281 171.300781 C 350.273438 171.300781 351.617188 169.957031 351.617188 168.296875 C 351.617188 166.636719 350.273438 165.289062 348.613281 165.289062 C 346.949219 165.289062 345.605469 166.636719 345.605469 168.296875 C 345.605469 169.957031 346.949219 171.300781 348.613281 171.300781 Z M 319.214844 178.820312 L 318.425781 181.824219 C 318.617188 181.890625 318.804688 181.957031 318.988281 182.03125 C 324.269531 184.171875 326.820312 190.1875 324.679688 195.46875 L 323.105469 199.363281 L 326.109375 201.03125 L 327.890625 195.242188 C 329.808594 188.996094 326.804688 182.296875 320.863281 179.574219 Z M 319.214844 178.820312 " fill-opacity="1" fill-rule="evenodd"/><path fill="#000000" d="M 341.683594 182.363281 C 341.675781 182.3125 341.683594 182.257812 341.707031 182.210938 L 347.386719 171.023438 C 347.449219 170.898438 347.597656 170.847656 347.722656 170.914062 C 347.847656 170.976562 347.894531 171.125 347.832031 171.25 L 342.191406 182.367188 L 342.847656 186.796875 C 342.863281 186.914062 342.800781 187.023438 342.695312 187.066406 L 338.113281 188.984375 L 330.625 202.898438 C 330.5625 203.019531 330.410156 203.066406 330.285156 203 C 330.164062 202.9375 330.121094 202.785156 330.183594 202.660156 L 337.714844 188.667969 C 337.742188 188.617188 337.785156 188.578125 337.839844 188.554688 L 342.320312 186.679688 Z M 341.683594 182.363281 " fill-opacity="1" fill-rule="nonzero"/><path fill="#000000" d="M 348.730469 171.554688 C 350.53125 171.554688 351.988281 170.09375 351.988281 168.296875 C 351.988281 166.496094 350.53125 165.039062 348.730469 165.039062 C 346.933594 165.039062 345.472656 166.496094 345.472656 168.296875 C 345.472656 170.09375 346.933594 171.554688 348.730469 171.554688 Z M 348.730469 171.050781 C 347.210938 171.050781 345.976562 169.816406 345.976562 168.296875 C 345.976562 166.773438 347.210938 165.539062 348.730469 165.539062 C 350.253906 165.539062 351.488281 166.773438 351.488281 168.296875 C 351.488281 169.816406 350.253906 171.050781 348.730469 171.050781 Z M 319.4375 178.589844 C 319.296875 178.527344 319.132812 178.605469 319.09375 178.753906 L 318.304688 181.761719 C 318.269531 181.886719 318.34375 182.019531 318.46875 182.0625 C 318.652344 182.125 318.832031 182.191406 319.015625 182.265625 C 324.167969 184.351562 326.652344 190.21875 324.566406 195.375 L 322.992188 199.269531 C 322.945312 199.386719 322.992188 199.519531 323.101562 199.582031 L 326.109375 201.253906 C 326.246094 201.328125 326.421875 201.257812 326.46875 201.105469 L 328.25 195.316406 C 330.203125 188.949219 327.140625 182.121094 321.085938 179.347656 Z M 320.878906 179.800781 C 326.703125 182.472656 329.652344 189.042969 327.769531 195.167969 L 326.082031 200.664062 L 323.539062 199.25 L 325.03125 195.5625 C 327.222656 190.152344 324.613281 183.992188 319.203125 181.800781 C 319.085938 181.753906 318.964844 181.707031 318.847656 181.664062 L 319.5 179.171875 Z M 320.878906 179.800781 " fill-opacity="1" fill-rule="nonzero"/><path fill="#000000" d="M 342.371094 269.625 C 337.996094 275.589844 335.207031 285.117188 333.996094 298.21875 L 334.496094 298.265625 C 335.71875 285.054688 338.542969 275.519531 342.964844 269.664062 C 346.578125 264.875 350.460938 260.933594 354.453125 257.753906 C 357.386719 255.417969 360.128906 253.691406 362.535156 252.484375 L 362.308594 252.035156 C 359.875 253.257812 357.101562 255.003906 354.140625 257.359375 C 350.15625 260.535156 346.28125 264.460938 342.675781 269.21875 L 325.847656 260.105469 C 325.726562 260.039062 325.574219 260.085938 325.507812 260.207031 C 325.441406 260.328125 325.488281 260.480469 325.609375 260.546875 Z M 318.46875 264.886719 C 318.535156 264.765625 318.492188 264.613281 318.371094 264.546875 C 318.25 264.480469 318.097656 264.523438 318.027344 264.644531 L 303.128906 291.941406 C 303.0625 292.0625 303.105469 292.214844 303.226562 292.28125 C 303.347656 292.347656 303.5 292.304688 303.566406 292.179688 Z M 323.9375 253.367188 C 323.875 253.492188 323.925781 253.644531 324.050781 253.703125 C 324.175781 253.765625 324.324219 253.714844 324.386719 253.589844 L 339.148438 223.523438 C 339.210938 223.398438 339.160156 223.25 339.035156 223.1875 C 338.910156 223.128906 338.761719 223.179688 338.699219 223.304688 Z M 323.9375 253.367188 " fill-opacity="1" fill-rule="nonzero"/><path stroke-linecap="round" transform="matrix(-0.594664, 0, 0, 0.594664, 378.341852, 58.929363)" fill="none" stroke-linejoin="round" d="M 112.908515 246.266175 L 125.349889 271.543053 " stroke="#f56843" stroke-width="0.843" stroke-opacity="1" stroke-miterlimit="4"/><path stroke-linecap="round" transform="matrix(-0.594664, 0, 0, 0.594664, 378.341852, 58.929363)" fill="none" stroke-linejoin="round" d="M 151.047171 319.436429 L 173.295816 363.198009 " stroke="#f56843" stroke-width="0.843" stroke-opacity="1" stroke-miterlimit="4"/><g clip-path="url(#936592c059)"><path fill="#000000" d="M 79.601562 129.804688 C 79.46875 129.769531 79.332031 129.847656 79.292969 129.980469 C 79.257812 130.113281 79.332031 130.25 79.464844 130.289062 L 100.726562 136.277344 C 105.921875 137.738281 108.945312 143.136719 107.484375 148.332031 C 107.140625 149.542969 106.570312 150.675781 105.800781 151.667969 L 102.679688 155.691406 C 99.660156 159.585938 100.367188 165.199219 104.265625 168.21875 C 106.015625 169.578125 108.207031 170.234375 110.417969 170.066406 L 121.136719 169.25 C 126.578125 168.835938 131.894531 171.042969 135.441406 175.1875 L 140.644531 181.261719 C 140.734375 181.367188 140.890625 181.378906 140.996094 181.289062 C 141.101562 181.199219 141.113281 181.042969 141.023438 180.9375 L 135.824219 174.863281 C 132.171875 170.59375 126.699219 168.324219 121.097656 168.75 L 110.378906 169.566406 C 108.292969 169.726562 106.226562 169.105469 104.574219 167.824219 C 100.894531 164.972656 100.226562 159.675781 103.078125 155.996094 L 106.195312 151.976562 C 107.003906 150.929688 107.605469 149.738281 107.964844 148.46875 C 109.503906 143.007812 106.324219 137.332031 100.863281 135.796875 Z M 116.445312 202.367188 L 116.445312 198.027344 C 116.445312 197.839844 116.296875 197.691406 116.113281 197.691406 C 115.929688 197.691406 115.777344 197.839844 115.777344 198.027344 L 115.777344 202.367188 L 111.4375 202.367188 C 111.253906 202.367188 111.101562 202.519531 111.101562 202.703125 C 111.101562 202.886719 111.253906 203.039062 111.4375 203.039062 L 115.777344 203.039062 L 115.777344 207.378906 C 115.777344 207.5625 115.929688 207.714844 116.113281 207.714844 C 116.296875 207.714844 116.445312 207.5625 116.445312 207.378906 L 116.445312 203.039062 L 120.789062 203.039062 C 120.972656 203.039062 121.125 202.886719 121.125 202.703125 C 121.125 202.519531 120.972656 202.367188 120.789062 202.367188 Z M 272.78125 95.472656 L 272.78125 91.128906 C 272.78125 90.945312 272.632812 90.796875 272.449219 90.796875 C 272.265625 90.796875 272.113281 90.945312 272.113281 91.128906 L 272.113281 95.472656 L 267.773438 95.472656 C 267.585938 95.472656 267.4375 95.621094 267.4375 95.808594 C 267.4375 95.992188 267.585938 96.140625 267.773438 96.140625 L 272.113281 96.140625 L 272.113281 100.484375 C 272.113281 100.667969 272.265625 100.816406 272.449219 100.816406 C 272.632812 100.816406 272.78125 100.667969 272.78125 100.484375 L 272.78125 96.140625 L 277.125 96.140625 C 277.308594 96.140625 277.457031 95.992188 277.457031 95.808594 C 277.457031 95.621094 277.308594 95.472656 277.125 95.472656 Z M 131.144531 114.847656 L 131.144531 110.503906 C 131.144531 110.320312 130.996094 110.171875 130.8125 110.171875 C 130.625 110.171875 130.476562 110.320312 130.476562 110.503906 L 130.476562 114.847656 L 126.132812 114.847656 C 125.949219 114.847656 125.800781 114.996094 125.800781 115.183594 C 125.800781 115.367188 125.949219 115.515625 126.132812 115.515625 L 130.476562 115.515625 L 130.476562 119.859375 C 130.476562 120.042969 130.625 120.191406 130.8125 120.191406 C 130.996094 120.191406 131.144531 120.042969 131.144531 119.859375 L 131.144531 115.515625 L 135.488281 115.515625 C 135.671875 115.515625 135.824219 115.367188 135.824219 115.183594 C 135.824219 114.996094 135.671875 114.847656 135.488281 114.847656 Z M 374.667969 202.367188 L 374.667969 199.027344 C 374.667969 198.84375 374.519531 198.695312 374.332031 198.695312 C 374.148438 198.695312 374 198.84375 374 199.027344 L 374 202.367188 L 370.660156 202.367188 C 370.472656 202.367188 370.324219 202.519531 370.324219 202.703125 C 370.324219 202.886719 370.472656 203.039062 370.660156 203.039062 L 374 203.039062 L 374 206.378906 C 374 206.5625 374.148438 206.710938 374.332031 206.710938 C 374.519531 206.710938 374.667969 206.5625 374.667969 206.378906 L 374.667969 203.039062 L 378.007812 203.039062 C 378.191406 203.039062 378.34375 202.886719 378.34375 202.703125 C 378.34375 202.519531 378.191406 202.367188 378.007812 202.367188 Z M 169.726562 153.933594 L 169.726562 150.757812 C 169.726562 150.574219 169.578125 150.425781 169.394531 150.425781 C 169.210938 150.425781 169.058594 150.574219 169.058594 150.757812 L 169.058594 153.933594 L 165.886719 153.933594 C 165.703125 153.933594 165.550781 154.082031 165.550781 154.265625 C 165.550781 154.449219 165.703125 154.601562 165.886719 154.601562 L 169.058594 154.601562 L 169.058594 157.773438 C 169.058594 157.957031 169.210938 158.109375 169.394531 158.109375 C 169.578125 158.109375 169.726562 157.957031 169.726562 157.773438 L 169.726562 154.601562 L 172.902344 154.601562 C 173.085938 154.601562 173.234375 154.449219 173.234375 154.265625 C 173.234375 154.082031 173.085938 153.933594 172.902344 153.933594 Z M 254.578125 144.078125 L 254.578125 140.902344 C 254.578125 140.71875 254.425781 140.570312 254.242188 140.570312 C 254.058594 140.570312 253.910156 140.71875 253.910156 140.902344 L 253.910156 144.078125 L 250.734375 144.078125 C 250.550781 144.078125 250.402344 144.226562 250.402344 144.410156 C 250.402344 144.597656 250.550781 144.746094 250.734375 144.746094 L 253.910156 144.746094 L 253.910156 147.917969 C 253.910156 148.101562 254.058594 148.253906 254.242188 148.253906 C 254.425781 148.253906 254.578125 148.101562 254.578125 147.917969 L 254.578125 144.746094 L 257.75 144.746094 C 257.933594 144.746094 258.085938 144.597656 258.085938 144.410156 C 258.085938 144.226562 257.933594 144.078125 257.75 144.078125 Z M 254.578125 144.078125 " fill-opacity="1" fill-rule="nonzero"/></g><path fill="#00bf63" d="M 287.425781 216.894531 C 289.046875 215.730469 290.375 215.441406 291.40625 216.023438 C 292.957031 216.894531 294.949219 218.640625 293.839844 220.820312 C 292.734375 223 291.851562 224.746094 290.742188 224.746094 C 289.636719 224.746094 287.644531 224.964844 286.539062 222.5625 C 285.800781 220.964844 286.097656 219.074219 287.425781 216.894531 Z M 287.425781 216.894531 " fill-opacity="1" fill-rule="evenodd"/><path fill="#ffffff" d="M 287.515625 217.898438 C 287.628906 219.082031 288.023438 219.84375 288.695312 220.183594 C 289.285156 220.484375 290.207031 220.65625 291.460938 220.707031 C 292.011719 220.726562 292.480469 220.296875 292.5 219.742188 C 292.507812 219.554688 292.460938 219.367188 292.367188 219.203125 C 291.679688 218.011719 291.066406 217.28125 290.535156 217.011719 C 289.976562 216.726562 289.246094 216.660156 288.347656 216.8125 C 287.828125 216.898438 287.464844 217.375 287.515625 217.898438 Z M 287.515625 217.898438 " fill-opacity="1" fill-rule="evenodd"/><path fill="#000000" d="M 287.929688 218.292969 C 288.097656 218.558594 288.433594 218.738281 288.816406 218.738281 C 289.371094 218.738281 289.820312 218.363281 289.820312 217.902344 C 289.820312 217.453125 289.390625 217.085938 288.855469 217.066406 C 289.546875 216.992188 290.105469 217.070312 290.539062 217.289062 C 291.019531 217.53125 291.605469 218.234375 292.269531 219.382812 C 292.339844 219.507812 292.375 219.648438 292.371094 219.789062 C 292.355469 220.207031 292.003906 220.527344 291.589844 220.511719 C 290.367188 220.464844 289.480469 220.296875 288.929688 220.015625 C 288.410156 219.753906 288.074219 219.1875 287.929688 218.292969 Z M 288.402344 217.140625 C 288.316406 217.167969 288.242188 217.210938 288.175781 217.261719 C 288.242188 217.214844 288.320312 217.171875 288.402344 217.140625 Z M 287.386719 217.976562 C 287.507812 219.238281 287.941406 220.078125 288.703125 220.464844 C 289.332031 220.78125 290.285156 220.960938 291.570312 221.011719 C 292.261719 221.039062 292.84375 220.5 292.871094 219.808594 C 292.878906 219.574219 292.824219 219.339844 292.703125 219.132812 C 291.992188 217.902344 291.355469 217.140625 290.765625 216.84375 C 290.15625 216.53125 289.371094 216.460938 288.425781 216.621094 C 287.777344 216.730469 287.320312 217.324219 287.386719 217.976562 Z M 287.386719 217.976562 " fill-opacity="1" fill-rule="nonzero"/><path fill="#00bf63" d="M 276.957031 211.476562 C 277.738281 211.28125 278.5625 211.414062 279.429688 211.878906 C 279.59375 211.964844 279.65625 212.167969 279.566406 212.332031 C 279.550781 212.363281 279.527344 212.394531 279.496094 212.421875 C 279.164062 212.71875 278.765625 212.886719 278.292969 212.925781 C 277.671875 212.980469 276.945312 212.980469 276.121094 212.925781 C 275.789062 212.183594 276.066406 211.699219 276.957031 211.476562 Z M 276.957031 211.476562 " fill-opacity="1" fill-rule="evenodd"/><path fill="#000000" d="M 276.730469 211.195312 C 277.574219 210.984375 278.464844 211.128906 279.382812 211.621094 C 279.667969 211.773438 279.773438 212.128906 279.621094 212.414062 C 279.589844 212.472656 279.546875 212.527344 279.496094 212.574219 C 279.125 212.90625 278.671875 213.097656 278.148438 213.140625 C 277.511719 213.195312 276.777344 213.195312 275.941406 213.140625 C 275.847656 213.136719 275.765625 213.078125 275.726562 212.996094 C 275.324219 212.097656 275.695312 211.457031 276.730469 211.195312 Z M 278.105469 212.640625 C 278.523438 212.605469 278.871094 212.460938 279.164062 212.199219 C 279.167969 212.191406 279.175781 212.1875 279.179688 212.175781 C 279.203125 212.136719 279.1875 212.085938 279.144531 212.0625 C 278.332031 211.628906 277.570312 211.503906 276.851562 211.683594 C 276.164062 211.855469 275.953125 212.144531 276.128906 212.652344 C 276.875 212.695312 277.535156 212.691406 278.105469 212.640625 Z M 278.105469 212.640625 " fill-opacity="1" fill-rule="nonzero"/><path fill="#ffffff" d="M 69.347656 114.847656 L 72.6875 115.683594 L 64.167969 124.035156 L 63.167969 120.695312 " fill-opacity="1" fill-rule="evenodd"/><path fill="#ffffff" d="M 197.453125 284.878906 C 196.070312 284.878906 194.949219 283.757812 194.949219 282.375 C 194.949219 280.988281 196.070312 279.867188 197.453125 279.867188 C 198.835938 279.867188 199.960938 280.988281 199.960938 282.375 C 199.960938 283.757812 198.835938 284.878906 197.453125 284.878906 Z M 197.453125 284.878906 " fill-opacity="1" fill-rule="nonzero"/><path fill="#000000" d="M 197.574219 285.128906 C 196.050781 285.128906 194.816406 283.894531 194.816406 282.375 C 194.816406 280.851562 196.050781 279.617188 197.574219 279.617188 C 199.097656 279.617188 200.328125 280.851562 200.328125 282.375 C 200.328125 283.894531 199.097656 285.128906 197.574219 285.128906 Z M 197.574219 284.628906 C 198.820312 284.628906 199.828125 283.617188 199.828125 282.375 C 199.828125 281.128906 198.820312 280.117188 197.574219 280.117188 C 196.328125 280.117188 195.320312 281.128906 195.320312 282.375 C 195.320312 283.617188 196.328125 284.628906 197.574219 284.628906 Z M 197.574219 284.628906 " fill-opacity="1" fill-rule="nonzero"/><path fill="#ffffff" d="M 159.707031 245.128906 C 158.324219 245.128906 157.199219 244.003906 157.199219 242.621094 C 157.199219 241.238281 158.324219 240.117188 159.707031 240.117188 C 161.089844 240.117188 162.210938 241.238281 162.210938 242.621094 C 162.210938 244.003906 161.089844 245.128906 159.707031 245.128906 Z M 159.707031 245.128906 " fill-opacity="1" fill-rule="nonzero"/><path fill="#000000" d="M 159.707031 245.378906 C 158.183594 245.378906 156.949219 244.144531 156.949219 242.621094 C 156.949219 241.101562 158.183594 239.867188 159.707031 239.867188 C 161.230469 239.867188 162.460938 241.101562 162.460938 242.621094 C 162.460938 244.144531 161.230469 245.378906 159.707031 245.378906 Z M 159.707031 244.875 C 160.953125 244.875 161.960938 243.867188 161.960938 242.621094 C 161.960938 241.375 160.953125 240.367188 159.707031 240.367188 C 158.460938 240.367188 157.453125 241.375 157.453125 242.621094 C 157.453125 243.867188 158.460938 244.875 159.707031 244.875 Z M 159.707031 244.875 " fill-opacity="1" fill-rule="nonzero"/><path fill="#000000" d="M 197.574219 283.792969 C 196.703125 283.792969 195.988281 283.164062 195.988281 282.375 C 195.988281 281.582031 196.703125 280.953125 197.574219 280.953125 C 198.445312 280.953125 199.160156 281.582031 199.160156 282.375 C 199.160156 283.164062 198.445312 283.792969 197.574219 283.792969 Z M 197.574219 283.292969 C 198.179688 283.292969 198.660156 282.875 198.660156 282.375 C 198.660156 281.875 198.179688 281.453125 197.574219 281.453125 C 196.96875 281.453125 196.488281 281.875 196.488281 282.375 C 196.488281 282.875 196.96875 283.292969 197.574219 283.292969 Z M 197.574219 283.292969 " fill-opacity="1" fill-rule="nonzero"/><path fill="#000000" d="M 159.707031 244.042969 C 158.835938 244.042969 158.121094 243.414062 158.121094 242.621094 C 158.121094 241.832031 158.835938 241.203125 159.707031 241.203125 C 160.574219 241.203125 161.292969 241.832031 161.292969 242.621094 C 161.292969 243.414062 160.574219 244.042969 159.707031 244.042969 Z M 159.707031 243.539062 C 160.3125 243.539062 160.792969 243.121094 160.792969 242.621094 C 160.792969 242.121094 160.3125 241.703125 159.707031 241.703125 C 159.101562 241.703125 158.621094 242.121094 158.621094 242.621094 C 158.621094 243.121094 159.101562 243.539062 159.707031 243.539062 Z M 159.707031 243.539062 " fill-opacity="1" fill-rule="nonzero"/><path fill="#000000" d="M 306.808594 178.667969 C 304.1875 181.066406 298.457031 182.132812 289.597656 181.910156 C 280.757812 181.683594 274.480469 180.339844 270.757812 177.859375 C 270.644531 177.78125 270.613281 177.625 270.6875 177.511719 C 270.765625 177.394531 270.921875 177.363281 271.035156 177.441406 C 274.664062 179.859375 280.855469 181.1875 289.609375 181.40625 C 298.347656 181.628906 303.972656 180.582031 306.472656 178.300781 C 306.574219 178.207031 306.734375 178.214844 306.824219 178.316406 C 306.917969 178.417969 306.910156 178.578125 306.808594 178.667969 Z M 306.808594 178.667969 " fill-opacity="1" fill-rule="nonzero"/><path fill="#00bf63" d="M 18.144531 65.777344 C 26.441406 68.628906 34.898438 73.695312 43.515625 80.964844 C 52.402344 88.46875 61.988281 98.765625 72.273438 111.863281 L 60.714844 123.023438 C 47.910156 112.144531 37.953125 102.207031 30.84375 93.203125 C 23.945312 84.472656 19.144531 75.882812 16.433594 67.433594 C 16.28125 66.957031 16.410156 66.429688 16.773438 66.082031 C 17.136719 65.730469 17.667969 65.613281 18.144531 65.777344 Z M 18.144531 65.777344 " fill-opacity="1" fill-rule="evenodd"/><path fill="#c1ff72" d="M 31.265625 72.089844 L 22.414062 80.273438 C 17.625 71.589844 15.730469 66.800781 16.734375 65.910156 C 17.734375 65.019531 22.578125 67.078125 31.265625 72.089844 Z M 31.265625 72.089844 " fill-opacity="1" fill-rule="evenodd"/><path fill="#000000" d="M 65.585938 122.832031 L 70.847656 129.210938 L 70.347656 124.367188 L 74.523438 125.371094 L 72.855469 121.695312 L 77.699219 121.695312 L 71.628906 116.90625 L 73.183594 115.382812 L 69.40625 114.4375 L 69.285156 114.925781 L 72.191406 115.652344 L 64.289062 123.398438 L 63.40625 120.457031 L 62.925781 120.597656 L 64.046875 124.335938 Z M 65.585938 122.832031 " fill-opacity="1" fill-rule="evenodd"/><path fill="#000000" d="M 43.679688 80.664062 C 52.582031 88.175781 62.179688 98.488281 72.476562 111.59375 C 72.554688 111.695312 72.546875 111.839844 72.453125 111.929688 L 60.894531 123.09375 C 60.800781 123.183594 60.65625 123.1875 60.558594 123.105469 C 47.742188 112.214844 37.773438 102.261719 30.652344 93.246094 C 23.738281 84.496094 18.921875 75.878906 16.199219 67.398438 C 16.019531 66.828125 16.175781 66.203125 16.605469 65.789062 C 17.035156 65.371094 17.664062 65.230469 18.230469 65.425781 C 26.558594 68.292969 35.042969 73.371094 43.679688 80.664062 Z M 71.941406 111.726562 C 61.71875 98.726562 52.191406 88.5 43.359375 81.046875 C 34.765625 73.792969 26.335938 68.746094 18.070312 65.902344 C 17.679688 65.765625 17.25 65.863281 16.953125 66.148438 C 16.660156 66.429688 16.554688 66.855469 16.679688 67.246094 C 19.378906 75.664062 24.167969 84.226562 31.042969 92.9375 C 38.109375 101.882812 48 111.761719 60.710938 122.574219 Z M 71.941406 111.726562 " fill-opacity="1" fill-rule="nonzero"/><path fill="#ffffff" d="M 55.085938 94.136719 L 56.574219 96.789062 L 72.105469 111.761719 L 83.726562 112.453125 L 84.710938 111.5 Z M 43.359375 105.363281 L 60.203125 135.289062 L 61.171875 134.320312 L 60.683594 122.6875 L 45.988281 106.898438 Z M 43.359375 105.363281 " fill-opacity="1" fill-rule="evenodd"/><path fill="#000000" d="M 55.375 94.039062 C 55.15625 93.910156 54.90625 94.15625 55.03125 94.378906 L 56.519531 97.03125 L 56.5625 97.089844 L 72.09375 112.058594 C 72.136719 112.101562 72.191406 112.125 72.253906 112.128906 L 83.875 112.820312 C 83.945312 112.824219 84.011719 112.800781 84.0625 112.75 L 85.050781 111.800781 C 85.167969 111.683594 85.144531 111.488281 85.003906 111.402344 Z M 84.464844 111.667969 L 83.792969 112.316406 L 72.375 111.636719 L 56.9375 96.753906 L 55.917969 94.941406 Z M 56.914062 96.730469 L 56.957031 96.785156 L 56.9375 96.753906 Z M 43.652344 105.265625 C 43.429688 105.136719 43.179688 105.382812 43.304688 105.605469 L 60.148438 135.53125 C 60.230469 135.675781 60.429688 135.703125 60.546875 135.585938 L 61.515625 134.617188 C 61.5625 134.566406 61.589844 134.5 61.585938 134.429688 L 61.097656 122.796875 C 61.097656 122.734375 61.074219 122.679688 61.03125 122.636719 L 46.335938 106.847656 L 46.277344 106.800781 Z M 45.992188 107.214844 L 60.601562 122.910156 L 61.082031 134.339844 L 60.425781 134.996094 L 44.195312 106.164062 Z M 45.992188 107.214844 " fill-opacity="1" fill-rule="nonzero"/><path fill="#ffffff" d="M 36.277344 91.464844 C 33.507812 91.464844 31.265625 89.222656 31.265625 86.453125 C 31.265625 83.6875 33.507812 81.441406 36.277344 81.441406 C 39.042969 81.441406 41.285156 83.6875 41.285156 86.453125 C 41.285156 89.222656 39.042969 91.464844 36.277344 91.464844 Z M 36.277344 91.464844 " fill-opacity="1" fill-rule="nonzero"/><path fill="#000000" d="M 36.207031 91.597656 C 33.300781 91.597656 30.945312 89.242188 30.945312 86.335938 C 30.945312 83.429688 33.300781 81.074219 36.207031 81.074219 C 39.113281 81.074219 41.46875 83.429688 41.46875 86.335938 C 41.46875 89.242188 39.113281 91.597656 36.207031 91.597656 Z M 36.207031 91.097656 C 38.835938 91.097656 40.96875 88.964844 40.96875 86.335938 C 40.96875 83.707031 38.835938 81.578125 36.207031 81.578125 C 33.578125 81.578125 31.449219 83.707031 31.449219 86.335938 C 31.449219 88.964844 33.578125 91.097656 36.207031 91.097656 Z M 36.207031 91.097656 " fill-opacity="1" fill-rule="nonzero"/><path fill="#000000" d="M 36.277344 89.042969 C 37.707031 89.042969 38.863281 87.882812 38.863281 86.453125 C 38.863281 85.023438 37.707031 83.863281 36.277344 83.863281 C 34.84375 83.863281 33.6875 85.023438 33.6875 86.453125 C 33.6875 87.882812 34.84375 89.042969 36.277344 89.042969 Z M 36.277344 88.542969 C 35.121094 88.542969 34.1875 87.605469 34.1875 86.453125 C 34.1875 85.300781 35.121094 84.367188 36.277344 84.367188 C 37.429688 84.367188 38.363281 85.300781 38.363281 86.453125 C 38.363281 87.605469 37.429688 88.542969 36.277344 88.542969 Z M 31.4375 72.105469 L 31.09375 71.738281 L 22.164062 80.089844 L 22.507812 80.457031 Z M 31.4375 72.105469 " fill-opacity="1" fill-rule="nonzero"/><path fill="#000000" d="M 206.441406 178.273438 C 213.347656 182.621094 218.105469 186.761719 220.710938 190.707031 C 223.320312 194.644531 225.667969 201.296875 227.761719 210.664062 L 227.273438 210.773438 C 225.1875 201.460938 222.859375 194.859375 220.292969 190.984375 C 217.730469 187.109375 213.023438 183.011719 206.171875 178.695312 Z M 206.441406 178.273438 " fill-opacity="1" fill-rule="nonzero"/><path fill="#ffffff" d="M 303.21875 234.957031 C 300.523438 235.914062 298.03125 236.640625 295.742188 237.136719 C 293.503906 237.625 290.871094 238.046875 287.84375 238.402344 C 287.203125 238.476562 286.746094 239.058594 286.820312 239.699219 C 286.824219 239.746094 286.835938 239.796875 286.847656 239.84375 L 286.878906 239.976562 C 287.046875 240.640625 287.6875 241.074219 288.363281 240.976562 C 291.175781 240.574219 293.804688 240.132812 296.246094 239.644531 C 298.71875 239.148438 301.21875 238.292969 303.742188 237.078125 C 304.292969 236.8125 304.582031 236.199219 304.433594 235.605469 C 304.308594 235.109375 303.800781 234.804688 303.304688 234.929688 C 303.273438 234.9375 303.246094 234.945312 303.21875 234.957031 Z M 303.21875 234.957031 " fill-opacity="1" fill-rule="evenodd"/><path fill="#000000" d="M 293.320312 238.078125 C 294.175781 237.925781 294.984375 237.769531 295.75 237.601562 C 296.683594 237.398438 297.65625 237.136719 298.667969 236.816406 L 299.027344 238.382812 C 298.015625 238.683594 297.023438 238.929688 296.046875 239.125 C 295.273438 239.28125 294.476562 239.433594 293.664062 239.578125 Z M 292.824219 238.164062 L 293.171875 239.667969 C 291.582031 239.945312 289.925781 240.207031 288.195312 240.453125 C 287.769531 240.515625 287.371094 240.246094 287.265625 239.828125 L 287.234375 239.699219 C 287.226562 239.671875 287.222656 239.640625 287.21875 239.613281 C 287.175781 239.246094 287.4375 238.914062 287.804688 238.871094 C 289.617188 238.660156 291.289062 238.425781 292.824219 238.164062 Z M 299.144531 236.660156 C 300.449219 236.230469 301.816406 235.703125 303.242188 235.078125 C 303.277344 235.066406 303.308594 235.054688 303.339844 235.046875 C 303.671875 234.964844 304.007812 235.164062 304.089844 235.496094 L 304.140625 235.707031 C 304.238281 236.101562 304.039062 236.511719 303.664062 236.675781 C 302.25 237.289062 300.863281 237.808594 299.507812 238.234375 Z M 303.042969 234.621094 C 300.34375 235.796875 297.875 236.628906 295.644531 237.113281 C 293.402344 237.601562 290.773438 238.019531 287.746094 238.375 C 287.105469 238.449219 286.644531 239.03125 286.722656 239.671875 C 286.726562 239.722656 286.734375 239.769531 286.75 239.820312 L 286.78125 239.949219 C 286.945312 240.617188 287.585938 241.046875 288.265625 240.949219 C 291.078125 240.550781 293.703125 240.105469 296.144531 239.617188 C 298.613281 239.125 301.183594 238.296875 303.863281 237.132812 C 304.460938 236.875 304.785156 236.21875 304.628906 235.585938 L 304.574219 235.375 C 304.425781 234.777344 303.820312 234.410156 303.21875 234.558594 C 303.160156 234.574219 303.101562 234.59375 303.042969 234.621094 Z M 303.042969 234.621094 " fill-opacity="1" fill-rule="nonzero"/><path fill="#00bf63" d="M 332.910156 207.546875 L 330.574219 206.542969 L 328.234375 211.386719 L 330.574219 212.890625 Z M 325.0625 209.382812 C 325.683594 209.382812 326.3125 209.28125 326.730469 208.882812 C 327.179688 208.457031 327.398438 207.714844 327.398438 207.046875 C 327.398438 206.511719 327.199219 205.769531 326.898438 205.375 C 326.472656 204.816406 325.816406 204.707031 325.0625 204.707031 C 324.386719 204.707031 323.816406 204.753906 323.390625 205.207031 C 323 205.625 322.722656 206.429688 322.722656 207.046875 C 322.722656 207.816406 322.980469 208.625 323.558594 209.050781 C 323.945312 209.335938 324.539062 209.382812 325.0625 209.382812 Z M 325.0625 209.382812 " fill-opacity="1" fill-rule="evenodd"/><path fill="#000000" d="M 333.074219 207.414062 L 330.285156 206.21875 L 327.746094 211.480469 L 330.515625 213.261719 Z M 330.292969 212.523438 L 328.390625 211.296875 L 330.527344 206.871094 L 332.414062 207.675781 Z M 324.894531 209.632812 C 325.695312 209.632812 326.304688 209.472656 326.738281 209.066406 C 327.214844 208.613281 327.484375 207.828125 327.484375 207.046875 C 327.484375 206.433594 327.253906 205.648438 326.929688 205.222656 C 326.492188 204.652344 325.871094 204.457031 324.894531 204.457031 C 323.964844 204.457031 323.472656 204.578125 323.039062 205.039062 C 322.613281 205.496094 322.304688 206.355469 322.304688 207.046875 C 322.304688 207.960938 322.632812 208.800781 323.242188 209.25 C 323.632812 209.539062 324.152344 209.632812 324.894531 209.632812 Z M 324.894531 209.132812 C 324.253906 209.132812 323.816406 209.054688 323.539062 208.847656 C 323.074219 208.503906 322.804688 207.8125 322.804688 207.046875 C 322.804688 206.476562 323.070312 205.738281 323.40625 205.378906 C 323.714844 205.050781 324.089844 204.957031 324.894531 204.957031 C 325.730469 204.957031 326.210938 205.109375 326.53125 205.527344 C 326.785156 205.859375 326.980469 206.535156 326.980469 207.046875 C 326.980469 207.703125 326.757812 208.355469 326.390625 208.703125 C 326.074219 209.003906 325.578125 209.132812 324.894531 209.132812 Z M 324.894531 209.132812 " fill-opacity="1" fill-rule="nonzero"/><path fill="#ffffff" d="M 201.964844 137.230469 L 231.027344 137.230469 C 231.578125 137.230469 232.027344 137.679688 232.027344 138.230469 C 232.027344 138.785156 231.578125 139.234375 231.027344 139.234375 L 201.964844 139.234375 C 201.410156 139.234375 200.960938 138.785156 200.960938 138.230469 C 200.960938 137.679688 201.410156 137.230469 201.964844 137.230469 Z M 201.964844 137.230469 " fill-opacity="1" fill-rule="nonzero"/><path fill="#000000" d="M 231.027344 137.230469 L 201.964844 137.230469 C 201.410156 137.230469 200.960938 137.679688 200.960938 138.230469 C 200.960938 138.785156 201.410156 139.234375 201.964844 139.234375 L 231.027344 139.234375 C 231.578125 139.234375 232.027344 138.785156 232.027344 138.230469 C 232.027344 137.679688 231.578125 137.230469 231.027344 137.230469 Z M 231.027344 137.730469 C 231.304688 137.730469 231.527344 137.953125 231.527344 138.230469 C 231.527344 138.507812 231.304688 138.734375 231.027344 138.734375 L 201.964844 138.734375 C 201.6875 138.734375 201.460938 138.507812 201.460938 138.230469 C 201.460938 137.953125 201.6875 137.730469 201.964844 137.730469 Z M 231.027344 137.730469 " fill-opacity="1" fill-rule="nonzero"/><path stroke-linecap="butt" transform="matrix(-0.594664, 0, 0, 0.594664, 378.341852, 58.929363)" fill-opacity="1" fill="#ffffff" fill-rule="nonzero" stroke-linejoin="miter" d="M 174.281141 362.40318 L 152.098185 318.851803 C 151.776312 318.234333 151.020896 317.984717 150.396857 318.300021 C 149.772817 318.621894 149.529771 319.383879 149.845075 320.001349 L 172.028031 363.546157 C 172.349904 364.170197 173.111889 364.419812 173.729359 364.097939 C 174.353399 363.782635 174.603014 363.02065 174.281141 362.40318 Z M 174.281141 362.40318 " stroke="#f56843" stroke-width="0.843" stroke-opacity="1" stroke-miterlimit="4"/><path fill="#ffffff" d="M 282.765625 207.816406 C 283.714844 208.625 288.175781 205.199219 289.132812 204.796875 C 289.644531 204.578125 289.882812 203.988281 289.667969 203.472656 C 289.46875 203.003906 288.949219 202.757812 288.457031 202.898438 C 285.527344 203.742188 283.875 204.355469 283.503906 204.738281 C 282.554688 205.703125 281.8125 207.011719 282.765625 207.816406 Z M 282.765625 207.816406 " fill-opacity="1" fill-rule="evenodd"/><path fill="#ffffff" d="M 260.3125 230.589844 L 250.335938 224.269531 C 250.179688 224.167969 249.972656 224.214844 249.875 224.371094 C 249.871094 224.375 249.871094 224.378906 249.867188 224.382812 L 246.050781 230.988281 C 245.960938 231.144531 246.007812 231.339844 246.160156 231.4375 L 255.957031 237.757812 C 256.113281 237.859375 256.320312 237.8125 256.417969 237.660156 C 256.421875 237.65625 256.421875 237.652344 256.425781 237.652344 L 260.421875 231.042969 C 260.515625 230.886719 260.46875 230.6875 260.3125 230.589844 Z M 260.3125 230.589844 " fill-opacity="1" fill-rule="evenodd"/><path fill="#000000" d="M 260.78125 230.6875 L 250.300781 224.140625 C 250.144531 224.042969 249.9375 224.089844 249.839844 224.246094 L 245.59375 231.042969 C 245.496094 231.199219 245.542969 231.40625 245.699219 231.503906 L 256.179688 238.054688 C 256.335938 238.152344 256.542969 238.105469 256.640625 237.949219 L 260.886719 231.148438 C 260.988281 230.992188 260.9375 230.789062 260.78125 230.6875 Z M 260.375 231.027344 L 256.304688 237.542969 L 246.105469 231.167969 L 250.175781 224.652344 Z M 260.375 231.027344 " fill-opacity="1" fill-rule="nonzero"/><path fill="#000000" d="M 258.257812 230.792969 L 251.457031 226.542969 C 251.300781 226.445312 251.097656 226.492188 251 226.648438 L 248.167969 231.183594 C 248.070312 231.339844 248.117188 231.542969 248.273438 231.640625 L 255.070312 235.890625 C 255.226562 235.988281 255.433594 235.941406 255.53125 235.785156 L 258.363281 231.25 C 258.460938 231.09375 258.414062 230.890625 258.257812 230.792969 Z M 255.195312 235.378906 L 248.679688 231.304688 L 251.335938 227.054688 L 257.851562 231.128906 Z M 255.195312 235.378906 " fill-opacity="1" fill-rule="nonzero"/></svg>