<svg width="584" height="590" viewBox="0 0 584 590" fill="none" xmlns="http://www.w3.org/2000/svg">
<rect x="439.2" y="413.313" width="30.5826" height="31.6526" transform="rotate(-169 439.2 413.313)" fill="#C9FF1B"/>
<rect x="439.2" y="413.313" width="30.5826" height="31.6526" transform="rotate(-169 439.2 413.313)" fill="#C9FF1B"/>
<rect x="418.969" y="425.503" width="30.5826" height="31.6526" transform="rotate(-169 418.969 425.503)" fill="#C9FF1B"/>
<rect x="400.602" y="428.482" width="30.5826" height="31.6526" transform="rotate(-169 400.602 428.482)" fill="#C9FF1B"/>
<rect x="382.076" y="434.454" width="30.5826" height="31.6526" transform="rotate(-169 382.076 434.454)" fill="#C9FF1B"/>
<rect x="369.436" y="443.555" width="30.5826" height="31.6526" transform="rotate(-169 369.436 443.555)" fill="#C9FF1B"/>
<rect x="345.818" y="450.079" width="30.5826" height="31.6526" transform="rotate(-169 345.818 450.079)" fill="#C9FF1B"/>
<rect x="319.881" y="454.61" width="30.5826" height="31.6526" transform="rotate(-169 319.881 454.61)" fill="#C9FF1B"/>
<rect x="300.846" y="457.459" width="30.5826" height="31.6526" transform="rotate(-169 300.846 457.459)" fill="#C9FF1B"/>
<rect x="403.479" y="412.919" width="30.5826" height="31.6526" transform="rotate(-169 403.479 412.919)" fill="#C9FF1B"/>
<rect x="383.822" y="418.671" width="30.5826" height="31.6526" transform="rotate(-169 383.822 418.671)" fill="#C9FF1B"/>
<rect x="355.277" y="424.681" width="30.5826" height="31.6526" transform="rotate(-169 355.277 424.681)" fill="#C9FF1B"/>
<rect x="412.628" y="400.768" width="30.5826" height="31.6526" transform="rotate(-169 412.628 400.768)" fill="#C9FF1B"/>
<rect x="330.243" y="428.676" width="30.5826" height="31.6526" transform="rotate(-169 330.243 428.676)" fill="#C9FF1B"/>
<rect x="302.199" y="428.233" width="30.5826" height="31.6526" transform="rotate(-169 302.199 428.233)" fill="#C9FF1B"/>
<rect x="337.4" y="409.647" width="30.5826" height="31.6526" transform="rotate(-169 337.4 409.647)" fill="#C9FF1B"/>
<rect x="312.808" y="411.417" width="30.5826" height="31.6526" transform="rotate(-169 312.808 411.417)" fill="#C9FF1B"/>
<rect x="370.015" y="399.865" width="30.5826" height="31.6526" transform="rotate(-169 370.015 399.865)" fill="#C9FF1B"/>
<rect x="385.348" y="398.281" width="30.5826" height="31.6526" transform="rotate(-169 385.348 398.281)" fill="#C9FF1B"/>
<rect x="370.716" y="443.804" width="16.5972" height="16.7695" transform="rotate(-169 370.716 443.804)" fill="#5A5555"/>
<rect x="361.469" y="442.026" width="8.29861" height="11.3648" transform="rotate(-169 361.469 442.026)" fill="white"/>
<rect x="355.352" y="435.809" width="8.29861" height="11.3648" transform="rotate(-169 355.352 435.809)" fill="white"/>
<rect x="348.57" y="432.702" width="8.29861" height="11.3648" transform="rotate(-169 348.57 432.702)" fill="white"/>
<rect x="348.084" y="424.066" width="8.29861" height="11.3648" transform="rotate(-169 348.084 424.066)" fill="white"/>
<rect x="341.971" y="418.83" width="8.29861" height="11.3648" transform="rotate(-169 341.971 418.83)" fill="white"/>
<rect x="340.805" y="409.281" width="8.29861" height="11.3648" transform="rotate(-169 340.805 409.281)" fill="white"/>
<rect x="335.215" y="406.4" width="8.29861" height="11.3648" transform="rotate(-169 335.215 406.4)" fill="white"/>
<rect x="332.742" y="397.377" width="8.29861" height="11.3648" transform="rotate(-169 332.742 397.377)" fill="white"/>
<rect x="330.874" y="402.803" width="8.29861" height="11.3648" transform="rotate(-169 330.874 402.803)" fill="white"/>
<rect x="327.72" y="391.076" width="8.29861" height="11.3648" transform="rotate(-169 327.72 391.076)" fill="white"/>
<rect x="327.813" y="387.097" width="8.29861" height="11.3648" transform="rotate(-169 327.813 387.097)" fill="white"/>
<rect x="361.746" y="432.227" width="16.5972" height="16.7695" transform="rotate(-169 361.746 432.227)" fill="#5A5555"/>
<rect x="354.09" y="418.15" width="16.5972" height="16.7695" transform="rotate(-169 354.09 418.15)" fill="#5A5555"/>
<rect x="345.138" y="402.54" width="16.5972" height="16.7695" transform="rotate(-169 345.138 402.54)" fill="#5A5555"/>
<rect x="340.508" y="390.526" width="16.5972" height="16.7695" transform="rotate(-169 340.508 390.526)" fill="#5A5555"/>
<rect x="312.606" y="450.794" width="9.31189" height="10.147" transform="rotate(-169 312.606 450.794)" fill="#418403"/>
<rect x="323.874" y="432.446" width="9.31189" height="10.147" transform="rotate(-169 323.874 432.446)" fill="#418403"/>
<rect x="304.578" y="416.497" width="9.31189" height="10.147" transform="rotate(-169 304.578 416.497)" fill="#418403"/>
<rect x="374.585" y="405.05" width="9.31189" height="10.147" transform="rotate(-169 374.585 405.05)" fill="#418403"/>
<rect x="374.585" y="405.05" width="9.31189" height="10.147" transform="rotate(-169 374.585 405.05)" fill="#418403"/>
<rect x="374.585" y="405.05" width="9.31189" height="10.147" transform="rotate(-169 374.585 405.05)" fill="#418403"/>
<rect x="374.585" y="405.05" width="9.31189" height="10.147" transform="rotate(-169 374.585 405.05)" fill="#418403"/>
<rect x="410.648" y="396.79" width="5.81973" height="10.147" transform="rotate(-169 410.648 396.79)" fill="#418403"/>
<rect x="402.083" y="382.596" width="5.81973" height="10.147" transform="rotate(-169 402.083 382.596)" fill="#418403"/>
<rect x="374.585" y="405.05" width="9.31189" height="10.147" transform="rotate(-169 374.585 405.05)" fill="#418403"/>
<rect x="374.585" y="405.05" width="9.31189" height="10.147" transform="rotate(-169 374.585 405.05)" fill="#418403"/>
<rect x="396.22" y="420.673" width="9.31189" height="10.147" transform="rotate(-169 396.22 420.673)" fill="#418403"/>
<rect x="487.837" y="366.949" width="30.5826" height="31.6526" transform="rotate(-169 487.837 366.949)" fill="#C9FF1B"/>
<rect x="487.837" y="366.949" width="30.5826" height="31.6526" transform="rotate(-169 487.837 366.949)" fill="#C9FF1B"/>
<rect x="467.606" y="379.139" width="30.5826" height="31.6526" transform="rotate(-169 467.606 379.139)" fill="#C9FF1B"/>
<rect x="449.239" y="382.118" width="30.5826" height="31.6526" transform="rotate(-169 449.239 382.118)" fill="#C9FF1B"/>
<rect x="430.713" y="388.09" width="30.5826" height="31.6526" transform="rotate(-169 430.713 388.09)" fill="#C9FF1B"/>
<rect x="418.073" y="397.191" width="30.5826" height="31.6526" transform="rotate(-169 418.073 397.191)" fill="#C9FF1B"/>
<rect x="394.455" y="403.714" width="30.5826" height="31.6526" transform="rotate(-169 394.455 403.714)" fill="#C9FF1B"/>
<rect x="368.518" y="408.246" width="30.5826" height="31.6526" transform="rotate(-169 368.518 408.246)" fill="#C9FF1B"/>
<rect x="349.483" y="411.095" width="30.5826" height="31.6526" transform="rotate(-169 349.483 411.095)" fill="#C9FF1B"/>
<rect x="452.116" y="366.555" width="30.5826" height="31.6526" transform="rotate(-169 452.116 366.555)" fill="#C9FF1B"/>
<rect x="432.459" y="372.307" width="30.5826" height="31.6526" transform="rotate(-169 432.459 372.307)" fill="#C9FF1B"/>
<rect x="403.914" y="378.317" width="30.5826" height="31.6526" transform="rotate(-169 403.914 378.317)" fill="#C9FF1B"/>
<rect x="461.265" y="354.404" width="30.5826" height="31.6526" transform="rotate(-169 461.265 354.404)" fill="#C9FF1B"/>
<rect x="378.88" y="382.312" width="30.5826" height="31.6526" transform="rotate(-169 378.88 382.312)" fill="#C9FF1B"/>
<rect x="350.836" y="381.869" width="30.5826" height="31.6526" transform="rotate(-169 350.836 381.869)" fill="#C9FF1B"/>
<rect x="386.037" y="363.283" width="30.5826" height="31.6526" transform="rotate(-169 386.037 363.283)" fill="#C9FF1B"/>
<rect x="361.445" y="365.053" width="30.5826" height="31.6526" transform="rotate(-169 361.445 365.053)" fill="#C9FF1B"/>
<rect x="418.652" y="353.501" width="30.5826" height="31.6526" transform="rotate(-169 418.652 353.501)" fill="#C9FF1B"/>
<rect x="433.985" y="351.917" width="30.5826" height="31.6526" transform="rotate(-169 433.985 351.917)" fill="#C9FF1B"/>
<rect x="419.353" y="397.44" width="16.5972" height="16.7695" transform="rotate(-169 419.353 397.44)" fill="#5A5555"/>
<rect x="410.106" y="395.662" width="8.29861" height="11.3648" transform="rotate(-169 410.106 395.662)" fill="white"/>
<rect x="403.989" y="389.445" width="8.29861" height="11.3648" transform="rotate(-169 403.989 389.445)" fill="white"/>
<rect x="397.207" y="386.338" width="8.29861" height="11.3648" transform="rotate(-169 397.207 386.338)" fill="white"/>
<rect x="396.721" y="377.702" width="8.29861" height="11.3648" transform="rotate(-169 396.721 377.702)" fill="white"/>
<rect x="390.608" y="372.466" width="8.29861" height="11.3648" transform="rotate(-169 390.608 372.466)" fill="white"/>
<rect x="389.442" y="362.917" width="8.29861" height="11.3648" transform="rotate(-169 389.442 362.917)" fill="white"/>
<rect x="383.852" y="360.036" width="8.29861" height="11.3648" transform="rotate(-169 383.852 360.036)" fill="white"/>
<rect x="381.379" y="351.013" width="8.29861" height="11.3648" transform="rotate(-169 381.379 351.013)" fill="white"/>
<rect x="379.511" y="356.439" width="8.29861" height="11.3648" transform="rotate(-169 379.511 356.439)" fill="white"/>
<rect x="376.357" y="344.712" width="8.29861" height="11.3648" transform="rotate(-169 376.357 344.712)" fill="white"/>
<rect x="376.45" y="340.733" width="8.29861" height="11.3648" transform="rotate(-169 376.45 340.733)" fill="white"/>
<rect x="410.383" y="385.863" width="16.5972" height="16.7695" transform="rotate(-169 410.383 385.863)" fill="#5A5555"/>
<rect x="402.727" y="371.786" width="16.5972" height="16.7695" transform="rotate(-169 402.727 371.786)" fill="#5A5555"/>
<rect x="393.775" y="356.176" width="16.5972" height="16.7695" transform="rotate(-169 393.775 356.176)" fill="#5A5555"/>
<rect x="389.145" y="344.162" width="16.5972" height="16.7695" transform="rotate(-169 389.145 344.162)" fill="#5A5555"/>
<rect x="361.243" y="404.43" width="9.31189" height="10.147" transform="rotate(-169 361.243 404.43)" fill="#418403"/>
<rect x="372.511" y="386.082" width="9.31189" height="10.147" transform="rotate(-169 372.511 386.082)" fill="#418403"/>
<rect x="353.215" y="370.133" width="9.31189" height="10.147" transform="rotate(-169 353.215 370.133)" fill="#418403"/>
<rect x="423.222" y="358.686" width="9.31189" height="10.147" transform="rotate(-169 423.222 358.686)" fill="#418403"/>
<rect x="423.222" y="358.686" width="9.31189" height="10.147" transform="rotate(-169 423.222 358.686)" fill="#418403"/>
<rect x="423.222" y="358.686" width="9.31189" height="10.147" transform="rotate(-169 423.222 358.686)" fill="#418403"/>
<rect x="423.222" y="358.686" width="9.31189" height="10.147" transform="rotate(-169 423.222 358.686)" fill="#418403"/>
<rect x="459.285" y="350.426" width="5.81973" height="10.147" transform="rotate(-169 459.285 350.426)" fill="#418403"/>
<rect x="450.72" y="336.232" width="5.81973" height="10.147" transform="rotate(-169 450.72 336.232)" fill="#418403"/>
<rect x="423.222" y="358.686" width="9.31189" height="10.147" transform="rotate(-169 423.222 358.686)" fill="#418403"/>
<rect x="423.222" y="358.686" width="9.31189" height="10.147" transform="rotate(-169 423.222 358.686)" fill="#418403"/>
<rect x="444.857" y="374.309" width="9.31189" height="10.147" transform="rotate(-169 444.857 374.309)" fill="#418403"/>
<rect x="340.24" y="459.224" width="31.7102" height="31.6526" transform="rotate(-169 340.24 459.224)" fill="#C9FF1B"/>
<rect x="340.24" y="459.224" width="31.7102" height="31.6526" transform="rotate(-169 340.24 459.224)" fill="#C9FF1B"/>
<rect x="319.375" y="471.291" width="31.7102" height="31.6526" transform="rotate(-169 319.375 471.291)" fill="#C9FF1B"/>
<rect x="300.377" y="474.148" width="31.7102" height="31.6526" transform="rotate(-169 300.377 474.148)" fill="#C9FF1B"/>
<rect x="281.233" y="479.999" width="31.7102" height="31.6526" transform="rotate(-169 281.233 479.999)" fill="#C9FF1B"/>
<rect x="268.207" y="489.026" width="31.7102" height="31.6526" transform="rotate(-169 268.207 489.026)" fill="#C9FF1B"/>
<rect x="243.795" y="495.394" width="31.7102" height="31.6526" transform="rotate(-169 243.795 495.394)" fill="#C9FF1B"/>
<rect x="216.968" y="499.753" width="31.7102" height="31.6526" transform="rotate(-169 216.968 499.753)" fill="#C9FF1B"/>
<rect x="197.276" y="502.475" width="31.7102" height="31.6526" transform="rotate(-169 197.276 502.475)" fill="#C9FF1B"/>
<rect x="303.248" y="458.583" width="31.7102" height="31.6526" transform="rotate(-169 303.248 458.583)" fill="#C9FF1B"/>
<rect x="282.932" y="464.207" width="31.7102" height="31.6526" transform="rotate(-169 282.932 464.207)" fill="#C9FF1B"/>
<rect x="253.415" y="470.028" width="31.7102" height="31.6526" transform="rotate(-169 253.415 470.028)" fill="#C9FF1B"/>
<rect x="312.637" y="446.479" width="31.7102" height="31.6526" transform="rotate(-169 312.637 446.479)" fill="#C9FF1B"/>
<rect x="227.519" y="473.856" width="31.7102" height="31.6526" transform="rotate(-169 227.519 473.856)" fill="#C9FF1B"/>
<rect x="198.476" y="473.219" width="31.7102" height="31.6526" transform="rotate(-169 198.476 473.219)" fill="#C9FF1B"/>
<rect x="234.799" y="454.851" width="31.7102" height="31.6526" transform="rotate(-169 234.799 454.851)" fill="#C9FF1B"/>
<rect x="209.345" y="456.453" width="31.7102" height="31.6526" transform="rotate(-169 209.345 456.453)" fill="#C9FF1B"/>
<rect x="268.505" y="445.28" width="31.7102" height="31.6526" transform="rotate(-169 268.505 445.28)" fill="#C9FF1B"/>
<rect x="284.372" y="443.8" width="31.7102" height="31.6526" transform="rotate(-169 284.372 443.8)" fill="#C9FF1B"/>
<rect x="269.534" y="489.284" width="17.2092" height="16.7695" transform="rotate(-169 269.534 489.284)" fill="#5A5555"/>
<rect x="259.946" y="487.439" width="8.60459" height="11.3648" transform="rotate(-169 259.946 487.439)" fill="white"/>
<rect x="253.569" y="481.172" width="8.60459" height="11.3648" transform="rotate(-169 253.569 481.172)" fill="white"/>
<rect x="246.525" y="478.014" width="8.60459" height="11.3648" transform="rotate(-169 246.525 478.014)" fill="white"/>
<rect x="245.961" y="469.362" width="8.60459" height="11.3648" transform="rotate(-169 245.961 469.362)" fill="white"/>
<rect x="239.596" y="464.077" width="8.60459" height="11.3648" transform="rotate(-169 239.596 464.077)" fill="white"/>
<rect x="238.322" y="454.508" width="8.60459" height="11.3648" transform="rotate(-169 238.322 454.508)" fill="white"/>
<rect x="232.514" y="451.584" width="8.60459" height="11.3648" transform="rotate(-169 232.514 451.584)" fill="white"/>
<rect x="229.89" y="442.532" width="8.60459" height="11.3648" transform="rotate(-169 229.89 442.532)" fill="white"/>
<rect x="227.994" y="447.952" width="8.60459" height="11.3648" transform="rotate(-169 227.994 447.952)" fill="white"/>
<rect x="224.646" y="436.188" width="8.60459" height="11.3648" transform="rotate(-169 224.646 436.188)" fill="white"/>
<rect x="224.715" y="432.204" width="8.60459" height="11.3648" transform="rotate(-169 224.715 432.204)" fill="white"/>
<rect x="260.166" y="477.629" width="17.2092" height="16.7695" transform="rotate(-169 260.166 477.629)" fill="#5A5555"/>
<rect x="252.14" y="463.48" width="17.2092" height="16.7695" transform="rotate(-169 252.14 463.48)" fill="#5A5555"/>
<rect x="242.762" y="447.787" width="17.2092" height="16.7695" transform="rotate(-169 242.762 447.787)" fill="#5A5555"/>
<rect x="237.885" y="435.725" width="17.2092" height="16.7695" transform="rotate(-169 237.885 435.725)" fill="#5A5555"/>
<rect x="209.408" y="495.882" width="9.65522" height="10.147" transform="rotate(-169 209.408 495.882)" fill="#418403"/>
<rect x="220.95" y="477.587" width="9.65522" height="10.147" transform="rotate(-169 220.95 477.587)" fill="#418403"/>
<rect x="200.857" y="461.483" width="9.65522" height="10.147" transform="rotate(-169 200.857 461.483)" fill="#418403"/>
<rect x="273.273" y="450.504" width="9.65522" height="10.147" transform="rotate(-169 273.273 450.504)" fill="#418403"/>
<rect x="273.273" y="450.504" width="9.65522" height="10.147" transform="rotate(-169 273.273 450.504)" fill="#418403"/>
<rect x="273.273" y="450.504" width="9.65522" height="10.147" transform="rotate(-169 273.273 450.504)" fill="#418403"/>
<rect x="273.273" y="450.504" width="9.65522" height="10.147" transform="rotate(-169 273.273 450.504)" fill="#418403"/>
<rect x="310.56" y="442.482" width="6.03431" height="10.147" transform="rotate(-169 310.56 442.482)" fill="#418403"/>
<rect x="301.593" y="428.21" width="6.03431" height="10.147" transform="rotate(-169 301.593 428.21)" fill="#418403"/>
<rect x="273.273" y="450.504" width="9.65522" height="10.147" transform="rotate(-169 273.273 450.504)" fill="#418403"/>
<rect x="273.273" y="450.504" width="9.65522" height="10.147" transform="rotate(-169 273.273 450.504)" fill="#418403"/>
<rect x="295.785" y="466.298" width="9.65522" height="10.147" transform="rotate(-169 295.785 466.298)" fill="#418403"/>
<rect x="42.5075" y="117.137" width="30.5032" height="35.6357" fill="#C9FF1B"/>
<rect x="57.7591" y="92.1812" width="30.5032" height="35.6357" fill="#C9FF1B"/>
<rect x="73.0107" y="70.5088" width="30.5032" height="35.6357" fill="#C9FF1B"/>
<rect x="93.4427" y="46.2096" width="30.5032" height="35.6357" fill="#C9FF1B"/>
<rect x="115.042" y="34.8732" width="30.5032" height="35.6357" fill="#C9FF1B"/>
<rect x="137.225" y="21.7384" width="30.5032" height="35.6357" fill="#C9FF1B"/>
<rect x="132.402" y="384.331" width="34.3159" height="31.6764" transform="rotate(-90 132.402 384.331)" fill="#C9FF1B"/>
<rect x="110.219" y="367.173" width="34.3159" height="31.6764" transform="rotate(-90 110.219 367.173)" fill="#C9FF1B"/>
<rect x="90.9547" y="350.015" width="34.3159" height="31.6764" transform="rotate(-90 90.9547 350.015)" fill="#C9FF1B"/>
<rect x="69.3553" y="327.029" width="34.3159" height="31.6764" transform="rotate(-90 69.3553 327.029)" fill="#C9FF1B"/>
<rect x="59.2784" y="302.73" width="34.3159" height="31.6764" transform="rotate(-90 59.2784 302.73)" fill="#C9FF1B"/>
<rect x="47.603" y="277.774" width="34.3159" height="31.6764" transform="rotate(-90 47.603 277.774)" fill="#C9FF1B"/>
<rect x="319.005" y="21.7447" width="34.3159" height="31.6764" transform="rotate(90 319.005 21.7447)" fill="#C9FF1B"/>
<rect x="68.0718" y="175.854" width="22.9855" height="18.074" transform="rotate(90 68.0718 175.854)" fill="#89B400"/>
<rect x="341.188" y="38.9027" width="34.3159" height="31.6764" transform="rotate(90 341.188 38.9027)" fill="#C9FF1B"/>
<rect x="360.452" y="56.0607" width="34.3159" height="31.6764" transform="rotate(90 360.452 56.0607)" fill="#C9FF1B"/>
<rect x="382.052" y="79.0464" width="34.3159" height="31.6764" transform="rotate(90 382.052 79.0464)" fill="#C9FF1B"/>
<rect x="392.129" y="103.346" width="34.3159" height="31.6764" transform="rotate(90 392.129 103.346)" fill="#C9FF1B"/>
<rect x="403.804" y="128.302" width="34.3159" height="31.6764" transform="rotate(90 403.804 128.302)" fill="#C9FF1B"/>
<rect x="164.079" y="17.0552" width="30.5032" height="35.6357" fill="#C9FF1B"/>
<rect x="179.33" y="10.5739" width="30.5032" height="35.6357" fill="#C9FF1B"/>
<rect x="37.1744" y="152.773" width="30.5032" height="35.6357" fill="#C9FF1B"/>
<rect x="42.5075" y="183.639" width="30.5032" height="35.6357" fill="#C9FF1B"/>
<rect x="28.7751" y="183.639" width="30.5032" height="35.6357" fill="#C9FF1B"/>
<rect x="37.1744" y="215.375" width="30.5032" height="35.6357" fill="#C9FF1B"/>
<rect x="378.41" y="152.773" width="30.5032" height="35.6357" fill="#C9FF1B"/>
<rect x="383.743" y="183.639" width="30.5032" height="35.6357" fill="#C9FF1B"/>
<rect x="370.011" y="183.639" width="30.5032" height="35.6357" fill="#C9FF1B"/>
<rect x="378.41" y="216.148" width="30.5032" height="35.6357" fill="#C9FF1B"/>
<rect x="403.868" y="274.897" width="30.5032" height="35.6357" transform="rotate(180 403.868 274.897)" fill="#C9FF1B"/>
<rect x="388.616" y="299.853" width="30.5032" height="35.6357" transform="rotate(180 388.616 299.853)" fill="#C9FF1B"/>
<rect x="373.365" y="321.525" width="30.5032" height="35.6357" transform="rotate(180 373.365 321.525)" fill="#C9FF1B"/>
<rect x="352.933" y="345.824" width="30.5032" height="35.6357" transform="rotate(180 352.933 345.824)" fill="#C9FF1B"/>
<rect x="331.333" y="357.161" width="30.5032" height="35.6357" transform="rotate(180 331.333 357.161)" fill="#C9FF1B"/>
<rect x="309.15" y="370.295" width="30.5032" height="35.6357" transform="rotate(180 309.15 370.295)" fill="#C9FF1B"/>
<rect x="253.684" y="382.027" width="34.3159" height="31.6764" transform="rotate(-90 253.684 382.027)" fill="#C9FF1B"/>
<rect x="201.185" y="3.92688" width="30.5032" height="35.6357" fill="#C9FF1B"/>
<rect x="230.045" y="10.5739" width="30.5032" height="35.6357" fill="#C9FF1B"/>
<rect x="258.068" y="388.113" width="30.5032" height="35.6357" transform="rotate(180 258.068 388.113)" fill="#C9FF1B"/>
<rect x="242.817" y="394.595" width="30.5032" height="35.6357" transform="rotate(180 242.817 394.595)" fill="#C9FF1B"/>
<rect x="220.962" y="401.242" width="30.5032" height="35.6357" transform="rotate(180 220.962 401.242)" fill="#C9FF1B"/>
<rect x="192.102" y="394.595" width="30.5032" height="35.6357" transform="rotate(180 192.102 394.595)" fill="#C9FF1B"/>
<rect x="260.548" y="17.0552" width="30.5032" height="35.6357" fill="#C9FF1B"/>
<path d="M364.856 196.017C364.856 272.296 301.055 334.16 222.318 334.16C143.581 334.16 79.7794 272.296 79.7794 196.017C79.7794 119.737 143.581 57.8741 222.318 57.8741C301.055 57.8741 364.856 119.737 364.856 196.017Z" fill="url(#paint0_linear_18_1276)" stroke="black"/>
<rect x="91.9777" y="263.697" width="23.0725" height="28.1537" fill="#111110"/>
<rect x="79.2794" y="237.707" width="23.0725" height="28.1537" fill="#111110"/>
<rect x="65.1022" y="209.553" width="23.0725" height="28.1537" fill="#111110"/>
<rect x="67.6776" y="152.773" width="23.0725" height="28.1537" fill="#111110"/>
<rect x="73.0107" y="180.927" width="23.0725" height="28.1537" fill="#111110"/>
<rect x="75.1165" y="128.302" width="23.0725" height="28.1537" fill="#111110"/>
<rect x="75.1165" y="128.302" width="23.0725" height="28.1537" fill="#111110"/>
<rect x="89.4954" y="106.145" width="23.0725" height="28.1537" fill="#111110"/>
<rect x="87.1466" y="103.232" width="23.0725" height="28.1537" fill="#111110"/>
<rect x="103.514" y="81.8453" width="23.0725" height="28.1537" fill="#111110"/>
<rect x="123.946" y="67.7685" width="23.0725" height="28.1537" fill="#111110"/>
<rect x="144.656" y="53.6917" width="23.0725" height="28.1537" fill="#111110"/>
<rect x="167.386" y="50.8928" width="23.0725" height="28.1537" fill="#111110"/>
<rect x="189.649" y="45.0649" width="23.0725" height="28.1537" fill="#111110"/>
<rect x="206.973" y="36.8159" width="23.0725" height="28.1537" fill="#111110"/>
<rect x="230.611" y="46.2096" width="23.0725" height="28.1537" fill="#111110"/>
<rect x="237.476" y="46.2096" width="23.0725" height="28.1537" fill="#111110"/>
<rect x="260.548" y="52.691" width="23.0725" height="28.1537" fill="#111110"/>
<rect x="264.264" y="52.691" width="23.0725" height="28.1537" fill="#111110"/>
<rect x="287.328" y="56.0607" width="23.0725" height="28.1537" fill="#111110"/>
<rect x="305.703" y="73.2186" width="23.0725" height="28.1537" fill="#111110"/>
<rect x="326.145" y="89.2689" width="23.0725" height="28.1537" fill="#111110"/>
<rect x="337.681" y="109.999" width="23.0725" height="28.1537" fill="#111110"/>
<rect x="348.916" y="134.955" width="23.0725" height="28.1537" fill="#111110"/>
<rect x="358.113" y="157.775" width="23.0725" height="28.1537" fill="#111110"/>
<rect x="349.217" y="182.731" width="23.0725" height="28.1537" fill="#111110"/>
<rect x="348.916" y="196.017" width="23.0725" height="28.1537" fill="#111110"/>
<rect x="358.113" y="216.148" width="23.0725" height="28.1537" fill="#111110"/>
<rect x="350.375" y="236.063" width="23.0725" height="28.1537" fill="#111110"/>
<rect x="337.38" y="260.616" width="23.0725" height="28.1537" fill="#111110"/>
<rect x="321.542" y="282.035" width="23.0725" height="28.1537" fill="#111110"/>
<rect x="300.83" y="295.794" width="23.0725" height="28.1537" fill="#111110"/>
<rect x="277.757" y="307.448" width="23.0725" height="28.1537" fill="#111110"/>
<rect x="249.012" y="319.558" width="23.0725" height="28.1537" fill="#111110"/>
<rect x="254.685" y="319.558" width="23.0725" height="28.1537" fill="#111110"/>
<rect x="266.221" y="304.703" width="23.0725" height="28.1537" fill="#111110"/>
<rect x="231.718" y="323.948" width="23.0725" height="28.1537" fill="#111110"/>
<rect x="210.994" y="324.324" width="23.0725" height="28.1537" fill="#111110"/>
<rect x="192.102" y="337.452" width="23.0725" height="28.1537" fill="#111110"/>
<rect x="203.603" y="330.805" width="23.0725" height="28.1537" fill="#111110"/>
<rect x="182.638" y="323.375" width="23.0725" height="28.1537" fill="#111110"/>
<rect x="167.386" y="329.007" width="23.0725" height="28.1537" fill="#111110"/>
<rect x="141.896" y="320.583" width="23.0725" height="28.1537" fill="#111110"/>
<rect x="143.105" y="321.861" width="23.0725" height="28.1537" fill="#111110"/>
<rect x="159.565" y="315.699" width="23.0725" height="28.1537" fill="#111110"/>
<rect x="193.766" y="329.776" width="23.0725" height="28.1537" fill="#111110"/>
<rect x="162.922" y="331.747" width="23.0725" height="28.1537" fill="#111110"/>
<rect x="172.749" y="331.747" width="23.0725" height="28.1537" fill="#111110"/>
<rect x="123.946" y="303.707" width="23.0725" height="28.1537" fill="#111110"/>
<rect x="135.482" y="300.853" width="23.0725" height="28.1537" fill="#111110"/>
<rect x="101.682" y="285.572" width="23.0725" height="28.1537" fill="#111110"/>
<rect x="118.823" y="285.889" width="23.0725" height="28.1537" fill="#111110"/>
<rect width="30.9125" height="35.2823" transform="matrix(0.876698 0.48104 -0.397769 0.917485 240.617 374.667)" fill="#5A5555"/>
<rect width="30.9125" height="35.2823" transform="matrix(0.876698 0.48104 -0.397769 0.917485 218.651 383.424)" fill="#5A5555"/>
<rect width="30.9125" height="35.2823" transform="matrix(0.876698 0.48104 -0.397769 0.917485 194.652 389.537)" fill="#5A5555"/>
<rect width="30.9125" height="35.2823" transform="matrix(0.876698 0.48104 -0.397769 0.917485 288.981 357.161)" fill="#5A5555"/>
<rect width="30.9125" height="35.2823" transform="matrix(0.876698 0.48104 -0.397769 0.917485 313.646 341.985)" fill="#5A5555"/>
<rect width="30.9125" height="35.2823" transform="matrix(0.876698 0.48104 -0.397769 0.917485 337.309 324.79)" fill="#5A5555"/>
<rect width="30.9125" height="35.2823" transform="matrix(0.876698 0.48104 -0.397769 0.917485 359.68 306.991)" fill="#5A5555"/>
<rect width="30.9125" height="35.2823" transform="matrix(0.876698 0.48104 -0.397769 0.917485 377.21 288.697)" fill="#5A5555"/>
<rect width="30.9125" height="35.2823" transform="matrix(0.876698 0.48104 -0.397769 0.917485 263.046 364.87)" fill="#5A5555"/>
<rect width="30.493" height="35.6915" transform="matrix(0.94563 -0.325244 0.262251 0.965 352.933 117.343)" fill="#5A5555"/>
<rect width="30.493" height="35.6915" transform="matrix(0.94563 -0.325244 0.262251 0.965 362.293 102.473)" fill="#5A5555"/>
<rect width="15.8116" height="16.4247" transform="matrix(0.94563 -0.325244 0.262251 0.965 364.602 89.1224)" fill="#5A5555"/>
<rect width="24.2087" height="24.9421" transform="matrix(-0.94563 0.325244 -0.262251 -0.965 408.103 167.98)" fill="#5A5555"/>
<rect width="15.8116" height="16.4247" transform="matrix(-0.94563 0.325244 -0.262251 -0.965 408.103 179.474)" fill="#5A5555"/>
<rect width="30.493" height="35.6915" transform="matrix(0.94563 -0.325244 0.262251 0.965 367.399 124.64)" fill="#5A5555"/>
<rect width="30.493" height="35.6915" transform="matrix(0.94563 -0.325244 0.262251 0.965 376.76 109.24)" fill="#5A5555"/>
<rect x="399.94" y="103.774" width="5.65439" height="7.30224" fill="#201E1E"/>
<rect width="5.72564" height="7.2287" transform="matrix(0.93922 -0.343315 0.277478 0.960732 385.75 94.9346)" fill="white"/>
<rect width="5.72564" height="7.2287" transform="matrix(0.93922 -0.343315 0.277478 0.960732 381.46 90.5493)" fill="white"/>
<rect width="3.16822" height="3.80762" transform="matrix(0.93922 -0.343315 0.277478 0.960732 380.403 87.9789)" fill="white"/>
<rect width="3.16822" height="3.80762" transform="matrix(0.93922 -0.343315 0.277478 0.960732 403.839 157.964)" fill="white"/>
<rect width="5.72564" height="7.2287" transform="matrix(0.93922 -0.343315 0.277478 0.960732 389.442 100.48)" fill="white"/>
<rect width="5.72564" height="7.2287" transform="matrix(0.93922 -0.343315 0.277478 0.960732 400.488 138.703)" fill="white"/>
<rect width="5.72564" height="7.2287" transform="matrix(0.93922 -0.343315 0.277478 0.960732 399.94 144.843)" fill="white"/>
<rect width="5.72564" height="7.2287" transform="matrix(0.93922 -0.343315 0.277478 0.960732 400.488 152.137)" fill="white"/>
<rect x="356.638" y="117.563" width="5.65439" height="7.30224" fill="#201E1E"/>
<rect x="362.293" y="140.031" width="5.65439" height="7.30224" fill="#201E1E"/>
<rect x="405.275" y="125.954" width="5.65439" height="7.30224" fill="#201E1E"/>
<rect x="371.105" y="87.1737" width="5.65439" height="7.30224" fill="#201E1E"/>
<rect x="394.834" y="172.203" width="5.65439" height="7.30224" fill="#201E1E"/>
<rect width="31.6068" height="34.5819" transform="matrix(-0.902016 0.34941 0.301397 0.984728 68.3647 216.204)" fill="#5A5555"/>
<rect width="31.6068" height="34.5819" transform="matrix(-0.902016 0.34941 0.301397 0.984728 53.023 210.363)" fill="#5A5555"/>
<rect width="16.3891" height="15.9141" transform="matrix(-0.902016 0.34941 0.301397 0.984728 44.1792 201.09)" fill="#5A5555"/>
<rect width="25.093" height="24.1667" transform="matrix(0.902016 -0.34941 -0.301397 -0.984728 50.1884 293.652)" fill="#5A5555"/>
<rect width="16.3891" height="15.9141" transform="matrix(0.902016 -0.34941 -0.301397 -0.984728 56.1936 302.95)" fill="#5A5555"/>
<rect width="31.6068" height="34.5819" transform="matrix(-0.902016 0.34941 0.301397 0.984728 60.4734 231.673)" fill="#5A5555"/>
<rect width="31.6068" height="34.5819" transform="matrix(-0.902016 0.34941 0.301397 0.984728 44.8546 225.404)" fill="#5A5555"/>
<rect width="5.90813" height="7.03253" transform="matrix(-0.774271 0.632854 0.542517 0.840044 23.2454 236.31)" fill="#201E1E"/>
<rect width="5.9293" height="7.00901" transform="matrix(-0.90696 0.331523 0.286175 0.990845 30.107 219.776)" fill="white"/>
<rect width="5.9293" height="7.00901" transform="matrix(-0.90696 0.331523 0.286175 0.990845 31.2868 213.391)" fill="white"/>
<rect width="3.28091" height="3.6919" transform="matrix(-0.90696 0.331523 0.286175 0.990845 30.7985 210.613)" fill="white"/>
<rect width="3.28091" height="3.6919" transform="matrix(-0.90696 0.331523 0.286175 0.990845 48.4044 282.729)" fill="white"/>
<rect width="5.9293" height="7.00901" transform="matrix(-0.90696 0.331523 0.286175 0.990845 30.0178 226.703)" fill="white"/>
<rect width="5.9293" height="7.00901" transform="matrix(-0.90696 0.331523 0.286175 0.990845 41.0519 264.93)" fill="white"/>
<rect width="5.9293" height="7.00901" transform="matrix(-0.90696 0.331523 0.286175 0.990845 44.7034 269.536)" fill="white"/>
<rect width="5.9293" height="7.00901" transform="matrix(-0.90696 0.331523 0.286175 0.990845 48.0711 275.799)" fill="white"/>
<rect width="5.90813" height="7.03253" transform="matrix(-0.774271 0.632854 0.542517 0.840044 65.4818 218.832)" fill="#201E1E"/>
<rect width="5.90813" height="7.03253" transform="matrix(-0.774271 0.632854 0.542517 0.840044 72.6462 240.748)" fill="#201E1E"/>
<rect width="5.90813" height="7.03253" transform="matrix(-0.774271 0.632854 0.542517 0.840044 30.5177 257.782)" fill="#201E1E"/>
<rect width="5.90813" height="7.03253" transform="matrix(-0.774271 0.632854 0.542517 0.840044 37.9002 203.813)" fill="#201E1E"/>
<rect width="5.90813" height="7.03253" transform="matrix(-0.774271 0.632854 0.542517 0.840044 63.1295 288.294)" fill="#201E1E"/>
<rect x="74.9542" y="181.755" width="19.3344" height="17.1951" transform="rotate(90 74.9542 181.755)" fill="#418403"/>
<rect x="73.0107" y="168.012" width="19.3344" height="17.1951" transform="rotate(90 73.0107 168.012)" fill="#418403"/>
<rect x="73.6997" y="151.057" width="19.3344" height="17.1951" transform="rotate(90 73.6997 151.057)" fill="#418403"/>
<rect x="76.2751" y="134.298" width="19.3344" height="17.1951" transform="rotate(90 76.2751 134.298)" fill="#418403"/>
<rect x="87.8114" y="118.15" width="19.3344" height="17.1951" transform="rotate(90 87.8114 118.15)" fill="#418403"/>
<rect x="95.7441" y="100.332" width="19.3344" height="17.1951" transform="rotate(90 95.7441 100.332)" fill="#418403"/>
<rect x="105.457" y="91.705" width="19.3344" height="17.1951" transform="rotate(90 105.457 91.705)" fill="#418403"/>
<rect x="113.218" y="77.6282" width="19.3344" height="17.1951" transform="rotate(90 113.218 77.6282)" fill="#418403"/>
<rect x="119.464" y="76.597" width="10.6985" height="10.7696" transform="rotate(90 119.464 76.597)" fill="#418403"/>
<rect x="124.849" y="71.2478" width="10.6985" height="10.7696" transform="rotate(90 124.849 71.2478)" fill="#418403"/>
<rect x="129.014" y="65.5419" width="9.19115" height="5.91395" transform="rotate(90 129.014 65.5419)" fill="#418403"/>
<rect x="76.5163" y="196.04" width="19.3344" height="17.1951" transform="rotate(90 76.5163 196.04)" fill="#418403"/>
<rect x="76.5163" y="196.04" width="19.3344" height="17.1951" transform="rotate(90 76.5163 196.04)" fill="#418403"/>
<rect width="19.2465" height="17.2935" transform="matrix(0.185656 0.982615 -0.97258 0.232568 93.0945 277.892)" fill="#418403"/>
<rect width="19.2465" height="17.2935" transform="matrix(0.185656 0.982615 -0.97258 0.232568 99.3158 289.703)" fill="#418403"/>
<rect width="19.2465" height="17.2935" transform="matrix(0.185656 0.982615 -0.97258 0.232568 105.695 298.061)" fill="#418403"/>
<rect width="19.2465" height="17.2935" transform="matrix(0.185656 0.982615 -0.97258 0.232568 115.697 304.479)" fill="#418403"/>
<rect width="19.2465" height="17.2935" transform="matrix(0.185656 0.982615 -0.97258 0.232568 127.009 312.73)" fill="#418403"/>
<rect width="19.2465" height="17.2935" transform="matrix(0.185656 0.982615 -0.97258 0.232568 136.09 319.369)" fill="#418403"/>
<rect width="15.7658" height="12.55" transform="matrix(0.185656 0.982615 -0.97258 0.232568 142.788 328.724)" fill="#418403"/>
<rect width="15.7658" height="12.55" transform="matrix(0.185656 0.982615 -0.97258 0.232568 151.358 332.659)" fill="#418403"/>
<rect width="15.7658" height="12.55" transform="matrix(0.185656 0.982615 -0.97258 0.232568 159.74 337.138)" fill="#418403"/>
<rect width="10.9583" height="9.33253" transform="matrix(0.185656 0.982615 -0.97258 0.232568 164.779 347.353)" fill="#418403"/>
<rect width="10.9583" height="9.33253" transform="matrix(0.185656 0.982615 -0.97258 0.232568 171.744 350.459)" fill="#418403"/>
<rect width="9.06438" height="7.41848" transform="matrix(0.185656 0.982615 -0.97258 0.232568 177.558 355.552)" fill="#418403"/>
<rect width="9.06438" height="7.41848" transform="matrix(0.185656 0.982615 -0.97258 0.232568 181.676 357.393)" fill="#418403"/>
<rect width="6.96015" height="5.599" transform="matrix(0.185656 0.982615 -0.97258 0.232568 185.696 361.086)" fill="#418403"/>
<rect width="19.1182" height="17.4354" transform="matrix(-0.292669 -0.956214 0.932484 -0.361212 346.917 110.611)" fill="#418403"/>
<rect width="19.1182" height="17.4354" transform="matrix(-0.292669 -0.956214 0.932484 -0.361212 339.463 99.741)" fill="#418403"/>
<rect width="19.1182" height="17.4354" transform="matrix(-0.292669 -0.956214 0.932484 -0.361212 332.226 92.3201)" fill="#418403"/>
<rect width="19.1182" height="17.4354" transform="matrix(-0.292669 -0.956214 0.932484 -0.361212 321.603 87.3206)" fill="#418403"/>
<rect width="19.1182" height="17.4354" transform="matrix(-0.292669 -0.956214 0.932484 -0.361212 309.482 80.6819)" fill="#418403"/>
<rect width="19.1182" height="17.4354" transform="matrix(-0.292669 -0.956214 0.932484 -0.361212 299.749 75.3374)" fill="#418403"/>
<rect width="15.6606" height="12.653" transform="matrix(-0.292669 -0.956214 0.932484 -0.361212 292.088 66.9713)" fill="#418403"/>
<rect width="15.6606" height="12.653" transform="matrix(-0.292669 -0.956214 0.932484 -0.361212 283.155 64.2404)" fill="#418403"/>
<rect width="15.6606" height="12.653" transform="matrix(-0.292669 -0.956214 0.932484 -0.361212 274.35 60.9443)" fill="#418403"/>
<rect width="10.8852" height="9.40913" transform="matrix(-0.292669 -0.956214 0.932484 -0.361212 268.243 51.4954)" fill="#418403"/>
<rect width="10.8852" height="9.40913" transform="matrix(-0.292669 -0.956214 0.932484 -0.361212 260.993 49.368)" fill="#418403"/>
<rect width="9.00393" height="7.47937" transform="matrix(-0.292669 -0.956214 0.932484 -0.361212 254.671 45.1102)" fill="#418403"/>
<rect width="9.00393" height="7.47937" transform="matrix(-0.292669 -0.956214 0.932484 -0.361212 250.384 43.8474)" fill="#418403"/>
<rect width="6.91374" height="5.64495" transform="matrix(-0.292669 -0.956214 0.932484 -0.361212 245.993 40.7327)" fill="#418403"/>
<rect x="234.067" y="398.282" width="12.9296" height="8.75041" fill="#6F6767"/>
<rect x="253.371" y="389.532" width="11.5363" height="8.75041" fill="#6F6767"/>
<rect x="261.883" y="385.156" width="11.5363" height="8.75041" fill="#6F6767"/>
<rect x="271.119" y="380.781" width="11.5363" height="8.75041" fill="#6F6767"/>
<rect x="244.801" y="393.907" width="11.5363" height="8.75041" fill="#6F6767"/>
<rect x="282.655" y="377.792" width="12.9296" height="8.75041" fill="#4B4848"/>
<rect x="301.96" y="369.042" width="11.5363" height="8.75041" fill="#4B4848"/>
<rect x="310.471" y="364.667" width="11.5363" height="8.75041" fill="#4B4848"/>
<rect x="319.707" y="360.291" width="11.5363" height="8.75041" fill="#4B4848"/>
<rect x="293.389" y="373.417" width="11.5363" height="8.75041" fill="#4B4848"/>
<rect width="12.992" height="8.71691" transform="matrix(0.976915 -0.213628 0.170261 0.985399 329.23 353.117)" fill="#3F3C3C"/>
<rect width="11.5919" height="8.71691" transform="matrix(0.976915 -0.213628 0.170261 0.985399 346.696 340.384)" fill="#3F3C3C"/>
<rect width="11.5919" height="8.71691" transform="matrix(0.976915 -0.213628 0.170261 0.985399 354.31 334.262)" fill="#3F3C3C"/>
<rect width="11.5919" height="8.71691" transform="matrix(0.976915 -0.213628 0.170261 0.985399 362.633 327.984)" fill="#3F3C3C"/>
<rect width="11.5919" height="8.71691" transform="matrix(0.976915 -0.213628 0.170261 0.985399 339.026 346.518)" fill="#3F3C3C"/>
<rect width="13.1483" height="8.63168" transform="matrix(0.918054 -0.396456 0.322933 0.946422 361.815 331.663)" fill="#393737"/>
<rect width="11.7314" height="8.63168" transform="matrix(0.918054 -0.396456 0.322933 0.946422 377.05 315.711)" fill="#393737"/>
<rect width="11.7314" height="8.63168" transform="matrix(0.918054 -0.396456 0.322933 0.946422 383.603 308.195)" fill="#393737"/>
<rect width="11.7314" height="8.63168" transform="matrix(0.918054 -0.396456 0.322933 0.946422 390.831 300.387)" fill="#393737"/>
<rect width="11.7314" height="8.63168" transform="matrix(0.918054 -0.396456 0.322933 0.946422 370.443 323.251)" fill="#393737"/>
<rect x="185.478" y="416.486" width="12.9296" height="8.75041" fill="#9C9999"/>
<rect x="204.783" y="407.735" width="11.5363" height="8.75041" fill="#9C9999"/>
<rect x="213.295" y="403.36" width="11.5363" height="8.75041" fill="#9C9999"/>
<rect x="222.53" y="398.985" width="11.5363" height="8.75041" fill="#9C9999"/>
<rect x="196.213" y="412.111" width="11.5363" height="8.75041" fill="#9C9999"/>
<rect width="11.3164" height="16.9074" transform="matrix(0.785549 0.618799 -0.528417 0.848985 121.642 123.972)" fill="white"/>
<rect width="11.3164" height="16.9074" transform="matrix(0.785549 0.618799 -0.528417 0.848985 127.445 120.952)" fill="white"/>
<g filter="url(#filter0_d_18_1276)">
<rect width="11.3164" height="16.9074" transform="matrix(0.785549 0.618799 -0.528417 0.848985 120.102 133.455)" fill="white"/>
</g>
<rect width="11.3164" height="16.9074" transform="matrix(0.785549 0.618799 -0.528417 0.848985 122.956 138.808)" fill="white"/>
<rect width="11.3164" height="16.9074" transform="matrix(0.785549 0.618799 -0.528417 0.848985 130.531 130.975)" fill="white"/>
<rect width="11.3164" height="16.9074" transform="matrix(0.785549 0.618799 -0.528417 0.848985 134.452 131.685)" fill="white"/>
<rect width="11.3164" height="16.9074" transform="matrix(0.785549 0.618799 -0.528417 0.848985 125.985 141.194)" fill="white"/>
<rect width="11.3164" height="16.9074" transform="matrix(0.785549 0.618799 -0.528417 0.848985 118.489 145.985)" fill="white"/>
<rect width="11.3164" height="16.9074" transform="matrix(0.785549 0.618799 -0.528417 0.848985 119.039 154.009)" fill="white"/>
<rect width="11.3164" height="16.9074" transform="matrix(0.785549 0.618799 -0.528417 0.848985 117.617 163.585)" fill="white"/>
<rect width="11.3164" height="16.9074" transform="matrix(0.785549 0.618799 -0.528417 0.848985 117.077 173.856)" fill="white"/>
<rect width="11.3164" height="16.9074" transform="matrix(0.785549 0.618799 -0.528417 0.848985 118.331 178.871)" fill="white"/>
<rect width="11.3164" height="16.9074" transform="matrix(0.785549 0.618799 -0.528417 0.848985 116.69 188.275)" fill="white"/>
<rect width="11.3164" height="16.9074" transform="matrix(0.785549 0.618799 -0.528417 0.848985 134.976 117.915)" fill="white"/>
<rect width="7.59009" height="10.0307" transform="matrix(0.785549 0.618799 -0.528417 0.848985 140.284 112.892)" fill="white"/>
<rect width="11.7101" height="16.3457" transform="matrix(-0.785919 0.55248 -0.504971 -0.909132 127.704 216.004)" fill="white"/>
<rect width="11.7101" height="16.3457" transform="matrix(-0.785919 0.55248 -0.504971 -0.909132 130.404 224.476)" fill="white"/>
<rect width="7.85415" height="9.6975" transform="matrix(-0.785919 0.55248 -0.504971 -0.909132 135.294 228.888)" fill="white"/>
<rect width="3.92707" height="4.84874" transform="matrix(-0.785919 0.55248 -0.504971 -0.909132 138.204 232.241)" fill="white"/>
<rect width="7.53968" height="10.6789" transform="matrix(-0.987731 0.156168 0.123962 0.992287 343.08 223.376)" fill="white"/>
<rect width="7.53968" height="10.6789" transform="matrix(-0.987731 0.156168 0.123962 0.992287 340.404 219.964)" fill="white"/>
<g filter="url(#filter1_d_18_1276)">
<rect width="7.53968" height="10.6789" transform="matrix(-0.987731 0.156168 0.123962 0.992287 341.289 229.062)" fill="white"/>
</g>
<rect width="7.53968" height="10.6789" transform="matrix(-0.987731 0.156168 0.123962 0.992287 338.004 231.149)" fill="white"/>
<rect width="7.53968" height="10.6789" transform="matrix(-0.987731 0.156168 0.123962 0.992287 335.632 224.553)" fill="white"/>
<rect width="7.53968" height="10.6789" transform="matrix(-0.987731 0.156168 0.123962 0.992287 333.033 223.763)" fill="white"/>
<rect width="7.53968" height="10.6789" transform="matrix(-0.987731 0.156168 0.123962 0.992287 335.466 231.551)" fill="white"/>
<rect width="7.53968" height="10.6789" transform="matrix(-0.987731 0.156168 0.123962 0.992287 338.666 236.448)" fill="white"/>
<rect width="7.53968" height="10.6789" transform="matrix(-0.987731 0.156168 0.123962 0.992287 336.019 240.701)" fill="white"/>
<rect width="7.53968" height="10.6789" transform="matrix(-0.987731 0.156168 0.123962 0.992287 334.13 246.402)" fill="white"/>
<rect width="7.53968" height="10.6789" transform="matrix(-0.987731 0.156168 0.123962 0.992287 331.502 252.221)" fill="white"/>
<rect width="7.53968" height="10.6789" transform="matrix(-0.987731 0.156168 0.123962 0.992287 329.292 254.605)" fill="white"/>
<rect width="7.53968" height="10.6789" transform="matrix(-0.987731 0.156168 0.123962 0.992287 327.585 260.277)" fill="white"/>
<rect width="7.53968" height="10.6789" transform="matrix(-0.987731 0.156168 0.123962 0.992287 336.678 216.022)" fill="white"/>
<rect width="5.05699" height="6.33549" transform="matrix(-0.987731 0.156168 0.123962 0.992287 334.883 211.657)" fill="white"/>
<rect width="7.45541" height="10.8001" transform="matrix(0.504174 0.849823 0.863145 -0.527408 312.872 272.229)" fill="white"/>
<rect width="7.45541" height="10.8001" transform="matrix(0.504174 0.849823 0.863145 -0.527408 308.782 276.081)" fill="white"/>
<rect width="5.00047" height="6.40739" transform="matrix(0.504174 0.849823 0.863145 -0.527408 304.524 277.036)" fill="white"/>
<rect width="2.50023" height="3.20369" transform="matrix(0.504174 0.849823 0.863145 -0.527408 301.781 278.006)" fill="white"/>
<rect x="35.5229" y="237.631" width="9.73241" height="10.5899" fill="white"/>
<rect x="38.4058" y="233.873" width="9.73241" height="10.5899" fill="white"/>
<g filter="url(#filter2_d_18_1276)">
<rect x="38.7277" y="242.926" width="9.73241" height="10.5899" fill="white"/>
</g>
<rect x="43.2719" y="244.463" width="9.73241" height="10.5899" fill="white"/>
<rect x="45.2553" y="237.631" width="9.73241" height="10.5899" fill="white"/>
<g filter="url(#filter3_d_18_1276)">
<rect x="43.2719" y="231.159" width="9.73241" height="10.5899" fill="white"/>
</g>
<rect x="48.4601" y="236.454" width="9.73241" height="10.5899" fill="white"/>
<rect x="46.5884" y="244.463" width="9.73241" height="10.5899" fill="white"/>
<rect x="46.5884" y="248.221" width="9.73241" height="10.5899" fill="white"/>
<g filter="url(#filter4_d_18_1276)">
<rect x="51.4547" y="241.749" width="9.73241" height="10.5899" fill="white"/>
</g>
<rect x="370.911" y="121.698" width="9.73241" height="10.5899" fill="white"/>
<rect x="373.794" y="117.94" width="9.73241" height="10.5899" fill="white"/>
<g filter="url(#filter5_d_18_1276)">
<rect x="374.116" y="126.993" width="9.73241" height="10.5899" fill="white"/>
</g>
<rect x="378.66" y="128.53" width="9.73241" height="10.5899" fill="white"/>
<rect x="380.644" y="121.698" width="9.73241" height="10.5899" fill="white"/>
<g filter="url(#filter6_d_18_1276)">
<rect x="378.66" y="115.226" width="9.73241" height="10.5899" fill="white"/>
</g>
<rect x="383.848" y="120.521" width="9.73241" height="10.5899" fill="white"/>
<rect x="381.977" y="128.53" width="9.73241" height="10.5899" fill="white"/>
<rect x="381.977" y="132.288" width="9.73241" height="10.5899" fill="white"/>
<g filter="url(#filter7_d_18_1276)">
<rect x="386.843" y="125.816" width="9.73241" height="10.5899" fill="white"/>
</g>
<rect width="14.007" height="14.1827" transform="matrix(0.714948 -0.699177 0.611436 0.791294 149.947 96.5063)" fill="white"/>
<rect width="14.007" height="8.35193" transform="matrix(0.714948 -0.699177 0.611436 0.791294 156.221 93.2496)" fill="white"/>
<rect width="7.84351" height="15.3614" transform="matrix(-0.964569 -0.0378937 0.031964 -1.02974 404.436 223.749)" fill="#FFF82A"/>
<rect width="7.84351" height="9.04606" transform="matrix(-0.964569 -0.0378937 0.0319641 -1.02974 400.725 221.289)" fill="#FFF82A"/>
<rect width="7.84351" height="15.3614" transform="matrix(-0.964569 -0.0378937 0.031964 -1.02974 398.776 232.289)" fill="#FFF82A"/>
<rect width="7.84351" height="9.04606" transform="matrix(-0.964569 -0.0378937 0.0319641 -1.02974 395.065 229.829)" fill="#FFF82A"/>
<rect width="7.84351" height="15.3614" transform="matrix(-0.964569 -0.0378937 0.031964 -1.02974 402.881 252.555)" fill="#FFF82A"/>
<rect width="7.84351" height="9.04606" transform="matrix(-0.964569 -0.0378937 0.0319641 -1.02974 399.17 250.095)" fill="#FFF82A"/>
<rect width="7.84351" height="15.3614" transform="matrix(-0.964569 -0.0378937 0.031964 -1.02974 401.653 247.277)" fill="#FFF82A"/>
<rect width="7.84351" height="9.04606" transform="matrix(-0.964569 -0.0378937 0.0319641 -1.02974 397.942 244.816)" fill="#FFF82A"/>
<rect width="7.84351" height="15.3614" transform="matrix(-0.964569 -0.0378937 0.031964 -1.02974 404.196 238.147)" fill="#FFF82A"/>
<rect width="7.84351" height="9.04606" transform="matrix(-0.964569 -0.0378937 0.0319641 -1.02974 400.485 235.687)" fill="#FFF82A"/>
<rect width="8.34396" height="14.4219" transform="matrix(-0.494135 0.856007 -0.818168 -0.597736 152.221 363.007)" fill="#FFF82A"/>
<rect width="8.34396" height="8.49281" transform="matrix(-0.494135 0.856007 -0.818168 -0.597736 148.435 365.318)" fill="#FFF82A"/>
<rect width="8.34396" height="14.4219" transform="matrix(-0.494135 0.856007 -0.818168 -0.597736 155.812 372.864)" fill="#FFF82A"/>
<rect width="8.34396" height="8.49281" transform="matrix(-0.494135 0.856007 -0.818168 -0.597736 152.027 375.175)" fill="#FFF82A"/>
<rect width="8.34396" height="14.4219" transform="matrix(-0.494135 0.856007 -0.818168 -0.597736 173.368 379.343)" fill="#FFF82A"/>
<rect width="8.34396" height="8.49281" transform="matrix(-0.494135 0.856007 -0.818168 -0.597736 169.582 381.654)" fill="#FFF82A"/>
<rect width="8.34396" height="14.4219" transform="matrix(-0.494135 0.856007 -0.818168 -0.597736 168.714 377.809)" fill="#FFF82A"/>
<rect width="8.34396" height="8.49281" transform="matrix(-0.494135 0.856007 -0.818168 -0.597736 164.928 380.12)" fill="#FFF82A"/>
<rect width="8.34396" height="14.4219" transform="matrix(-0.494135 0.856007 -0.818168 -0.597736 163.068 370.654)" fill="#FFF82A"/>
<rect width="8.34396" height="8.49281" transform="matrix(-0.494135 0.856007 -0.818168 -0.597736 159.282 372.966)" fill="#FFF82A"/>
<rect width="4.44359" height="6.28692" transform="matrix(-0.93922 0.343315 0.277478 0.960732 361.243 349.053)" fill="white"/>
<rect width="4.44359" height="6.28692" transform="matrix(-0.93922 0.343315 0.277478 0.960732 359.361 353.079)" fill="white"/>
<rect width="4.44359" height="6.28692" transform="matrix(-0.93922 0.343315 0.277478 0.960732 357.419 357.128)" fill="white"/>
<rect width="4.44359" height="6.28692" transform="matrix(-0.93922 0.343315 0.277478 0.960732 355.819 361.052)" fill="white"/>
<rect width="4.44359" height="6.28692" transform="matrix(-0.93922 0.343315 0.277478 0.960732 354.263 364.959)" fill="white"/>
<rect width="4.44359" height="6.28692" transform="matrix(-0.93922 0.343315 0.277478 0.960732 354.263 364.959)" fill="white"/>
<rect width="4.44359" height="6.28692" transform="matrix(-0.93922 0.343315 0.277478 0.960732 384.85 331.348)" fill="white"/>
<rect width="4.44359" height="6.28692" transform="matrix(-0.93922 0.343315 0.277478 0.960732 382.968 335.375)" fill="white"/>
<rect width="4.44359" height="6.28692" transform="matrix(-0.93922 0.343315 0.277478 0.960732 381.027 339.423)" fill="white"/>
<rect width="4.44359" height="6.28692" transform="matrix(-0.93922 0.343315 0.277478 0.960732 379.426 343.347)" fill="white"/>
<rect width="4.44359" height="6.28692" transform="matrix(-0.93922 0.343315 0.277478 0.960732 377.871 347.254)" fill="white"/>
<rect width="4.44359" height="6.28692" transform="matrix(-0.93922 0.343315 0.277478 0.960732 377.871 347.254)" fill="white"/>
<rect width="4.44359" height="6.28692" transform="matrix(-0.93922 0.343315 0.277478 0.960732 398.643 314.714)" fill="white"/>
<rect width="4.44359" height="6.28692" transform="matrix(-0.93922 0.343315 0.277478 0.960732 396.761 318.741)" fill="white"/>
<rect width="4.44359" height="6.28692" transform="matrix(-0.93922 0.343315 0.277478 0.960732 394.819 322.79)" fill="white"/>
<rect width="4.44359" height="6.28692" transform="matrix(-0.93922 0.343315 0.277478 0.960732 393.219 326.713)" fill="white"/>
<rect width="4.44359" height="6.28692" transform="matrix(-0.93922 0.343315 0.277478 0.960732 391.663 330.621)" fill="white"/>
<rect width="4.44359" height="6.28692" transform="matrix(-0.93922 0.343315 0.277478 0.960732 391.663 330.621)" fill="white"/>
<rect width="4.44359" height="6.28692" transform="matrix(-0.93922 0.343315 0.277478 0.960732 405.092 302.146)" fill="white"/>
<rect width="4.44359" height="6.28692" transform="matrix(-0.93922 0.343315 0.277478 0.960732 403.209 306.173)" fill="white"/>
<rect width="4.44359" height="6.28692" transform="matrix(-0.93922 0.343315 0.277478 0.960732 401.268 310.221)" fill="white"/>
<rect width="4.44359" height="6.28692" transform="matrix(-0.93922 0.343315 0.277478 0.960732 399.668 314.145)" fill="white"/>
<rect width="4.44359" height="6.28692" transform="matrix(-0.93922 0.343315 0.277478 0.960732 398.112 318.052)" fill="white"/>
<rect width="4.44359" height="6.28692" transform="matrix(-0.93922 0.343315 0.277478 0.960732 398.112 318.052)" fill="white"/>
<rect width="4.44359" height="6.28692" transform="matrix(-0.93922 0.343315 0.277478 0.960732 314.547 380.167)" fill="white"/>
<rect width="4.44359" height="6.28692" transform="matrix(-0.93922 0.343315 0.277478 0.960732 312.665 384.194)" fill="white"/>
<rect width="4.44359" height="6.28692" transform="matrix(-0.93922 0.343315 0.277478 0.960732 310.723 388.243)" fill="white"/>
<rect width="4.44359" height="6.28692" transform="matrix(-0.93922 0.343315 0.277478 0.960732 309.123 392.167)" fill="white"/>
<rect width="4.44359" height="6.28692" transform="matrix(-0.93922 0.343315 0.277478 0.960732 307.567 396.074)" fill="white"/>
<rect width="4.44359" height="6.28692" transform="matrix(-0.93922 0.343315 0.277478 0.960732 307.567 396.074)" fill="white"/>
<rect width="4.44359" height="6.28692" transform="matrix(-0.93922 0.343315 0.277478 0.960732 314.547 380.167)" fill="white"/>
<rect width="4.44359" height="6.28692" transform="matrix(-0.93922 0.343315 0.277478 0.960732 312.665 384.194)" fill="white"/>
<rect width="4.44359" height="6.28692" transform="matrix(-0.93922 0.343315 0.277478 0.960732 310.723 388.243)" fill="white"/>
<rect width="4.44359" height="6.28692" transform="matrix(-0.93922 0.343315 0.277478 0.960732 309.123 392.167)" fill="white"/>
<rect width="4.44359" height="6.28692" transform="matrix(-0.93922 0.343315 0.277478 0.960732 307.567 396.074)" fill="white"/>
<rect width="4.44359" height="6.28692" transform="matrix(-0.93922 0.343315 0.277478 0.960732 307.567 396.074)" fill="white"/>
<rect width="4.44359" height="6.28692" transform="matrix(-0.93922 0.343315 0.277478 0.960732 338.173 363.538)" fill="white"/>
<rect width="4.44359" height="6.28692" transform="matrix(-0.93922 0.343315 0.277478 0.960732 336.291 367.565)" fill="white"/>
<rect width="4.44359" height="6.28692" transform="matrix(-0.93922 0.343315 0.277478 0.960732 334.349 371.614)" fill="white"/>
<rect width="4.44359" height="6.28692" transform="matrix(-0.93922 0.343315 0.277478 0.960732 332.749 375.538)" fill="white"/>
<rect width="4.44359" height="6.28692" transform="matrix(-0.93922 0.343315 0.277478 0.960732 331.193 379.445)" fill="white"/>
<rect width="4.44359" height="6.28692" transform="matrix(-0.93922 0.343315 0.277478 0.960732 331.193 379.445)" fill="white"/>
<rect width="4.44359" height="6.28692" transform="matrix(-0.93922 0.343315 0.277478 0.960732 243.3 411.605)" fill="white"/>
<rect width="4.44359" height="6.28692" transform="matrix(-0.93922 0.343315 0.277478 0.960732 241.417 415.632)" fill="white"/>
<rect width="4.44359" height="6.28692" transform="matrix(-0.93922 0.343315 0.277478 0.960732 239.476 419.68)" fill="white"/>
<rect width="4.44359" height="6.28692" transform="matrix(-0.93922 0.343315 0.277478 0.960732 237.876 423.604)" fill="white"/>
<rect width="4.44359" height="6.28692" transform="matrix(-0.93922 0.343315 0.277478 0.960732 236.32 427.512)" fill="white"/>
<rect width="4.44359" height="6.28692" transform="matrix(-0.93922 0.343315 0.277478 0.960732 236.32 427.512)" fill="white"/>
<rect width="4.90196" height="5.69526" transform="matrix(0.231697 0.972788 0.957446 -0.288613 214.903 421.441)" fill="white"/>
<rect width="4.90196" height="5.69526" transform="matrix(0.231697 0.972788 0.957446 -0.288613 218.379 423.767)" fill="white"/>
<rect width="4.90196" height="5.69526" transform="matrix(0.231697 0.972788 0.957446 -0.288613 221.871 426.159)" fill="white"/>
<rect width="4.90196" height="5.69526" transform="matrix(0.231697 0.972788 0.957446 -0.288613 225.27 428.163)" fill="white"/>
<rect width="4.90196" height="5.69526" transform="matrix(0.231697 0.972788 0.957446 -0.288613 228.657 430.115)" fill="white"/>
<rect width="4.90196" height="5.69526" transform="matrix(0.231697 0.972788 0.957446 -0.288613 228.657 430.115)" fill="white"/>
<rect width="4.44359" height="6.28692" transform="matrix(-0.93922 0.343315 0.277478 0.960732 263.643 403.203)" fill="white"/>
<rect width="4.44359" height="6.28692" transform="matrix(-0.93922 0.343315 0.277478 0.960732 261.761 407.23)" fill="white"/>
<rect width="4.44359" height="6.28692" transform="matrix(-0.93922 0.343315 0.277478 0.960732 259.819 411.278)" fill="white"/>
<rect width="4.44359" height="6.28692" transform="matrix(-0.93922 0.343315 0.277478 0.960732 258.219 415.202)" fill="white"/>
<rect width="4.44359" height="6.28692" transform="matrix(-0.93922 0.343315 0.277478 0.960732 256.663 419.11)" fill="white"/>
<rect width="4.44359" height="6.28692" transform="matrix(-0.93922 0.343315 0.277478 0.960732 256.663 419.11)" fill="white"/>
<rect width="4.90196" height="5.69526" transform="matrix(0.231697 0.972788 0.957446 -0.288613 235.246 413.039)" fill="white"/>
<rect width="4.90196" height="5.69526" transform="matrix(0.231697 0.972788 0.957446 -0.288613 238.722 415.364)" fill="white"/>
<rect width="4.90196" height="5.69526" transform="matrix(0.231697 0.972788 0.957446 -0.288613 242.214 417.757)" fill="white"/>
<rect width="4.90196" height="5.69526" transform="matrix(0.231697 0.972788 0.957446 -0.288613 245.614 419.761)" fill="white"/>
<rect width="4.90196" height="5.69526" transform="matrix(0.231697 0.972788 0.957446 -0.288613 249.001 421.713)" fill="white"/>
<rect width="4.90196" height="5.69526" transform="matrix(0.231697 0.972788 0.957446 -0.288613 249.001 421.713)" fill="white"/>
<rect width="4.44359" height="6.28692" transform="matrix(-0.93922 0.343315 0.277478 0.960732 285.383 393.907)" fill="white"/>
<rect width="4.44359" height="6.28692" transform="matrix(-0.93922 0.343315 0.277478 0.960732 283.501 397.934)" fill="white"/>
<rect width="4.44359" height="6.28692" transform="matrix(-0.93922 0.343315 0.277478 0.960732 281.56 401.982)" fill="white"/>
<rect width="4.44359" height="6.28692" transform="matrix(-0.93922 0.343315 0.277478 0.960732 279.959 405.906)" fill="white"/>
<rect width="4.44359" height="6.28692" transform="matrix(-0.93922 0.343315 0.277478 0.960732 278.404 409.814)" fill="white"/>
<rect width="4.44359" height="6.28692" transform="matrix(-0.93922 0.343315 0.277478 0.960732 278.404 409.814)" fill="white"/>
<rect width="4.90196" height="5.69526" transform="matrix(0.231697 0.972788 0.957446 -0.288613 256.986 403.743)" fill="white"/>
<rect width="4.90196" height="5.69526" transform="matrix(0.231697 0.972788 0.957446 -0.288613 260.462 406.068)" fill="white"/>
<rect width="4.90196" height="5.69526" transform="matrix(0.231697 0.972788 0.957446 -0.288613 263.955 408.461)" fill="white"/>
<rect width="4.90196" height="5.69526" transform="matrix(0.231697 0.972788 0.957446 -0.288613 267.354 410.465)" fill="white"/>
<rect width="4.90196" height="5.69526" transform="matrix(0.231697 0.972788 0.957446 -0.288613 270.741 412.417)" fill="white"/>
<rect width="4.90196" height="5.69526" transform="matrix(0.231697 0.972788 0.957446 -0.288613 270.741 412.417)" fill="white"/>
<rect width="4.44359" height="6.28692" transform="matrix(-0.93922 0.343315 0.277478 0.960732 313.363 385.545)" fill="white"/>
<rect width="4.44359" height="6.28692" transform="matrix(-0.93922 0.343315 0.277478 0.960732 311.48 389.572)" fill="white"/>
<rect width="4.44359" height="6.28692" transform="matrix(-0.93922 0.343315 0.277478 0.960732 309.539 393.62)" fill="white"/>
<rect width="4.44359" height="6.28692" transform="matrix(-0.93922 0.343315 0.277478 0.960732 307.939 397.544)" fill="white"/>
<rect width="4.44359" height="6.28692" transform="matrix(-0.93922 0.343315 0.277478 0.960732 306.383 401.451)" fill="white"/>
<rect width="4.44359" height="6.28692" transform="matrix(-0.93922 0.343315 0.277478 0.960732 306.383 401.451)" fill="white"/>
<rect width="4.90196" height="5.69526" transform="matrix(0.231697 0.972788 0.957446 -0.288613 284.966 395.381)" fill="white"/>
<rect width="4.90196" height="5.69526" transform="matrix(0.231697 0.972788 0.957446 -0.288613 288.442 397.706)" fill="white"/>
<rect width="4.90196" height="5.69526" transform="matrix(0.231697 0.972788 0.957446 -0.288613 291.934 400.099)" fill="white"/>
<rect width="4.90196" height="5.69526" transform="matrix(0.231697 0.972788 0.957446 -0.288613 295.333 402.102)" fill="white"/>
<rect width="4.90196" height="5.69526" transform="matrix(0.231697 0.972788 0.957446 -0.288613 298.721 404.055)" fill="white"/>
<rect width="4.90196" height="5.69526" transform="matrix(0.231697 0.972788 0.957446 -0.288613 298.721 404.055)" fill="white"/>
<rect width="4.44359" height="6.28692" transform="matrix(-0.93922 0.343315 0.277478 0.960732 313.363 385.545)" fill="white"/>
<rect width="4.44359" height="6.28692" transform="matrix(-0.93922 0.343315 0.277478 0.960732 311.48 389.572)" fill="white"/>
<rect width="4.44359" height="6.28692" transform="matrix(-0.93922 0.343315 0.277478 0.960732 309.539 393.62)" fill="white"/>
<rect width="4.44359" height="6.28692" transform="matrix(-0.93922 0.343315 0.277478 0.960732 307.939 397.544)" fill="white"/>
<rect width="4.44359" height="6.28692" transform="matrix(-0.93922 0.343315 0.277478 0.960732 306.383 401.451)" fill="white"/>
<rect width="4.44359" height="6.28692" transform="matrix(-0.93922 0.343315 0.277478 0.960732 306.383 401.451)" fill="white"/>
<rect width="4.90196" height="5.69526" transform="matrix(0.231697 0.972788 0.957446 -0.288613 284.966 395.381)" fill="white"/>
<rect width="4.90196" height="5.69526" transform="matrix(0.231697 0.972788 0.957446 -0.288613 288.442 397.706)" fill="white"/>
<rect width="4.90196" height="5.69526" transform="matrix(0.231697 0.972788 0.957446 -0.288613 291.934 400.099)" fill="white"/>
<rect width="4.90196" height="5.69526" transform="matrix(0.231697 0.972788 0.957446 -0.288613 295.333 402.102)" fill="white"/>
<rect width="4.90196" height="5.69526" transform="matrix(0.231697 0.972788 0.957446 -0.288613 298.721 404.055)" fill="white"/>
<rect width="4.90196" height="5.69526" transform="matrix(0.231697 0.972788 0.957446 -0.288613 298.721 404.055)" fill="white"/>
<rect width="4.44359" height="6.28692" transform="matrix(-0.93922 0.343315 0.277478 0.960732 335.583 369.384)" fill="white"/>
<rect width="4.44359" height="6.28692" transform="matrix(-0.93922 0.343315 0.277478 0.960732 333.701 373.41)" fill="white"/>
<rect width="4.44359" height="6.28692" transform="matrix(-0.93922 0.343315 0.277478 0.960732 331.759 377.459)" fill="white"/>
<rect width="4.44359" height="6.28692" transform="matrix(-0.93922 0.343315 0.277478 0.960732 330.159 381.383)" fill="white"/>
<rect width="4.44359" height="6.28692" transform="matrix(-0.93922 0.343315 0.277478 0.960732 328.603 385.29)" fill="white"/>
<rect width="4.44359" height="6.28692" transform="matrix(-0.93922 0.343315 0.277478 0.960732 328.603 385.29)" fill="white"/>
<rect width="4.90196" height="5.69526" transform="matrix(0.231697 0.972788 0.957446 -0.288613 307.186 379.22)" fill="white"/>
<rect width="4.90196" height="5.69526" transform="matrix(0.231697 0.972788 0.957446 -0.288613 310.662 381.545)" fill="white"/>
<rect width="4.90196" height="5.69526" transform="matrix(0.231697 0.972788 0.957446 -0.288613 314.154 383.938)" fill="white"/>
<rect width="4.90196" height="5.69526" transform="matrix(0.231697 0.972788 0.957446 -0.288613 317.554 385.941)" fill="white"/>
<rect width="4.90196" height="5.69526" transform="matrix(0.231697 0.972788 0.957446 -0.288613 320.941 387.893)" fill="white"/>
<rect width="4.90196" height="5.69526" transform="matrix(0.231697 0.972788 0.957446 -0.288613 320.941 387.893)" fill="white"/>
<rect width="4.44359" height="6.28692" transform="matrix(-0.93922 0.343315 0.277478 0.960732 361.5 351.676)" fill="white"/>
<rect width="4.44359" height="6.28692" transform="matrix(-0.93922 0.343315 0.277478 0.960732 359.618 355.703)" fill="white"/>
<rect width="4.44359" height="6.28692" transform="matrix(-0.93922 0.343315 0.277478 0.960732 357.676 359.752)" fill="white"/>
<rect width="4.44359" height="6.28692" transform="matrix(-0.93922 0.343315 0.277478 0.960732 356.076 363.676)" fill="white"/>
<rect width="4.44359" height="6.28692" transform="matrix(-0.93922 0.343315 0.277478 0.960732 354.52 367.583)" fill="white"/>
<rect width="4.44359" height="6.28692" transform="matrix(-0.93922 0.343315 0.277478 0.960732 354.52 367.583)" fill="white"/>
<rect width="4.90196" height="5.69526" transform="matrix(0.231697 0.972788 0.957446 -0.288613 333.103 361.512)" fill="white"/>
<rect width="4.90196" height="5.69526" transform="matrix(0.231697 0.972788 0.957446 -0.288613 336.579 363.838)" fill="white"/>
<rect width="4.90196" height="5.69526" transform="matrix(0.231697 0.972788 0.957446 -0.288613 340.071 366.231)" fill="white"/>
<rect width="4.90196" height="5.69526" transform="matrix(0.231697 0.972788 0.957446 -0.288613 343.471 368.234)" fill="white"/>
<rect width="4.90196" height="5.69526" transform="matrix(0.231697 0.972788 0.957446 -0.288613 346.858 370.186)" fill="white"/>
<rect width="4.90196" height="5.69526" transform="matrix(0.231697 0.972788 0.957446 -0.288613 346.858 370.186)" fill="white"/>
<rect width="4.44359" height="6.28692" transform="matrix(-0.93922 0.343315 0.277478 0.960732 385.029 334.07)" fill="white"/>
<rect width="4.44359" height="6.28692" transform="matrix(-0.93922 0.343315 0.277478 0.960732 383.147 338.097)" fill="white"/>
<rect width="4.44359" height="6.28692" transform="matrix(-0.93922 0.343315 0.277478 0.960732 381.206 342.146)" fill="white"/>
<rect width="4.44359" height="6.28692" transform="matrix(-0.93922 0.343315 0.277478 0.960732 379.605 346.07)" fill="white"/>
<rect width="4.44359" height="6.28692" transform="matrix(-0.93922 0.343315 0.277478 0.960732 378.05 349.977)" fill="white"/>
<rect width="4.44359" height="6.28692" transform="matrix(-0.93922 0.343315 0.277478 0.960732 378.05 349.977)" fill="white"/>
<rect width="4.90196" height="5.69526" transform="matrix(0.231697 0.972788 0.957446 -0.288613 356.633 343.906)" fill="white"/>
<rect width="4.90196" height="5.69526" transform="matrix(0.231697 0.972788 0.957446 -0.288613 360.109 346.232)" fill="white"/>
<rect width="4.90196" height="5.69526" transform="matrix(0.231697 0.972788 0.957446 -0.288613 363.601 348.625)" fill="white"/>
<rect width="4.90196" height="5.69526" transform="matrix(0.231697 0.972788 0.957446 -0.288613 367 350.628)" fill="white"/>
<rect width="4.90196" height="5.69526" transform="matrix(0.231697 0.972788 0.957446 -0.288613 370.387 352.58)" fill="white"/>
<rect width="4.90196" height="5.69526" transform="matrix(0.231697 0.972788 0.957446 -0.288613 370.387 352.58)" fill="white"/>
<rect width="4.44359" height="6.28692" transform="matrix(-0.93922 0.343315 0.277478 0.960732 217.084 420.861)" fill="white"/>
<rect width="4.44359" height="6.28692" transform="matrix(-0.93922 0.343315 0.277478 0.960732 215.202 424.888)" fill="white"/>
<rect width="4.44359" height="6.28692" transform="matrix(-0.93922 0.343315 0.277478 0.960732 213.261 428.936)" fill="white"/>
<rect width="4.44359" height="6.28692" transform="matrix(-0.93922 0.343315 0.277478 0.960732 211.66 432.86)" fill="white"/>
<rect width="4.44359" height="6.28692" transform="matrix(-0.93922 0.343315 0.277478 0.960732 210.105 436.768)" fill="white"/>
<rect width="4.44359" height="6.28692" transform="matrix(-0.93922 0.343315 0.277478 0.960732 210.105 436.768)" fill="white"/>
<rect width="4.90196" height="5.69526" transform="matrix(0.231697 0.972788 0.957446 -0.288613 188.688 430.697)" fill="white"/>
<rect width="4.90196" height="5.69526" transform="matrix(0.231697 0.972788 0.957446 -0.288613 192.164 433.023)" fill="white"/>
<rect width="4.90196" height="5.69526" transform="matrix(0.231697 0.972788 0.957446 -0.288613 195.656 435.416)" fill="white"/>
<rect width="4.90196" height="5.69526" transform="matrix(0.231697 0.972788 0.957446 -0.288613 199.055 437.419)" fill="white"/>
<rect width="4.90196" height="5.69526" transform="matrix(0.231697 0.972788 0.957446 -0.288613 202.442 439.371)" fill="white"/>
<rect width="4.90196" height="5.69526" transform="matrix(0.231697 0.972788 0.957446 -0.288613 202.442 439.371)" fill="white"/>
<rect width="4.42715" height="6.30608" transform="matrix(0.957446 -0.288613 0.231697 0.972788 287.089 353.586)" fill="white"/>
<rect width="4.42715" height="6.30608" transform="matrix(0.957446 -0.288613 0.231697 0.972788 290.617 355.81)" fill="white"/>
<rect width="4.42715" height="6.30608" transform="matrix(0.957446 -0.288613 0.231697 0.972788 294.205 358.016)" fill="white"/>
<rect width="4.42715" height="6.30608" transform="matrix(0.957446 -0.288613 0.231697 0.972788 297.447 360.326)" fill="white"/>
<rect width="4.42715" height="6.30608" transform="matrix(0.957446 -0.288613 0.231697 0.972788 300.643 362.65)" fill="white"/>
<rect width="4.42715" height="6.30608" transform="matrix(0.957446 -0.288613 0.231697 0.972788 300.643 362.65)" fill="white"/>
<rect width="4.42715" height="6.30608" transform="matrix(0.957446 -0.288613 0.231697 0.972788 264.908 364.144)" fill="white"/>
<rect width="4.42715" height="6.30608" transform="matrix(0.957446 -0.288613 0.231697 0.972788 268.436 366.368)" fill="white"/>
<rect width="4.42715" height="6.30608" transform="matrix(0.957446 -0.288613 0.231697 0.972788 272.024 368.573)" fill="white"/>
<rect width="4.42715" height="6.30608" transform="matrix(0.957446 -0.288613 0.231697 0.972788 275.266 370.884)" fill="white"/>
<rect width="4.42715" height="6.30608" transform="matrix(0.957446 -0.288613 0.231697 0.972788 278.462 373.208)" fill="white"/>
<rect width="4.42715" height="6.30608" transform="matrix(0.957446 -0.288613 0.231697 0.972788 278.462 373.208)" fill="white"/>
<rect width="4.42715" height="6.30608" transform="matrix(0.957446 -0.288613 0.231697 0.972788 240.418 372.031)" fill="white"/>
<rect width="4.42715" height="6.30608" transform="matrix(0.957446 -0.288613 0.231697 0.972788 243.946 374.255)" fill="white"/>
<rect width="4.42715" height="6.30608" transform="matrix(0.957446 -0.288613 0.231697 0.972788 247.534 376.461)" fill="white"/>
<rect width="4.42715" height="6.30608" transform="matrix(0.957446 -0.288613 0.231697 0.972788 250.776 378.771)" fill="white"/>
<rect width="4.42715" height="6.30608" transform="matrix(0.957446 -0.288613 0.231697 0.972788 253.973 381.095)" fill="white"/>
<rect width="4.42715" height="6.30608" transform="matrix(0.957446 -0.288613 0.231697 0.972788 253.973 381.095)" fill="white"/>
<rect width="4.42715" height="6.30608" transform="matrix(0.957446 -0.288613 0.231697 0.972788 219.468 380.582)" fill="white"/>
<rect width="4.42715" height="6.30608" transform="matrix(0.957446 -0.288613 0.231697 0.972788 222.996 382.806)" fill="white"/>
<rect width="4.42715" height="6.30608" transform="matrix(0.957446 -0.288613 0.231697 0.972788 226.584 385.011)" fill="white"/>
<rect width="4.42715" height="6.30608" transform="matrix(0.957446 -0.288613 0.231697 0.972788 229.826 387.322)" fill="white"/>
<rect width="4.42715" height="6.30608" transform="matrix(0.957446 -0.288613 0.231697 0.972788 233.022 389.646)" fill="white"/>
<rect width="4.42715" height="6.30608" transform="matrix(0.957446 -0.288613 0.231697 0.972788 233.022 389.646)" fill="white"/>
<rect width="4.42715" height="6.30608" transform="matrix(0.957446 -0.288613 0.231697 0.972788 195.575 387.096)" fill="white"/>
<rect width="4.42715" height="6.30608" transform="matrix(0.957446 -0.288613 0.231697 0.972788 199.103 389.32)" fill="white"/>
<rect width="4.42715" height="6.30608" transform="matrix(0.957446 -0.288613 0.231697 0.972788 202.691 391.526)" fill="white"/>
<rect width="4.42715" height="6.30608" transform="matrix(0.957446 -0.288613 0.231697 0.972788 205.933 393.836)" fill="white"/>
<rect width="4.42715" height="6.30608" transform="matrix(0.957446 -0.288613 0.231697 0.972788 209.129 396.16)" fill="white"/>
<rect width="4.42715" height="6.30608" transform="matrix(0.957446 -0.288613 0.231697 0.972788 209.129 396.16)" fill="white"/>
<rect width="4.42715" height="6.30608" transform="matrix(0.957446 -0.288613 0.231697 0.972788 310.793 339.142)" fill="white"/>
<rect width="4.42715" height="6.30608" transform="matrix(0.957446 -0.288613 0.231697 0.972788 314.321 341.366)" fill="white"/>
<rect width="4.42715" height="6.30608" transform="matrix(0.957446 -0.288613 0.231697 0.972788 317.91 343.572)" fill="white"/>
<rect width="4.42715" height="6.30608" transform="matrix(0.957446 -0.288613 0.231697 0.972788 321.151 345.882)" fill="white"/>
<rect width="4.42715" height="6.30608" transform="matrix(0.957446 -0.288613 0.231697 0.972788 324.348 348.206)" fill="white"/>
<rect width="4.42715" height="6.30608" transform="matrix(0.957446 -0.288613 0.231697 0.972788 324.348 348.206)" fill="white"/>
<rect width="4.42715" height="6.30608" transform="matrix(0.957446 -0.288613 0.231697 0.972788 336.364 322.047)" fill="white"/>
<rect width="4.42715" height="6.30608" transform="matrix(0.957446 -0.288613 0.231697 0.972788 339.892 324.271)" fill="white"/>
<rect width="4.42715" height="6.30608" transform="matrix(0.957446 -0.288613 0.231697 0.972788 343.48 326.476)" fill="white"/>
<rect width="4.42715" height="6.30608" transform="matrix(0.957446 -0.288613 0.231697 0.972788 346.722 328.787)" fill="white"/>
<rect width="4.42715" height="6.30608" transform="matrix(0.957446 -0.288613 0.231697 0.972788 349.918 331.111)" fill="white"/>
<rect width="4.42715" height="6.30608" transform="matrix(0.957446 -0.288613 0.231697 0.972788 349.918 331.111)" fill="white"/>
<rect width="4.42715" height="6.30608" transform="matrix(0.957446 -0.288613 0.231697 0.972788 357.599 303.307)" fill="white"/>
<rect width="4.42715" height="6.30608" transform="matrix(0.957446 -0.288613 0.231697 0.972788 361.127 305.531)" fill="white"/>
<rect width="4.42715" height="6.30608" transform="matrix(0.957446 -0.288613 0.231697 0.972788 364.715 307.737)" fill="white"/>
<rect width="4.42715" height="6.30608" transform="matrix(0.957446 -0.288613 0.231697 0.972788 367.957 310.047)" fill="white"/>
<rect width="4.42715" height="6.30608" transform="matrix(0.957446 -0.288613 0.231697 0.972788 371.153 312.371)" fill="white"/>
<rect width="4.42715" height="6.30608" transform="matrix(0.957446 -0.288613 0.231697 0.972788 371.153 312.371)" fill="white"/>
<rect width="4.42715" height="6.30608" transform="matrix(0.957446 -0.288613 0.231697 0.972788 377.831 288.225)" fill="white"/>
<rect width="4.42715" height="6.30608" transform="matrix(0.957446 -0.288613 0.231697 0.972788 381.359 290.449)" fill="white"/>
<rect width="4.42715" height="6.30608" transform="matrix(0.957446 -0.288613 0.231697 0.972788 384.947 292.655)" fill="white"/>
<rect width="4.42715" height="6.30608" transform="matrix(0.957446 -0.288613 0.231697 0.972788 388.189 294.965)" fill="white"/>
<rect width="4.42715" height="6.30608" transform="matrix(0.957446 -0.288613 0.231697 0.972788 391.386 297.289)" fill="white"/>
<rect width="4.42715" height="6.30608" transform="matrix(0.957446 -0.288613 0.231697 0.972788 391.386 297.289)" fill="white"/>
<rect x="76.6871" y="555.374" width="30.5826" height="31.6526" transform="rotate(-29 76.6871 555.374)" fill="#C9FF1B"/>
<rect x="76.6871" y="555.374" width="30.5826" height="31.6526" transform="rotate(-29 76.6871 555.374)" fill="#C9FF1B"/>
<rect x="84.349" y="533.032" width="30.5826" height="31.6526" transform="rotate(-29 84.349 533.032)" fill="#C9FF1B"/>
<rect x="96.5034" y="518.944" width="30.5826" height="31.6526" transform="rotate(-29 96.5034 518.944)" fill="#C9FF1B"/>
<rect x="106.857" y="502.461" width="30.5826" height="31.6526" transform="rotate(-29 106.857 502.461)" fill="#C9FF1B"/>
<rect x="110.69" y="487.364" width="30.5826" height="31.6526" transform="rotate(-29 110.69 487.364)" fill="#C9FF1B"/>
<rect x="124.589" y="467.185" width="30.5826" height="31.6526" transform="rotate(-29 124.589 467.185)" fill="#C9FF1B"/>
<rect x="141.546" y="447.042" width="30.5826" height="31.6526" transform="rotate(-29 141.546 447.042)" fill="#C9FF1B"/>
<rect x="154.295" y="432.624" width="30.5826" height="31.6526" transform="rotate(-29 154.295 432.624)" fill="#C9FF1B"/>
<rect x="104.304" y="532.715" width="30.5826" height="31.6526" transform="rotate(-29 104.304 532.715)" fill="#C9FF1B"/>
<rect x="115.665" y="515.673" width="30.5826" height="31.6526" transform="rotate(-29 115.665 515.673)" fill="#C9FF1B"/>
<rect x="133.668" y="492.722" width="30.5826" height="31.6526" transform="rotate(-29 133.668 492.722)" fill="#C9FF1B"/>
<rect x="105.106" y="547.904" width="30.5826" height="31.6526" transform="rotate(-29 105.106 547.904)" fill="#C9FF1B"/>
<rect x="150.278" y="473.569" width="30.5826" height="31.6526" transform="rotate(-29 150.278 473.569)" fill="#C9FF1B"/>
<rect x="172.045" y="455.882" width="30.5826" height="31.6526" transform="rotate(-29 172.045 455.882)" fill="#C9FF1B"/>
<rect x="157.026" y="492.747" width="30.5826" height="31.6526" transform="rotate(-29 157.026 492.747)" fill="#C9FF1B"/>
<rect x="174.728" y="475.583" width="30.5826" height="31.6526" transform="rotate(-29 174.728 475.583)" fill="#C9FF1B"/>
<rect x="138.33" y="521.205" width="30.5826" height="31.6526" transform="rotate(-29 138.33 521.205)" fill="#C9FF1B"/>
<rect x="127.602" y="532.274" width="30.5826" height="31.6526" transform="rotate(-29 127.602 532.274)" fill="#C9FF1B"/>
<rect x="109.549" y="487.996" width="16.5972" height="16.7695" transform="rotate(-29 109.549 487.996)" fill="#5A5555"/>
<rect x="117.776" y="483.414" width="8.29861" height="11.3648" transform="rotate(-29 117.776 483.414)" fill="white"/>
<rect x="126.458" y="484.245" width="8.29861" height="11.3648" transform="rotate(-29 126.458 484.245)" fill="white"/>
<rect x="133.65" y="482.266" width="8.29861" height="11.3648" transform="rotate(-29 133.65 482.266)" fill="white"/>
<rect x="139.574" y="488.569" width="8.29861" height="11.3648" transform="rotate(-29 139.574 488.569)" fill="white"/>
<rect x="147.622" y="488.651" width="8.29861" height="11.3648" transform="rotate(-29 147.622 488.651)" fill="white"/>
<rect x="154.654" y="495.215" width="8.29861" height="11.3648" transform="rotate(-29 154.654 495.215)" fill="white"/>
<rect x="160.788" y="493.83" width="8.29861" height="11.3648" transform="rotate(-29 160.788 493.83)" fill="white"/>
<rect x="168.482" y="499.152" width="8.29861" height="11.3648" transform="rotate(-29 168.482 499.152)" fill="white"/>
<rect x="166.425" y="493.795" width="8.29861" height="11.3648" transform="rotate(-29 166.425 493.795)" fill="white"/>
<rect x="176.379" y="500.751" width="8.29861" height="11.3648" transform="rotate(-29 176.379 500.751)" fill="white"/>
<rect x="178.866" y="503.859" width="8.29861" height="11.3648" transform="rotate(-29 178.866 503.859)" fill="white"/>
<rect x="123.862" y="491.099" width="16.5972" height="16.7695" transform="rotate(-29 123.862 491.099)" fill="#5A5555"/>
<rect x="138.776" y="496.962" width="16.5972" height="16.7695" transform="rotate(-29 138.776 496.962)" fill="#5A5555"/>
<rect x="155.668" y="503.165" width="16.5972" height="16.7695" transform="rotate(-29 155.668 503.165)" fill="#5A5555"/>
<rect x="166.937" y="509.392" width="16.5972" height="16.7695" transform="rotate(-29 166.937 509.392)" fill="#5A5555"/>
<rect x="149.571" y="445.289" width="9.31189" height="10.147" transform="rotate(-29 149.571 445.289)" fill="#418403"/>
<rect x="152.733" y="466.587" width="9.31189" height="10.147" transform="rotate(-29 152.733 466.587)" fill="#418403"/>
<rect x="177.767" y="466.402" width="9.31189" height="10.147" transform="rotate(-29 177.767 466.402)" fill="#418403"/>
<rect x="131.496" y="520.17" width="9.31189" height="10.147" transform="rotate(-29 131.496 520.17)" fill="#418403"/>
<rect x="131.496" y="520.17" width="9.31189" height="10.147" transform="rotate(-29 131.496 520.17)" fill="#418403"/>
<rect x="131.496" y="520.17" width="9.31189" height="10.147" transform="rotate(-29 131.496 520.17)" fill="#418403"/>
<rect x="131.496" y="520.17" width="9.31189" height="10.147" transform="rotate(-29 131.496 520.17)" fill="#418403"/>
<rect x="109.18" y="549.679" width="5.81973" height="10.147" transform="rotate(-29 109.18 549.679)" fill="#418403"/>
<rect x="124.864" y="555.047" width="5.81973" height="10.147" transform="rotate(-29 124.864 555.047)" fill="#418403"/>
<rect x="131.496" y="520.17" width="9.31189" height="10.147" transform="rotate(-29 131.496 520.17)" fill="#418403"/>
<rect x="131.496" y="520.17" width="9.31189" height="10.147" transform="rotate(-29 131.496 520.17)" fill="#418403"/>
<rect x="104.88" y="522.109" width="9.31189" height="10.147" transform="rotate(-29 104.88 522.109)" fill="#418403"/>
<rect x="76.6871" y="555.374" width="30.5826" height="31.6526" transform="rotate(-29 76.6871 555.374)" fill="#C9FF1B"/>
<rect x="76.6871" y="555.374" width="30.5826" height="31.6526" transform="rotate(-29 76.6871 555.374)" fill="#C9FF1B"/>
<rect x="84.349" y="533.032" width="30.5826" height="31.6526" transform="rotate(-29 84.349 533.032)" fill="#C9FF1B"/>
<rect x="96.5034" y="518.944" width="30.5826" height="31.6526" transform="rotate(-29 96.5034 518.944)" fill="#C9FF1B"/>
<rect x="106.857" y="502.461" width="30.5826" height="31.6526" transform="rotate(-29 106.857 502.461)" fill="#C9FF1B"/>
<rect x="110.69" y="487.364" width="30.5826" height="31.6526" transform="rotate(-29 110.69 487.364)" fill="#C9FF1B"/>
<rect x="124.589" y="467.185" width="30.5826" height="31.6526" transform="rotate(-29 124.589 467.185)" fill="#C9FF1B"/>
<rect x="141.546" y="447.042" width="30.5826" height="31.6526" transform="rotate(-29 141.546 447.042)" fill="#C9FF1B"/>
<rect x="154.295" y="432.624" width="30.5826" height="31.6526" transform="rotate(-29 154.295 432.624)" fill="#C9FF1B"/>
<rect x="104.304" y="532.715" width="30.5826" height="31.6526" transform="rotate(-29 104.304 532.715)" fill="#C9FF1B"/>
<rect x="115.665" y="515.673" width="30.5826" height="31.6526" transform="rotate(-29 115.665 515.673)" fill="#C9FF1B"/>
<rect x="133.668" y="492.722" width="30.5826" height="31.6526" transform="rotate(-29 133.668 492.722)" fill="#C9FF1B"/>
<rect x="105.106" y="547.904" width="30.5826" height="31.6526" transform="rotate(-29 105.106 547.904)" fill="#C9FF1B"/>
<rect x="150.278" y="473.569" width="30.5826" height="31.6526" transform="rotate(-29 150.278 473.569)" fill="#C9FF1B"/>
<rect x="172.045" y="455.882" width="30.5826" height="31.6526" transform="rotate(-29 172.045 455.882)" fill="#C9FF1B"/>
<rect x="157.026" y="492.747" width="30.5826" height="31.6526" transform="rotate(-29 157.026 492.747)" fill="#C9FF1B"/>
<rect x="174.728" y="475.583" width="30.5826" height="31.6526" transform="rotate(-29 174.728 475.583)" fill="#C9FF1B"/>
<rect x="138.33" y="521.205" width="30.5826" height="31.6526" transform="rotate(-29 138.33 521.205)" fill="#C9FF1B"/>
<rect x="127.602" y="532.274" width="30.5826" height="31.6526" transform="rotate(-29 127.602 532.274)" fill="#C9FF1B"/>
<rect x="109.549" y="487.996" width="16.5972" height="16.7695" transform="rotate(-29 109.549 487.996)" fill="#5A5555"/>
<rect x="117.776" y="483.414" width="8.29861" height="11.3648" transform="rotate(-29 117.776 483.414)" fill="white"/>
<rect x="126.458" y="484.245" width="8.29861" height="11.3648" transform="rotate(-29 126.458 484.245)" fill="white"/>
<rect x="133.65" y="482.266" width="8.29861" height="11.3648" transform="rotate(-29 133.65 482.266)" fill="white"/>
<rect x="139.574" y="488.569" width="8.29861" height="11.3648" transform="rotate(-29 139.574 488.569)" fill="white"/>
<rect x="147.622" y="488.651" width="8.29861" height="11.3648" transform="rotate(-29 147.622 488.651)" fill="white"/>
<rect x="154.654" y="495.215" width="8.29861" height="11.3648" transform="rotate(-29 154.654 495.215)" fill="white"/>
<rect x="160.788" y="493.83" width="8.29861" height="11.3648" transform="rotate(-29 160.788 493.83)" fill="white"/>
<rect x="168.482" y="499.152" width="8.29861" height="11.3648" transform="rotate(-29 168.482 499.152)" fill="white"/>
<rect x="166.425" y="493.795" width="8.29861" height="11.3648" transform="rotate(-29 166.425 493.795)" fill="white"/>
<rect x="176.379" y="500.751" width="8.29861" height="11.3648" transform="rotate(-29 176.379 500.751)" fill="white"/>
<rect x="178.866" y="503.859" width="8.29861" height="11.3648" transform="rotate(-29 178.866 503.859)" fill="white"/>
<rect x="123.862" y="491.099" width="16.5972" height="16.7695" transform="rotate(-29 123.862 491.099)" fill="#5A5555"/>
<rect x="138.776" y="496.962" width="16.5972" height="16.7695" transform="rotate(-29 138.776 496.962)" fill="#5A5555"/>
<rect x="155.668" y="503.165" width="16.5972" height="16.7695" transform="rotate(-29 155.668 503.165)" fill="#5A5555"/>
<rect x="166.937" y="509.392" width="16.5972" height="16.7695" transform="rotate(-29 166.937 509.392)" fill="#5A5555"/>
<rect x="149.571" y="445.289" width="9.31189" height="10.147" transform="rotate(-29 149.571 445.289)" fill="#418403"/>
<rect x="152.733" y="466.587" width="9.31189" height="10.147" transform="rotate(-29 152.733 466.587)" fill="#418403"/>
<rect x="177.767" y="466.402" width="9.31189" height="10.147" transform="rotate(-29 177.767 466.402)" fill="#418403"/>
<rect x="131.496" y="520.17" width="9.31189" height="10.147" transform="rotate(-29 131.496 520.17)" fill="#418403"/>
<rect x="131.496" y="520.17" width="9.31189" height="10.147" transform="rotate(-29 131.496 520.17)" fill="#418403"/>
<rect x="131.496" y="520.17" width="9.31189" height="10.147" transform="rotate(-29 131.496 520.17)" fill="#418403"/>
<rect x="131.496" y="520.17" width="9.31189" height="10.147" transform="rotate(-29 131.496 520.17)" fill="#418403"/>
<rect x="109.18" y="549.679" width="5.81973" height="10.147" transform="rotate(-29 109.18 549.679)" fill="#418403"/>
<rect x="124.864" y="555.047" width="5.81973" height="10.147" transform="rotate(-29 124.864 555.047)" fill="#418403"/>
<rect x="131.496" y="520.17" width="9.31189" height="10.147" transform="rotate(-29 131.496 520.17)" fill="#418403"/>
<rect x="131.496" y="520.17" width="9.31189" height="10.147" transform="rotate(-29 131.496 520.17)" fill="#418403"/>
<rect x="104.88" y="522.109" width="9.31189" height="10.147" transform="rotate(-29 104.88 522.109)" fill="#418403"/>
<rect width="30.5826" height="31.6526" transform="matrix(-0.961262 0.275637 0.275637 0.961262 572.817 343.314)" fill="#C9FF1B"/>
<rect width="30.5826" height="31.6526" transform="matrix(-0.961262 0.275637 0.275637 0.961262 572.817 343.314)" fill="#C9FF1B"/>
<rect width="30.5826" height="31.6526" transform="matrix(-0.961262 0.275637 0.275637 0.961262 551.601 332.934)" fill="#C9FF1B"/>
<rect width="30.5826" height="31.6526" transform="matrix(-0.961262 0.275637 0.275637 0.961262 533.045 331.566)" fill="#C9FF1B"/>
<rect width="30.5826" height="31.6526" transform="matrix(-0.961262 0.275637 0.275637 0.961262 514.068 327.232)" fill="#C9FF1B"/>
<rect width="30.5826" height="31.6526" transform="matrix(-0.961262 0.275637 0.275637 0.961262 500.683 319.267)" fill="#C9FF1B"/>
<rect width="30.5826" height="31.6526" transform="matrix(-0.961262 0.275637 0.275637 0.961262 476.586 314.827)" fill="#C9FF1B"/>
<rect width="30.5826" height="31.6526" transform="matrix(-0.961262 0.275637 0.275637 0.961262 450.353 312.574)" fill="#C9FF1B"/>
<rect width="30.5826" height="31.6526" transform="matrix(-0.961262 0.275637 0.275637 0.961262 431.142 311.394)" fill="#C9FF1B"/>
<rect width="30.5826" height="31.6526" transform="matrix(-0.961262 0.275637 0.275637 0.961262 537.266 346.82)" fill="#C9FF1B"/>
<rect width="30.5826" height="31.6526" transform="matrix(-0.961262 0.275637 0.275637 0.961262 517.183 342.803)" fill="#C9FF1B"/>
<rect width="30.5826" height="31.6526" transform="matrix(-0.961262 0.275637 0.275637 0.961262 488.223 339.304)" fill="#C9FF1B"/>
<rect width="30.5826" height="31.6526" transform="matrix(-0.961262 0.275637 0.275637 0.961262 547.439 358.127)" fill="#C9FF1B"/>
<rect width="30.5826" height="31.6526" transform="matrix(-0.961262 0.275637 0.275637 0.961262 462.936 337.506)" fill="#C9FF1B"/>
<rect width="30.5826" height="31.6526" transform="matrix(-0.961262 0.275637 0.275637 0.961262 435.038 340.391)" fill="#C9FF1B"/>
<rect width="30.5826" height="31.6526" transform="matrix(-0.961262 0.275637 0.275637 0.961262 471.724 355.838)" fill="#C9FF1B"/>
<rect width="30.5826" height="31.6526" transform="matrix(-0.961262 0.275637 0.275637 0.961262 447.071 356.219)" fill="#C9FF1B"/>
<rect width="30.5826" height="31.6526" transform="matrix(-0.961262 0.275637 0.275637 0.961262 505.068 362.741)" fill="#C9FF1B"/>
<rect width="30.5826" height="31.6526" transform="matrix(-0.961262 0.275637 0.275637 0.961262 520.48 362.982)" fill="#C9FF1B"/>
<rect width="16.5972" height="16.7695" transform="matrix(-0.961262 0.275637 0.275637 0.961262 501.936 318.907)" fill="#5A5555"/>
<rect width="8.29861" height="11.3648" transform="matrix(-0.961262 0.275637 0.275637 0.961262 492.879 321.485)" fill="white"/>
<rect width="8.29861" height="11.3648" transform="matrix(-0.961262 0.275637 0.275637 0.961262 487.328 328.211)" fill="white"/>
<rect width="8.29861" height="11.3648" transform="matrix(-0.961262 0.275637 0.275637 0.961262 480.843 331.897)" fill="white"/>
<rect width="8.29861" height="11.3648" transform="matrix(-0.961262 0.275637 0.275637 0.961262 481.111 340.543)" fill="white"/>
<rect width="8.29861" height="11.3648" transform="matrix(-0.961262 0.275637 0.275637 0.961262 475.478 346.292)" fill="white"/>
<rect width="8.29861" height="11.3648" transform="matrix(-0.961262 0.275637 0.275637 0.961262 475.148 355.906)" fill="white"/>
<rect width="8.29861" height="11.3648" transform="matrix(-0.961262 0.275637 0.275637 0.961262 469.831 359.264)" fill="white"/>
<rect width="8.29861" height="11.3648" transform="matrix(-0.961262 0.275637 0.275637 0.961262 468.153 368.468)" fill="white"/>
<rect width="8.29861" height="11.3648" transform="matrix(-0.961262 0.275637 0.275637 0.961262 465.82 363.225)" fill="white"/>
<rect width="8.29861" height="11.3648" transform="matrix(-0.961262 0.275637 0.275637 0.961262 463.7 375.183)" fill="white"/>
<rect width="8.29861" height="11.3648" transform="matrix(-0.961262 0.275637 0.275637 0.961262 464.139 379.138)" fill="white"/>
<rect width="16.5972" height="16.7695" transform="matrix(-0.961262 0.275637 0.275637 0.961262 494.01 331.222)" fill="#5A5555"/>
<rect width="16.5972" height="16.7695" transform="matrix(-0.961262 0.275637 0.275637 0.961262 487.61 345.913)" fill="#5A5555"/>
<rect width="16.5972" height="16.7695" transform="matrix(-0.961262 0.275637 0.275637 0.961262 480.052 362.244)" fill="#5A5555"/>
<rect width="16.5972" height="16.7695" transform="matrix(-0.961262 0.275637 0.275637 0.961262 476.487 374.616)" fill="#5A5555"/>
<rect width="9.31189" height="10.147" transform="matrix(-0.961262 0.275637 0.275637 0.961262 443.439 317.008)" fill="#418403"/>
<rect width="9.31189" height="10.147" transform="matrix(-0.961262 0.275637 0.275637 0.961262 456.263 334.305)" fill="#418403"/>
<rect width="9.31189" height="10.147" transform="matrix(-0.961262 0.275637 0.275637 0.961262 438.43 351.875)" fill="#418403"/>
<rect width="9.31189" height="10.147" transform="matrix(-0.961262 0.275637 0.275637 0.961262 509.168 357.177)" fill="#418403"/>
<rect width="9.31189" height="10.147" transform="matrix(-0.961262 0.275637 0.275637 0.961262 509.168 357.177)" fill="#418403"/>
<rect width="9.31189" height="10.147" transform="matrix(-0.961262 0.275637 0.275637 0.961262 509.168 357.177)" fill="#418403"/>
<rect width="9.31189" height="10.147" transform="matrix(-0.961262 0.275637 0.275637 0.961262 509.168 357.177)" fill="#418403"/>
<rect width="5.81973" height="10.147" transform="matrix(-0.961262 0.275637 0.275637 0.961262 545.814 362.263)" fill="#418403"/>
<rect width="5.81973" height="10.147" transform="matrix(-0.961262 0.275637 0.275637 0.961262 538.519 377.149)" fill="#418403"/>
<rect width="9.31189" height="10.147" transform="matrix(-0.961262 0.275637 0.275637 0.961262 509.168 357.177)" fill="#418403"/>
<rect width="9.31189" height="10.147" transform="matrix(-0.961262 0.275637 0.275637 0.961262 509.168 357.177)" fill="#418403"/>
<rect width="9.31189" height="10.147" transform="matrix(-0.961262 0.275637 0.275637 0.961262 529.36 339.728)" fill="#418403"/>
<rect x="242.929" y="88.4068" width="5.87403" height="7.51538" fill="white"/>
<rect x="250.948" y="73.3293" width="5.87403" height="7.51538" fill="white"/>
<rect x="261.884" y="72.5152" width="5.87403" height="7.51538" fill="white"/>
<rect x="261.884" y="72.5152" width="5.87403" height="7.51538" fill="white"/>
<rect x="256.203" y="88.4068" width="5.87403" height="7.51538" fill="white"/>
<rect x="183.273" y="301.978" width="5.87403" height="7.51538" fill="white"/>
<rect x="191.633" y="308.816" width="5.87403" height="7.51538" fill="white"/>
<rect x="205.155" y="302.73" width="5.87403" height="7.51538" fill="white"/>
<rect x="215.005" y="308.816" width="5.87403" height="7.51538" fill="white"/>
<rect x="268.891" y="83.5629" width="5.87403" height="7.51538" fill="white"/>
<rect x="267.051" y="98.5145" width="5.87403" height="7.51538" fill="white"/>
<rect x="258.068" y="104.298" width="5.87403" height="7.51538" fill="white"/>
<rect x="247.839" y="100.016" width="5.87403" height="7.51538" fill="white"/>
<rect x="247.839" y="100.016" width="5.87403" height="7.51538" fill="white"/>
<defs>
<filter id="filter0_d_18_1276" x="107.168" y="133.455" width="25.8237" height="29.3567" filterUnits="userSpaceOnUse" color-interpolation-filters="sRGB">
<feFlood flood-opacity="0" result="BackgroundImageFix"/>
<feColorMatrix in="SourceAlpha" type="matrix" values="0 0 0 0 0 0 0 0 0 0 0 0 0 0 0 0 0 0 127 0" result="hardAlpha"/>
<feOffset dy="4"/>
<feGaussianBlur stdDeviation="2"/>
<feComposite in2="hardAlpha" operator="out"/>
<feColorMatrix type="matrix" values="0 0 0 0 0 0 0 0 0 0 0 0 0 0 0 0 0 0 0.25 0"/>
<feBlend mode="normal" in2="BackgroundImageFix" result="effect1_dropShadow_18_1276"/>
<feBlend mode="normal" in="SourceGraphic" in2="effect1_dropShadow_18_1276" result="shape"/>
</filter>
<filter id="filter1_d_18_1276" x="329.842" y="229.062" width="16.771" height="19.774" filterUnits="userSpaceOnUse" color-interpolation-filters="sRGB">
<feFlood flood-opacity="0" result="BackgroundImageFix"/>
<feColorMatrix in="SourceAlpha" type="matrix" values="0 0 0 0 0 0 0 0 0 0 0 0 0 0 0 0 0 0 127 0" result="hardAlpha"/>
<feOffset dy="4"/>
<feGaussianBlur stdDeviation="2"/>
<feComposite in2="hardAlpha" operator="out"/>
<feColorMatrix type="matrix" values="0 0 0 0 0 0 0 0 0 0 0 0 0 0 0 0 0 0 0.25 0"/>
<feBlend mode="normal" in2="BackgroundImageFix" result="effect1_dropShadow_18_1276"/>
<feBlend mode="normal" in="SourceGraphic" in2="effect1_dropShadow_18_1276" result="shape"/>
</filter>
<filter id="filter2_d_18_1276" x="34.7277" y="242.926" width="17.7324" height="18.5899" filterUnits="userSpaceOnUse" color-interpolation-filters="sRGB">
<feFlood flood-opacity="0" result="BackgroundImageFix"/>
<feColorMatrix in="SourceAlpha" type="matrix" values="0 0 0 0 0 0 0 0 0 0 0 0 0 0 0 0 0 0 127 0" result="hardAlpha"/>
<feOffset dy="4"/>
<feGaussianBlur stdDeviation="2"/>
<feComposite in2="hardAlpha" operator="out"/>
<feColorMatrix type="matrix" values="0 0 0 0 0 0 0 0 0 0 0 0 0 0 0 0 0 0 0.25 0"/>
<feBlend mode="normal" in2="BackgroundImageFix" result="effect1_dropShadow_18_1276"/>
<feBlend mode="normal" in="SourceGraphic" in2="effect1_dropShadow_18_1276" result="shape"/>
</filter>
<filter id="filter3_d_18_1276" x="39.2719" y="231.159" width="17.7324" height="18.5899" filterUnits="userSpaceOnUse" color-interpolation-filters="sRGB">
<feFlood flood-opacity="0" result="BackgroundImageFix"/>
<feColorMatrix in="SourceAlpha" type="matrix" values="0 0 0 0 0 0 0 0 0 0 0 0 0 0 0 0 0 0 127 0" result="hardAlpha"/>
<feOffset dy="4"/>
<feGaussianBlur stdDeviation="2"/>
<feComposite in2="hardAlpha" operator="out"/>
<feColorMatrix type="matrix" values="0 0 0 0 0 0 0 0 0 0 0 0 0 0 0 0 0 0 0.25 0"/>
<feBlend mode="normal" in2="BackgroundImageFix" result="effect1_dropShadow_18_1276"/>
<feBlend mode="normal" in="SourceGraphic" in2="effect1_dropShadow_18_1276" result="shape"/>
</filter>
<filter id="filter4_d_18_1276" x="47.4547" y="241.749" width="17.7324" height="18.5899" filterUnits="userSpaceOnUse" color-interpolation-filters="sRGB">
<feFlood flood-opacity="0" result="BackgroundImageFix"/>
<feColorMatrix in="SourceAlpha" type="matrix" values="0 0 0 0 0 0 0 0 0 0 0 0 0 0 0 0 0 0 127 0" result="hardAlpha"/>
<feOffset dy="4"/>
<feGaussianBlur stdDeviation="2"/>
<feComposite in2="hardAlpha" operator="out"/>
<feColorMatrix type="matrix" values="0 0 0 0 0 0 0 0 0 0 0 0 0 0 0 0 0 0 0.25 0"/>
<feBlend mode="normal" in2="BackgroundImageFix" result="effect1_dropShadow_18_1276"/>
<feBlend mode="normal" in="SourceGraphic" in2="effect1_dropShadow_18_1276" result="shape"/>
</filter>
<filter id="filter5_d_18_1276" x="370.116" y="126.993" width="17.7324" height="18.5899" filterUnits="userSpaceOnUse" color-interpolation-filters="sRGB">
<feFlood flood-opacity="0" result="BackgroundImageFix"/>
<feColorMatrix in="SourceAlpha" type="matrix" values="0 0 0 0 0 0 0 0 0 0 0 0 0 0 0 0 0 0 127 0" result="hardAlpha"/>
<feOffset dy="4"/>
<feGaussianBlur stdDeviation="2"/>
<feComposite in2="hardAlpha" operator="out"/>
<feColorMatrix type="matrix" values="0 0 0 0 0 0 0 0 0 0 0 0 0 0 0 0 0 0 0.25 0"/>
<feBlend mode="normal" in2="BackgroundImageFix" result="effect1_dropShadow_18_1276"/>
<feBlend mode="normal" in="SourceGraphic" in2="effect1_dropShadow_18_1276" result="shape"/>
</filter>
<filter id="filter6_d_18_1276" x="374.66" y="115.226" width="17.7324" height="18.5899" filterUnits="userSpaceOnUse" color-interpolation-filters="sRGB">
<feFlood flood-opacity="0" result="BackgroundImageFix"/>
<feColorMatrix in="SourceAlpha" type="matrix" values="0 0 0 0 0 0 0 0 0 0 0 0 0 0 0 0 0 0 127 0" result="hardAlpha"/>
<feOffset dy="4"/>
<feGaussianBlur stdDeviation="2"/>
<feComposite in2="hardAlpha" operator="out"/>
<feColorMatrix type="matrix" values="0 0 0 0 0 0 0 0 0 0 0 0 0 0 0 0 0 0 0.25 0"/>
<feBlend mode="normal" in2="BackgroundImageFix" result="effect1_dropShadow_18_1276"/>
<feBlend mode="normal" in="SourceGraphic" in2="effect1_dropShadow_18_1276" result="shape"/>
</filter>
<filter id="filter7_d_18_1276" x="382.843" y="125.816" width="17.7324" height="18.5899" filterUnits="userSpaceOnUse" color-interpolation-filters="sRGB">
<feFlood flood-opacity="0" result="BackgroundImageFix"/>
<feColorMatrix in="SourceAlpha" type="matrix" values="0 0 0 0 0 0 0 0 0 0 0 0 0 0 0 0 0 0 127 0" result="hardAlpha"/>
<feOffset dy="4"/>
<feGaussianBlur stdDeviation="2"/>
<feComposite in2="hardAlpha" operator="out"/>
<feColorMatrix type="matrix" values="0 0 0 0 0 0 0 0 0 0 0 0 0 0 0 0 0 0 0.25 0"/>
<feBlend mode="normal" in2="BackgroundImageFix" result="effect1_dropShadow_18_1276"/>
<feBlend mode="normal" in="SourceGraphic" in2="effect1_dropShadow_18_1276" result="shape"/>
</filter>
<linearGradient id="paint0_linear_18_1276" x1="222.318" y1="57.3741" x2="222.318" y2="334.66" gradientUnits="userSpaceOnUse">
<stop stop-color="#111110"/>
<stop offset="1" stop-color="#2F3329"/>
</linearGradient>
</defs>
</svg>
