<svg width="367" height="196" viewBox="0 0 367 196" fill="none" xmlns="http://www.w3.org/2000/svg">
<rect x="137.884" y="0.630493" width="64.2916" height="54.2906" fill="#867C7C"/>
<rect x="109.945" y="32.8186" width="64.2916" height="54.2906" fill="#867C7C"/>
<rect x="73.5922" y="41.9372" width="64.2916" height="54.2906" fill="#867C7C"/>
<rect x="53.9467" y="67.1084" width="64.2916" height="54.2906" fill="#867C7C"/>
<rect x="53.9467" y="67.1084" width="64.2916" height="54.2906" fill="#867C7C"/>
<rect x="0.143555" y="90.5945" width="70.228" height="36.2639" fill="#867C7C"/>
<rect x="105.738" y="114.255" width="64.2916" height="54.2906" fill="#867C7C"/>
<rect x="162.478" y="141.4" width="64.2916" height="54.2906" fill="#867C7C"/>
<rect x="66.0406" y="79.1173" width="64.2916" height="54.2906" fill="white"/>
<rect x="102.366" y="63.4491" width="64.2916" height="54.2906" fill="white"/>
<rect x="250.895" y="54.4358" width="64.2916" height="54.2906" fill="white"/>
<rect x="286.976" y="67.5251" width="56.4229" height="33.3147" fill="white"/>
<rect x="320.557" y="74.1111" width="45.6838" height="20.1426" fill="white"/>
<rect x="152.257" y="106.263" width="64.2916" height="54.2906" transform="rotate(180 152.257 106.263)" fill="white"/>
<rect x="91.6804" y="129.542" width="56.4229" height="33.3147" transform="rotate(180 91.6804 129.542)" fill="white"/>
<rect x="58.0994" y="121.015" width="45.6838" height="20.1426" transform="rotate(180 58.0994 121.015)" fill="white"/>
<rect x="217.49" y="51.972" width="64.2916" height="54.2906" fill="white"/>
<rect x="170.03" y="106.263" width="64.2916" height="54.2906" fill="white"/>
<rect x="191.831" y="36.3038" width="64.2916" height="54.2906" fill="white"/>
<rect x="162.244" y="100.872" width="64.2916" height="54.2906" fill="#C5EFF4"/>
<rect x="114.782" y="73.7267" width="64.2916" height="54.2906" fill="#C5EFF4"/>
<rect x="162.244" y="13.2344" width="64.2916" height="54.2906" fill="#C5EFF4"/>
<rect x="217.068" y="102.397" width="64.2916" height="54.2906" fill="#C5EFF4"/>
<rect x="149.978" y="13.2344" width="64.2916" height="54.2906" fill="white"/>
<rect x="130.332" y="46.5491" width="64.2916" height="54.2906" fill="white"/>
<rect x="202.175" y="90.5945" width="64.2916" height="54.2906" fill="white"/>
<rect x="142.091" y="66.7239" width="64.2916" height="54.2906" fill="white"/>
<rect x="109.945" y="106.263" width="64.2916" height="54.2906" fill="white"/>
<rect x="174.237" y="129.542" width="64.2916" height="54.2906" fill="white"/>
</svg>
