<svg width="674" height="330" viewBox="0 0 674 330" fill="none" xmlns="http://www.w3.org/2000/svg">
<g clip-path="url(#clip0_1242_2364)">
<path d="M291.995 124.324V121.373H302.881V118.308H312.358V116.245H313.672V26.6413C313.768 26.6413 316.009 26.6413 316.009 26.6413C316.009 26.6413 317.289 26.9277 317.289 27.7871C317.289 28.6465 330.736 27.7871 330.736 27.7871L332.081 26.584H333.49V25.209H345.465V26.3834H347.066V27.3575H360.513V25.209H363.073V115.472H366.596V117.85H376.841V120.6H382.925V123.149H664.355V213.125H0V125.469L291.995 124.324Z" stroke="black" stroke-miterlimit="10"/>
<path d="M356.67 47.5527C360.833 40.1049 348.986 32.9433 347.385 30.9381C345.785 28.9329 345.465 25.209 345.465 25.209H333.49C333.49 25.209 332.018 29.2194 329.776 31.2246C322.061 35.3782 320.908 42.6543 320.492 46.6933C320.3 48.5267 319.595 49.0709 319.211 48.9851L319.851 133.204H357.631V49.5579L356.67 47.5527Z" stroke="black" stroke-miterlimit="10"/>
<path d="M328.496 55.8587C328.496 55.8587 319.531 52.4212 324.333 44.4003C325.614 41.8223 334.899 39.5306 334.899 39.5306C334.899 39.5306 335.54 36.666 335.859 36.9524C336.18 37.2389 341.559 36.9238 341.559 36.9238L342.262 38.6712C342.262 38.6712 355.39 42.3951 354.749 48.4108C354.109 54.4264 350.075 55.8587 350.075 55.8587H328.496Z" stroke="black" stroke-miterlimit="10"/>
<path d="M347.385 54.4271C347.385 54.7135 329.776 55 329.776 55L330.417 53.8542C330.417 53.8542 330.257 47.8099 336.564 46.4062C337.365 45.862 338.837 44.6016 338.837 44.6016L339.701 45.5756C339.701 45.5756 347.354 47.0079 346.426 53.8829" stroke="black" stroke-miterlimit="10"/>
<path d="M291.995 124.324V121.373H302.881V118.308H312.358V116.245H313.672V26.6413C313.768 26.6413 316.009 26.6413 316.009 26.6413C316.009 26.6413 317.289 26.9277 317.289 27.7871C317.289 28.6465 330.736 27.7871 330.736 27.7871L332.081 26.584H333.49V25.209H345.465V26.3834H347.066V27.3575H360.513V25.209H363.073V115.472H366.596V117.85H376.841V120.6H382.925V123.149H664.355V213.125H0V125.469L291.995 124.324Z" stroke="black" stroke-miterlimit="10"/>
<path d="M277.908 155.262H226.681V171.361H277.908V155.262Z" stroke="black" stroke-miterlimit="10"/>
<path d="M277.908 157.438H226.681V168.295H277.908V157.438Z" stroke="black" stroke-miterlimit="10"/>
<path d="M277.908 157.438H264.046V168.295H277.908V157.438Z" stroke="black" stroke-miterlimit="10"/>
<path d="M270.225 159.414H264.302V161.763H270.225V159.414Z" stroke="black" stroke-miterlimit="10"/>
<path d="M277.908 159.414H271.665V161.763H277.908V159.414Z" stroke="black" stroke-miterlimit="10"/>
<path d="M269.904 164.801H264.046V168.295H269.904V164.801Z" stroke="black" stroke-miterlimit="10"/>
<path d="M277.908 164.801H271.665V168.295H277.908V164.801Z" stroke="black" stroke-miterlimit="10"/>
<path d="M278.741 187.059H227.642V201.583H278.741V187.059Z" stroke="black" stroke-miterlimit="10"/>
<path d="M235.133 188.777H229.243V193.16H235.133V188.777Z" stroke="black" stroke-miterlimit="10"/>
<path d="M238.368 195.539H232.189V198.431H238.368V195.539Z" stroke="black" stroke-miterlimit="10"/>
<path d="M242.306 188.777H236.734V194.305H242.306V188.777Z" stroke="black" stroke-miterlimit="10"/>
<path d="M270.992 188.777H265.518V193.16H270.992V188.777Z" stroke="black" stroke-miterlimit="10"/>
<path d="M276.947 188.777H272.402V193.16H276.947V188.777Z" stroke="black" stroke-miterlimit="10"/>
<path d="M274.803 196.051H268.24V200.09H274.803V196.051Z" stroke="black" stroke-miterlimit="10"/>
<path d="M243.043 145.865H227.642V150.477H243.043V145.865Z" stroke="black" stroke-miterlimit="10"/>
<path d="M231.452 147.068H227.642V149.818H231.452V147.068Z" stroke="black" stroke-miterlimit="10"/>
<path d="M278.613 145.865H263.212V150.477H278.613V145.865Z" stroke="black" stroke-miterlimit="10"/>
<path d="M267.022 147.355H263.212V150.105H267.022V147.355Z" stroke="black" stroke-miterlimit="10"/>
<path d="M243.073 177.662H227.674V182.274H243.073V177.662Z" stroke="black" stroke-miterlimit="10"/>
<path d="M231.484 178.865H227.674V181.615H231.484V178.865Z" stroke="black" stroke-miterlimit="10"/>
<path d="M278.613 177.662H263.212V182.274H278.613V177.662Z" stroke="black" stroke-miterlimit="10"/>
<path d="M267.022 178.865H263.212V181.615H267.022V178.865Z" stroke="black" stroke-miterlimit="10"/>
<path d="M452.242 156.32H401.014V172.419H452.242V156.32Z" stroke="black" stroke-miterlimit="10"/>
<path d="M452.242 158.469H401.014V169.325H452.242V158.469Z" stroke="black" stroke-miterlimit="10"/>
<path d="M452.242 158.469H438.378V169.325H452.242V158.469Z" stroke="black" stroke-miterlimit="10"/>
<path d="M444.558 160.475H438.634V162.824H444.558V160.475Z" stroke="black" stroke-miterlimit="10"/>
<path d="M452.274 160.475H446.031V162.824H452.274V160.475Z" stroke="black" stroke-miterlimit="10"/>
<path d="M444.237 165.83H438.378V169.325H444.237V165.83Z" stroke="black" stroke-miterlimit="10"/>
<path d="M452.274 165.83H446.031V169.325H452.274V165.83Z" stroke="black" stroke-miterlimit="10"/>
<path d="M453.074 188.117H401.975V202.641H453.074V188.117Z" stroke="black" stroke-miterlimit="10"/>
<path d="M409.467 189.836H403.576V194.218H409.467V189.836Z" stroke="black" stroke-miterlimit="10"/>
<path d="M412.7 196.568H406.521V199.462H412.7V196.568Z" stroke="black" stroke-miterlimit="10"/>
<path d="M416.639 189.836H411.068V195.364H416.639V189.836Z" stroke="black" stroke-miterlimit="10"/>
<path d="M445.326 189.836H439.851V194.218H445.326V189.836Z" stroke="black" stroke-miterlimit="10"/>
<path d="M451.313 189.836H446.767V194.218H451.313V189.836Z" stroke="black" stroke-miterlimit="10"/>
<path d="M449.136 197.113H442.572V201.152H449.136V197.113Z" stroke="black" stroke-miterlimit="10"/>
<path d="M417.375 146.924H401.975V151.536H417.375V146.924Z" stroke="black" stroke-miterlimit="10"/>
<path d="M405.785 148.1H401.975V150.85H405.785V148.1Z" stroke="black" stroke-miterlimit="10"/>
<path d="M452.977 146.924H437.578V151.536H452.977V146.924Z" stroke="black" stroke-miterlimit="10"/>
<path d="M441.388 148.387H437.578V151.137H441.388V148.387Z" stroke="black" stroke-miterlimit="10"/>
<path d="M417.439 178.723H402.038V183.335H417.439V178.723Z" stroke="black" stroke-miterlimit="10"/>
<path d="M405.848 179.895H402.038V182.645H405.848V179.895Z" stroke="black" stroke-miterlimit="10"/>
<path d="M452.977 178.723H437.578V183.335H452.977V178.723Z" stroke="black" stroke-miterlimit="10"/>
<path d="M441.388 179.895H437.578V182.645H441.388V179.895Z" stroke="black" stroke-miterlimit="10"/>
<path d="M34.5785 150.965H50.5551V166.148H34.5785V152.827V150.965Z" stroke="black" stroke-miterlimit="10"/>
<path d="M47.8656 152.539V164.856H34.7386V152.825L47.8656 152.539Z" stroke="black" stroke-miterlimit="10"/>
<path d="M38.3243 152.768V162.851H47.5132V152.768L38.3243 152.967L43.159 152.853V162.564H45.3041L45.208 152.796L43.159 152.853" stroke="black" stroke-miterlimit="10"/>
<path d="M295.614 137.93H210.449V213.125H295.614V137.93Z" stroke="black" stroke-miterlimit="10"/>
<path d="M469.339 138.76H384.173V213.955H469.339V138.76Z" stroke="black" stroke-miterlimit="10"/>
<path d="M216.307 129.91H0V133.921H207.214L208.975 131.973H212.434L216.307 129.91Z" stroke="black" stroke-miterlimit="10"/>
<path d="M466.489 129.939H663.426V133.406H471.773L466.489 129.939Z" stroke="black" stroke-miterlimit="10"/>
<path d="M188.356 172.219H174.717V203.758H188.356V172.219Z" stroke="black" stroke-miterlimit="10"/>
<path d="M156.019 172.592H142.38V204.131H156.019V172.592Z" stroke="black" stroke-miterlimit="10"/>
<path d="M117.279 172.592H103.639V204.131H117.279V172.592Z" stroke="black" stroke-miterlimit="10"/>
<path d="M84.1407 172.592H70.5015V204.131H84.1407V172.592Z" stroke="black" stroke-miterlimit="10"/>
<path d="M648.346 172.104H634.707V203.643H648.346V172.104Z" stroke="black" stroke-miterlimit="10"/>
<path d="M616.009 172.477H602.37V204.016H616.009V172.477Z" stroke="black" stroke-miterlimit="10"/>
<path d="M577.268 172.477H563.629V204.016H577.268V172.477Z" stroke="black" stroke-miterlimit="10"/>
<path d="M544.131 172.477H530.491V204.016H544.131V172.477Z" stroke="black" stroke-miterlimit="10"/>
<path d="M507.951 173.051H494.312V204.59H507.951V173.051Z" stroke="black" stroke-miterlimit="10"/>
<path d="M346.65 63.1641H331.217V75.9974H346.65V63.1641Z" stroke="black" stroke-miterlimit="10"/>
<path d="M337.3 72.3308L338.421 69.5808L340.822 66.6016L339.221 70.8125L337.3 72.3308Z" fill="black" stroke="black" stroke-miterlimit="10"/>
<path d="M339.413 71.472L336.725 69.8105L334.098 66.9746L338.261 69.4381L339.413 71.472Z" fill="black" stroke="black" stroke-miterlimit="10"/>
<path d="M291.995 124.324V121.373H302.881V118.308H312.358V116.245H313.672V26.6413C313.768 26.6413 316.009 26.6413 316.009 26.6413C316.009 26.6413 317.289 26.9277 317.289 27.7871C317.289 28.6465 330.736 27.7871 330.736 27.7871L332.081 26.584H333.49V25.209H345.465V26.3834H347.066V27.3575H360.513V25.209H363.073V115.472H366.596V117.85H376.841V120.6H382.925V123.149H664.355V213.125H0V125.469L291.995 124.324Z" stroke="black" stroke-miterlimit="10"/>
<path d="M356.67 47.5527C360.833 40.1049 348.986 32.9433 347.385 30.9381C345.785 28.9329 345.465 25.209 345.465 25.209H333.49C333.49 25.209 332.018 29.2194 329.776 31.2246C322.061 35.3782 320.908 42.6543 320.492 46.6933C320.3 48.5267 319.595 49.0709 319.211 48.9851L319.851 133.204H357.631V49.5579L356.67 47.5527Z" stroke="black" stroke-miterlimit="10"/>
<path d="M328.496 55.8587C328.496 55.8587 319.531 52.4212 324.333 44.4003C325.614 41.8223 334.899 39.5306 334.899 39.5306C334.899 39.5306 335.54 36.666 335.859 36.9524C336.18 37.2389 341.559 36.9238 341.559 36.9238L342.262 38.6712C342.262 38.6712 355.39 42.3951 354.749 48.4108C354.109 54.4264 350.075 55.8587 350.075 55.8587H328.496Z" stroke="black" stroke-miterlimit="10"/>
<path d="M347.385 54.4271C347.385 54.7135 329.776 55 329.776 55L330.417 53.8542C330.417 53.8542 330.257 47.8099 336.564 46.4062C337.365 45.862 338.837 44.6016 338.837 44.6016L339.701 45.5756C339.701 45.5756 347.354 47.0079 346.426 53.8829" stroke="black" stroke-miterlimit="10"/>
<path d="M291.995 124.324V121.373H302.881V118.308H312.358V116.245H313.672V26.6413C313.768 26.6413 316.009 26.6413 316.009 26.6413C316.009 26.6413 317.289 26.9277 317.289 27.7871C317.289 28.6465 330.736 27.7871 330.736 27.7871L332.081 26.584H333.49V25.209H345.465V26.3834H347.066V27.3575H360.513V25.209H363.073V115.472H366.596V117.85H376.841V120.6H382.925V123.149H664.355V213.125H0V125.469L291.995 124.324Z" stroke="black" stroke-miterlimit="10"/>
<path d="M314.696 133.203H363.298L364.034 211.979H314.696V133.203Z" stroke="black" stroke-miterlimit="10"/>
<path d="M324.845 152.539H318.731V166.289H324.845V152.539Z" stroke="black" stroke-miterlimit="10"/>
<path d="M331.889 152.539H325.774V166.289H331.889V152.539Z" stroke="black" stroke-miterlimit="10"/>
<path d="M338.932 152.539H332.818V166.289H338.932V152.539Z" stroke="black" stroke-miterlimit="10"/>
<path d="M345.977 152.539H339.861V166.289H345.977V152.539Z" stroke="black" stroke-miterlimit="10"/>
<path d="M353.021 152.539H346.905V166.289H353.021V152.539Z" stroke="black" stroke-miterlimit="10"/>
<path d="M360.064 152.539H353.95V166.289H360.064V152.539Z" stroke="black" stroke-miterlimit="10"/>
<path d="M324.942 135.926H318.826V149.676H324.942V135.926Z" stroke="black" stroke-miterlimit="10"/>
<path d="M331.986 135.926H325.871V149.676H331.986V135.926Z" stroke="black" stroke-miterlimit="10"/>
<path d="M339.029 135.926H332.914V149.676H339.029V135.926Z" stroke="black" stroke-miterlimit="10"/>
<path d="M346.073 135.926H339.958V149.676H346.073V135.926Z" stroke="black" stroke-miterlimit="10"/>
<path d="M353.116 135.926H347.001V149.676H353.116V135.926Z" stroke="black" stroke-miterlimit="10"/>
<path d="M360.161 135.926H354.045V149.676H360.161V135.926Z" stroke="black" stroke-miterlimit="10"/>
<path d="M325.261 178.609H319.147V192.359H325.261V178.609Z" stroke="black" stroke-miterlimit="10"/>
<path d="M332.305 178.609H326.19V192.359H332.305V178.609Z" stroke="black" stroke-miterlimit="10"/>
<path d="M339.348 178.609H333.234V192.359H339.348V178.609Z" stroke="black" stroke-miterlimit="10"/>
<path d="M346.393 178.609H340.277V192.359H346.393V178.609Z" stroke="black" stroke-miterlimit="10"/>
<path d="M353.437 178.609H347.322V192.359H353.437V178.609Z" stroke="black" stroke-miterlimit="10"/>
<path d="M360.48 178.609H354.366V192.359H360.48V178.609Z" stroke="black" stroke-miterlimit="10"/>
<path d="M222.359 126.758L212.434 131.914H224.12L212.434 137.213H294.59L296.926 133.203H314.696V128.792H240.929L239.519 126.758H222.359Z" stroke="black" stroke-miterlimit="10"/>
<path d="M364.034 129.308H447.727V126.959H460.246L471.773 132.488H457.044L467.93 137.93H384.686L380.011 133.748H364.034V129.308Z" stroke="black" stroke-miterlimit="10"/>
<path d="M49.6584 141.941H36.0192V146.123H49.6584V141.941Z" stroke="black" stroke-miterlimit="10"/>
<path d="M41.462 145.665V142.227H44.5356V145.665C44.5356 145.665 40.8217 145.092 41.462 145.665Z" stroke="black" stroke-miterlimit="10"/>
<path d="M69.2209 151.279H85.1975V166.462H69.2209V153.143V151.279Z" stroke="black" stroke-miterlimit="10"/>
<path d="M82.5079 152.855V165.174H69.3809V153.143L82.5079 152.855Z" stroke="black" stroke-miterlimit="10"/>
<path d="M72.9669 153.055V163.167H82.1558V153.055L72.9669 153.284L77.8014 153.169V162.88H79.9465L79.8825 153.111L77.8014 153.169" stroke="black" stroke-miterlimit="10"/>
<path d="M84.301 142.256H70.6617V146.439H84.301V142.256Z" stroke="black" stroke-miterlimit="10"/>
<path d="M76.1045 145.98V142.543H79.1781V145.98C79.1781 145.98 75.4642 145.407 76.1045 145.98Z" stroke="black" stroke-miterlimit="10"/>
<path d="M103.671 150.879H119.648V166.06H103.671V152.769V150.879Z" stroke="black" stroke-miterlimit="10"/>
<path d="M116.958 152.453V164.772H103.831V152.768L116.958 152.453Z" stroke="black" stroke-miterlimit="10"/>
<path d="M107.417 152.684V162.767H116.606V152.684L107.417 152.885L112.252 152.799V162.48H114.397L114.301 152.741L112.252 152.799" stroke="black" stroke-miterlimit="10"/>
<path d="M118.751 141.855H105.112V146.038H118.751V141.855Z" stroke="black" stroke-miterlimit="10"/>
<path d="M110.555 145.577V142.141H113.629V145.577C113.629 145.577 109.915 145.034 110.555 145.577Z" stroke="black" stroke-miterlimit="10"/>
<path d="M141.259 150.277H157.236V165.46H141.259V152.169V150.277Z" stroke="black" stroke-miterlimit="10"/>
<path d="M154.546 151.852V164.17H141.419V152.167L154.546 151.852Z" stroke="black" stroke-miterlimit="10"/>
<path d="M145.005 152.08V162.164H154.195V152.08L145.005 152.281L149.839 152.166V161.877H151.986L151.889 152.138L149.839 152.166" stroke="black" stroke-miterlimit="10"/>
<path d="M156.339 141.254H142.699V145.437H156.339V141.254Z" stroke="black" stroke-miterlimit="10"/>
<path d="M148.143 144.978V141.541H151.217V144.978C151.217 144.978 147.503 144.405 148.143 144.978Z" stroke="black" stroke-miterlimit="10"/>
<path d="M173.276 150.562H189.253V165.745H173.276V152.454V150.562Z" stroke="black" stroke-miterlimit="10"/>
<path d="M186.564 152.139V164.456H173.437V152.454L186.564 152.139Z" stroke="black" stroke-miterlimit="10"/>
<path d="M177.022 152.367V162.451H186.211V152.367L177.022 152.567L181.857 152.453V162.164H184.002L183.906 152.425L181.857 152.453" stroke="black" stroke-miterlimit="10"/>
<path d="M188.356 141.541H174.717V145.722H188.356V141.541Z" stroke="black" stroke-miterlimit="10"/>
<path d="M180.16 145.265V141.828H183.234V145.265C183.234 145.265 179.519 144.692 180.16 145.265Z" stroke="black" stroke-miterlimit="10"/>
<path d="M493.737 150.477H509.712V165.659H493.737V152.339V150.477Z" stroke="black" stroke-miterlimit="10"/>
<path d="M507.022 152.053V164.37H493.896V152.338L507.022 152.053Z" stroke="black" stroke-miterlimit="10"/>
<path d="M497.482 152.254V162.366H506.671V152.254L497.482 152.455L502.317 152.368V162.08H504.462L504.365 152.312L502.317 152.368" stroke="black" stroke-miterlimit="10"/>
<path d="M508.815 141.453H495.177V145.636H508.815V141.453Z" stroke="black" stroke-miterlimit="10"/>
<path d="M500.619 145.178V141.74H503.693V145.178C503.693 145.178 499.979 144.606 500.619 145.178Z" stroke="black" stroke-miterlimit="10"/>
<path d="M528.378 150.764H544.355V165.945H528.378V152.654V150.764Z" stroke="black" stroke-miterlimit="10"/>
<path d="M541.665 152.34V164.657H528.538V152.654L541.665 152.34Z" stroke="black" stroke-miterlimit="10"/>
<path d="M532.124 152.568V162.652H541.345V152.568L532.124 152.77L536.959 152.654V162.366H539.105L539.04 152.626L536.959 152.654" stroke="black" stroke-miterlimit="10"/>
<path d="M543.458 141.74H529.82V145.923H543.458V141.74Z" stroke="black" stroke-miterlimit="10"/>
<path d="M535.262 145.464V142.025H538.336V145.464C538.336 145.464 534.622 144.889 535.262 145.464Z" stroke="black" stroke-miterlimit="10"/>
<path d="M562.828 150.391H578.805V165.573H562.828V152.253V150.391Z" stroke="black" stroke-miterlimit="10"/>
<path d="M576.115 151.967V164.284H562.989V152.254L576.115 151.967Z" stroke="black" stroke-miterlimit="10"/>
<path d="M566.575 152.195V162.279H575.764V152.195L566.575 152.397L571.41 152.281V161.992H573.554L573.458 152.223L571.41 152.281" stroke="black" stroke-miterlimit="10"/>
<path d="M577.908 141.367H564.27V145.55H577.908V141.367Z" stroke="black" stroke-miterlimit="10"/>
<path d="M569.712 145.091V141.654H572.785V145.091C572.785 145.091 569.072 144.518 569.712 145.091Z" stroke="black" stroke-miterlimit="10"/>
<path d="M600.417 149.789H616.394V164.972H600.417V151.651V149.789Z" stroke="black" stroke-miterlimit="10"/>
<path d="M613.704 151.365V163.683H600.577V151.651L613.704 151.365Z" stroke="black" stroke-miterlimit="10"/>
<path d="M604.163 151.566V161.678H613.351V151.566L604.163 151.796L608.997 151.682V161.393H611.142L611.047 151.624L608.997 151.682" stroke="black" stroke-miterlimit="10"/>
<path d="M615.496 140.766H601.857V144.947H615.496V140.766Z" stroke="black" stroke-miterlimit="10"/>
<path d="M607.301 144.489V141.051H610.374V144.489C610.374 144.489 606.661 143.916 607.301 144.489Z" stroke="black" stroke-miterlimit="10"/>
<path d="M632.434 150.076H648.41V165.259H632.434V151.938V150.076Z" stroke="black" stroke-miterlimit="10"/>
<path d="M645.721 151.652V163.97H632.594V151.938L645.721 151.652Z" stroke="black" stroke-miterlimit="10"/>
<path d="M636.18 151.852V161.964H645.369V151.852L636.18 152.081L641.014 151.967V161.678H643.16L643.063 151.909L641.014 151.967" stroke="black" stroke-miterlimit="10"/>
<path d="M647.514 141.051H633.875V145.233H647.514V141.051Z" stroke="black" stroke-miterlimit="10"/>
<path d="M642.647 141.367H638.549V145.091H642.647V141.367Z" stroke="black" stroke-miterlimit="10"/>
<path d="M327.375 60.0137V72.3314H324.845V77.8314H322.925V133.204H354.782V78.0892H353.021V73.2194L351.803 72.1308V60.0137H327.375Z" stroke="black" stroke-miterlimit="10"/>
<path d="M328.016 84.9355H350.075V130.511H347.385V114.355H331.216V131.972H328.016V84.9355Z" stroke="black" stroke-miterlimit="10"/>
<path d="M345.977 87.8008H332.177V89.5195H345.977V87.8008Z" stroke="black" stroke-miterlimit="10"/>
<path d="M345.977 92.0977H332.177V93.8163H345.977V92.0977Z" stroke="black" stroke-miterlimit="10"/>
<path d="M345.977 96.6797H332.177V98.3985H345.977V96.6797Z" stroke="black" stroke-miterlimit="10"/>
<path d="M345.977 101.551H332.177V103.269H345.977V101.551Z" stroke="black" stroke-miterlimit="10"/>
<path d="M345.977 105.848H332.177V107.566H345.977V105.848Z" stroke="black" stroke-miterlimit="10"/>
<path d="M347.385 87.0254H329.776V110.801H347.385V87.0254Z" stroke="black" stroke-miterlimit="10"/>
<path d="M-21.4515 143.861C-21.4515 143.861 -18.602 141.913 -15.2402 143.861C-11.8464 145.809 -15.6885 136.93 -12.4868 137.216C-9.28504 137.503 -6.40351 132.633 -5.44298 128.622C-4.48247 124.612 -3.84213 134.065 -7.65859e-05 137.932C3.84198 141.799 -3.81012 130.312 3.87399 125.471C11.526 120.601 4.41825 130.054 6.2112 129.911C8.00415 129.768 12.3905 124.383 13.5431 124.067C14.6958 123.752 15.0479 130.341 19.5304 139.794C24.0127 149.247 13.4472 135.555 16.4887 141.255C19.5304 146.956 10.9818 158.184 15.9124 158.156C20.811 158.128 23.5965 159.044 24.1409 164.458C24.653 169.872 27.4706 150.966 27.6628 159.417C27.8548 167.867 21.4514 169.701 34.7385 171.361C48.0256 173.023 53.4685 173.883 53.4685 184.195C53.4685 194.508 52.7641 209.117 57.5987 200.094C62.4332 191.07 66.1152 177.663 66.1152 177.663C66.1152 177.663 68.7726 192.016 72.9669 201.555C77.1611 211.094 76.0406 213.098 76.0406 213.098H-21.4515V144.979" stroke="black" stroke-miterlimit="10"/>
<path d="M45.8507 270.974V254.072H47.8317L59.017 267.956H57.9782V254.072H60.394V270.974H58.4131L47.2277 257.09H48.2665V270.974H45.8507ZM73.0658 270.974V268.27L72.945 267.763V263.151C72.945 262.169 72.6551 261.412 72.0753 260.881C71.5116 260.334 70.658 260.06 69.5145 260.06C68.7575 260.06 68.0167 260.189 67.2919 260.446C66.5672 260.688 65.9552 261.018 65.4559 261.436L64.4896 259.698C65.1499 259.167 65.9391 258.764 66.8571 258.49C67.7912 258.201 68.7656 258.056 69.7802 258.056C71.5357 258.056 72.8886 258.482 73.8388 259.336C74.7891 260.189 75.2642 261.493 75.2642 263.247V270.974H73.0658ZM68.8622 271.119C67.912 271.119 67.0745 270.958 66.3498 270.636C65.6411 270.314 65.0935 269.871 64.707 269.308C64.3205 268.728 64.1272 268.077 64.1272 267.352C64.1272 266.66 64.2882 266.032 64.6103 265.469C64.9486 264.905 65.4881 264.455 66.229 264.117C66.9859 263.778 68.0006 263.609 69.2729 263.609H73.3315V265.276H69.3695C68.2099 265.276 67.4288 265.469 67.0262 265.855C66.6235 266.241 66.4222 266.708 66.4222 267.256C66.4222 267.883 66.6719 268.39 67.1711 268.777C67.6704 269.147 68.3629 269.332 69.2488 269.332C70.1185 269.332 70.8754 269.139 71.5196 268.753C72.18 268.366 72.6551 267.803 72.945 267.062L73.404 268.656C73.098 269.413 72.5585 270.016 71.7854 270.467C71.0123 270.902 70.0379 271.119 68.8622 271.119ZM83.9529 271.119C82.6644 271.119 81.6659 270.773 80.9572 270.081C80.2486 269.388 79.8943 268.398 79.8943 267.111V255.376H82.2135V267.014C82.2135 267.706 82.3826 268.238 82.7208 268.608C83.0751 268.978 83.5744 269.163 84.2186 269.163C84.9434 269.163 85.5473 268.962 86.0305 268.559L86.7552 270.226C86.4009 270.531 85.9741 270.757 85.4749 270.902C84.9917 271.047 84.4844 271.119 83.9529 271.119ZM77.72 260.084V258.177H85.8856V260.084H77.72ZM89.5591 270.974V258.177H91.8783V270.974H89.5591ZM90.7187 255.714C90.2677 255.714 89.8893 255.569 89.5833 255.279C89.2934 254.989 89.1484 254.635 89.1484 254.217C89.1484 253.782 89.2934 253.42 89.5833 253.13C89.8893 252.84 90.2677 252.695 90.7187 252.695C91.1697 252.695 91.5401 252.84 91.83 253.13C92.136 253.404 92.289 253.75 92.289 254.168C92.289 254.603 92.144 254.973 91.8541 255.279C91.5642 255.569 91.1858 255.714 90.7187 255.714ZM101.79 271.119C100.502 271.119 99.3584 270.837 98.3599 270.274C97.3613 269.71 96.5721 268.938 95.9923 267.956C95.4125 266.958 95.1226 265.831 95.1226 264.575C95.1226 263.304 95.4125 262.177 95.9923 261.195C96.5721 260.213 97.3613 259.448 98.3599 258.901C99.3584 258.338 100.502 258.056 101.79 258.056C103.063 258.056 104.198 258.338 105.197 258.901C106.211 259.448 107 260.213 107.564 261.195C108.144 262.161 108.434 263.288 108.434 264.575C108.434 265.847 108.144 266.974 107.564 267.956C107 268.938 106.211 269.71 105.197 270.274C104.198 270.837 103.063 271.119 101.79 271.119ZM101.79 269.091C102.612 269.091 103.345 268.906 103.989 268.535C104.649 268.165 105.164 267.642 105.535 266.966C105.905 266.274 106.091 265.477 106.091 264.575C106.091 263.658 105.905 262.869 105.535 262.209C105.164 261.533 104.649 261.01 103.989 260.639C103.345 260.269 102.612 260.084 101.79 260.084C100.969 260.084 100.236 260.269 99.5919 260.639C98.9477 261.01 98.4323 261.533 98.0458 262.209C97.6593 262.869 97.466 263.658 97.466 264.575C97.466 265.477 97.6593 266.274 98.0458 266.966C98.4323 267.642 98.9477 268.165 99.5919 268.535C100.236 268.906 100.969 269.091 101.79 269.091ZM118.478 258.056C119.525 258.056 120.443 258.257 121.232 258.659C122.037 259.062 122.666 259.674 123.117 260.495C123.568 261.316 123.793 262.354 123.793 263.609V270.974H121.474V263.875C121.474 262.636 121.168 261.702 120.556 261.074C119.96 260.446 119.114 260.132 118.019 260.132C117.198 260.132 116.481 260.293 115.869 260.615C115.257 260.937 114.782 261.412 114.444 262.04C114.122 262.668 113.961 263.448 113.961 264.382V270.974H111.641V258.177H113.864V261.629L113.502 260.712C113.92 259.875 114.564 259.223 115.434 258.756C116.304 258.289 117.319 258.056 118.478 258.056ZM136.033 270.974V268.27L135.912 267.763V263.151C135.912 262.169 135.623 261.412 135.043 260.881C134.479 260.334 133.625 260.06 132.482 260.06C131.725 260.06 130.984 260.189 130.259 260.446C129.535 260.688 128.923 261.018 128.423 261.436L127.457 259.698C128.117 259.167 128.907 258.764 129.825 258.49C130.759 258.201 131.733 258.056 132.748 258.056C134.503 258.056 135.856 258.482 136.806 259.336C137.757 260.189 138.232 261.493 138.232 263.247V270.974H136.033ZM131.83 271.119C130.879 271.119 130.042 270.958 129.317 270.636C128.609 270.314 128.061 269.871 127.674 269.308C127.288 268.728 127.095 268.077 127.095 267.352C127.095 266.66 127.256 266.032 127.578 265.469C127.916 264.905 128.456 264.455 129.196 264.117C129.953 263.778 130.968 263.609 132.24 263.609H136.299V265.276H132.337C131.177 265.276 130.396 265.469 129.994 265.855C129.591 266.241 129.39 266.708 129.39 267.256C129.39 267.883 129.639 268.39 130.139 268.777C130.638 269.147 131.33 269.332 132.216 269.332C133.086 269.332 133.843 269.139 134.487 268.753C135.147 268.366 135.623 267.803 135.912 267.062L136.371 268.656C136.065 269.413 135.526 270.016 134.753 270.467C133.98 270.902 133.005 271.119 131.83 271.119ZM142.523 270.974V253.058H144.843V270.974H142.523ZM156.097 270.974V254.072H158.512V270.974H156.097ZM170.074 258.056C171.12 258.056 172.038 258.257 172.828 258.659C173.633 259.062 174.261 259.674 174.712 260.495C175.163 261.316 175.388 262.354 175.388 263.609V270.974H173.069V263.875C173.069 262.636 172.763 261.702 172.151 261.074C171.555 260.446 170.71 260.132 169.615 260.132C168.793 260.132 168.076 260.293 167.464 260.615C166.852 260.937 166.377 261.412 166.039 262.04C165.717 262.668 165.556 263.448 165.556 264.382V270.974H163.237V258.177H165.459V261.629L165.097 260.712C165.516 259.875 166.16 259.223 167.03 258.756C167.899 258.289 168.914 258.056 170.074 258.056ZM183.353 271.119C182.29 271.119 181.275 270.974 180.309 270.684C179.358 270.395 178.61 270.04 178.062 269.622L179.028 267.787C179.576 268.157 180.252 268.471 181.058 268.728C181.863 268.986 182.684 269.115 183.522 269.115C184.601 269.115 185.374 268.962 185.841 268.656C186.324 268.35 186.566 267.924 186.566 267.376C186.566 266.974 186.421 266.66 186.131 266.435C185.841 266.209 185.454 266.04 184.971 265.928C184.504 265.815 183.981 265.718 183.401 265.638C182.821 265.541 182.241 265.428 181.662 265.3C181.082 265.155 180.55 264.962 180.067 264.72C179.584 264.463 179.197 264.117 178.907 263.682C178.618 263.231 178.473 262.636 178.473 261.895C178.473 261.122 178.69 260.446 179.125 259.867C179.56 259.287 180.172 258.845 180.961 258.539C181.766 258.217 182.716 258.056 183.812 258.056C184.649 258.056 185.495 258.16 186.348 258.37C187.218 258.563 187.927 258.845 188.474 259.215L187.484 261.05C186.904 260.664 186.3 260.398 185.672 260.253C185.044 260.108 184.416 260.036 183.787 260.036C182.773 260.036 182.016 260.205 181.517 260.543C181.017 260.865 180.768 261.283 180.768 261.798C180.768 262.233 180.913 262.571 181.203 262.813C181.509 263.038 181.895 263.215 182.362 263.344C182.845 263.473 183.377 263.585 183.957 263.682C184.536 263.762 185.116 263.875 185.696 264.02C186.276 264.149 186.799 264.334 187.266 264.575C187.749 264.817 188.136 265.155 188.426 265.589C188.732 266.024 188.885 266.604 188.885 267.328C188.885 268.101 188.659 268.769 188.208 269.332C187.757 269.896 187.121 270.338 186.3 270.66C185.479 270.966 184.496 271.119 183.353 271.119ZM196.181 271.119C194.892 271.119 193.894 270.773 193.185 270.081C192.476 269.388 192.122 268.398 192.122 267.111V255.376H194.441V267.014C194.441 267.706 194.61 268.238 194.949 268.608C195.303 268.978 195.802 269.163 196.446 269.163C197.171 269.163 197.775 268.962 198.258 268.559L198.983 270.226C198.629 270.531 198.202 270.757 197.703 270.902C197.219 271.047 196.712 271.119 196.181 271.119ZM189.948 260.084V258.177H198.113V260.084H189.948ZM201.787 270.974V258.177H204.106V270.974H201.787ZM202.946 255.714C202.495 255.714 202.117 255.569 201.811 255.279C201.521 254.989 201.376 254.635 201.376 254.217C201.376 253.782 201.521 253.42 201.811 253.13C202.117 252.84 202.495 252.695 202.946 252.695C203.397 252.695 203.768 252.84 204.058 253.13C204.364 253.404 204.517 253.75 204.517 254.168C204.517 254.603 204.372 254.973 204.082 255.279C203.792 255.569 203.413 255.714 202.946 255.714ZM212.93 271.119C211.642 271.119 210.644 270.773 209.935 270.081C209.226 269.388 208.872 268.398 208.872 267.111V255.376H211.191V267.014C211.191 267.706 211.36 268.238 211.698 268.608C212.053 268.978 212.552 269.163 213.196 269.163C213.921 269.163 214.525 268.962 215.008 268.559L215.733 270.226C215.379 270.531 214.952 270.757 214.452 270.902C213.969 271.047 213.462 271.119 212.93 271.119ZM206.698 260.084V258.177H214.863V260.084H206.698ZM223.925 271.119C222.83 271.119 221.864 270.918 221.026 270.515C220.205 270.113 219.561 269.501 219.094 268.68C218.643 267.843 218.417 266.797 218.417 265.541V258.177H220.736V265.276C220.736 266.531 221.034 267.473 221.63 268.101C222.242 268.728 223.096 269.042 224.191 269.042C224.996 269.042 225.697 268.881 226.293 268.559C226.889 268.221 227.348 267.738 227.67 267.111C227.992 266.467 228.153 265.694 228.153 264.793V258.177H230.472V270.974H228.274V267.521L228.636 268.439C228.217 269.292 227.589 269.952 226.752 270.419C225.914 270.886 224.972 271.119 223.925 271.119ZM239.283 271.119C237.995 271.119 236.996 270.773 236.288 270.081C235.579 269.388 235.225 268.398 235.225 267.111V255.376H237.544V267.014C237.544 267.706 237.713 268.238 238.051 268.608C238.405 268.978 238.905 269.163 239.549 269.163C240.274 269.163 240.878 268.962 241.361 268.559L242.086 270.226C241.731 270.531 241.304 270.757 240.805 270.902C240.322 271.047 239.815 271.119 239.283 271.119ZM233.05 260.084V258.177H241.216V260.084H233.05ZM250.167 271.119C248.798 271.119 247.59 270.837 246.543 270.274C245.512 269.71 244.707 268.938 244.127 267.956C243.563 266.974 243.281 265.847 243.281 264.575C243.281 263.304 243.555 262.177 244.103 261.195C244.667 260.213 245.432 259.448 246.398 258.901C247.38 258.338 248.484 258.056 249.708 258.056C250.948 258.056 252.043 258.329 252.993 258.877C253.943 259.424 254.684 260.197 255.216 261.195C255.763 262.177 256.037 263.328 256.037 264.648C256.037 264.744 256.029 264.857 256.013 264.986C256.013 265.115 256.005 265.235 255.989 265.348H245.093V263.682H254.781L253.839 264.261C253.855 263.44 253.686 262.708 253.331 262.064C252.977 261.42 252.486 260.921 251.858 260.567C251.246 260.197 250.529 260.012 249.708 260.012C248.902 260.012 248.186 260.197 247.557 260.567C246.929 260.921 246.438 261.428 246.084 262.088C245.729 262.732 245.552 263.473 245.552 264.31V264.696C245.552 265.549 245.746 266.314 246.132 266.99C246.535 267.65 247.09 268.165 247.799 268.535C248.508 268.906 249.321 269.091 250.239 269.091C250.996 269.091 251.681 268.962 252.293 268.704C252.921 268.447 253.468 268.06 253.935 267.545L255.216 269.042C254.636 269.718 253.911 270.234 253.041 270.588C252.188 270.942 251.23 271.119 250.167 271.119ZM271.229 271.119C269.94 271.119 268.797 270.837 267.798 270.274C266.8 269.71 266.01 268.938 265.431 267.956C264.851 266.958 264.561 265.831 264.561 264.575C264.561 263.304 264.851 262.177 265.431 261.195C266.01 260.213 266.8 259.448 267.798 258.901C268.797 258.338 269.94 258.056 271.229 258.056C272.501 258.056 273.636 258.338 274.635 258.901C275.65 259.448 276.439 260.213 277.003 261.195C277.582 262.161 277.872 263.288 277.872 264.575C277.872 265.847 277.582 266.974 277.003 267.956C276.439 268.938 275.65 269.71 274.635 270.274C273.636 270.837 272.501 271.119 271.229 271.119ZM271.229 269.091C272.05 269.091 272.783 268.906 273.427 268.535C274.087 268.165 274.603 267.642 274.973 266.966C275.344 266.274 275.529 265.477 275.529 264.575C275.529 263.658 275.344 262.869 274.973 262.209C274.603 261.533 274.087 261.01 273.427 260.639C272.783 260.269 272.05 260.084 271.229 260.084C270.407 260.084 269.674 260.269 269.03 260.639C268.386 261.01 267.871 261.533 267.484 262.209C267.098 262.869 266.904 263.658 266.904 264.575C266.904 265.477 267.098 266.274 267.484 266.966C267.871 267.642 268.386 268.165 269.03 268.535C269.674 268.906 270.407 269.091 271.229 269.091ZM281.418 270.974V257.042C281.418 255.786 281.781 254.788 282.505 254.048C283.246 253.291 284.293 252.913 285.646 252.913C286.145 252.913 286.62 252.977 287.071 253.106C287.538 253.218 287.933 253.404 288.255 253.661L287.554 255.424C287.313 255.231 287.039 255.086 286.733 254.989C286.427 254.877 286.105 254.82 285.767 254.82C285.09 254.82 284.575 255.013 284.221 255.4C283.866 255.77 283.689 256.325 283.689 257.066V258.78L283.737 259.843V270.974H281.418ZM279.244 260.084V258.177H287.409V260.084H279.244ZM299.781 270.974V256.172H293.983V254.072H307.971V256.172H302.173V270.974H299.781ZM314.644 271.119C313.275 271.119 312.067 270.837 311.02 270.274C309.989 269.71 309.184 268.938 308.604 267.956C308.041 266.974 307.759 265.847 307.759 264.575C307.759 263.304 308.033 262.177 308.58 261.195C309.144 260.213 309.909 259.448 310.875 258.901C311.858 258.338 312.961 258.056 314.185 258.056C315.425 258.056 316.52 258.329 317.47 258.877C318.421 259.424 319.162 260.197 319.693 261.195C320.241 262.177 320.514 263.328 320.514 264.648C320.514 264.744 320.506 264.857 320.49 264.986C320.49 265.115 320.482 265.235 320.466 265.348H309.571V263.682H319.258L318.316 264.261C318.332 263.44 318.163 262.708 317.809 262.064C317.454 261.42 316.963 260.921 316.335 260.567C315.723 260.197 315.006 260.012 314.185 260.012C313.38 260.012 312.663 260.197 312.035 260.567C311.407 260.921 310.915 261.428 310.561 262.088C310.207 262.732 310.03 263.473 310.03 264.31V264.696C310.03 265.549 310.223 266.314 310.609 266.99C311.012 267.65 311.568 268.165 312.276 268.535C312.985 268.906 313.798 269.091 314.716 269.091C315.473 269.091 316.158 268.962 316.77 268.704C317.398 268.447 317.946 268.06 318.413 267.545L319.693 269.042C319.113 269.718 318.388 270.234 317.519 270.588C316.665 270.942 315.707 271.119 314.644 271.119ZM329.315 271.119C328.01 271.119 326.843 270.837 325.812 270.274C324.797 269.71 324 268.938 323.42 267.956C322.84 266.974 322.55 265.847 322.55 264.575C322.55 263.304 322.84 262.177 323.42 261.195C324 260.213 324.797 259.448 325.812 258.901C326.843 258.338 328.01 258.056 329.315 258.056C330.474 258.056 331.505 258.289 332.407 258.756C333.325 259.207 334.034 259.883 334.533 260.784L332.769 261.919C332.351 261.291 331.835 260.833 331.223 260.543C330.627 260.237 329.983 260.084 329.291 260.084C328.453 260.084 327.704 260.269 327.044 260.639C326.384 261.01 325.86 261.533 325.474 262.209C325.087 262.869 324.894 263.658 324.894 264.575C324.894 265.493 325.087 266.29 325.474 266.966C325.86 267.642 326.384 268.165 327.044 268.535C327.704 268.906 328.453 269.091 329.291 269.091C329.983 269.091 330.627 268.946 331.223 268.656C331.835 268.35 332.351 267.883 332.769 267.256L334.533 268.366C334.034 269.252 333.325 269.936 332.407 270.419C331.505 270.886 330.474 271.119 329.315 271.119ZM344.208 258.056C345.255 258.056 346.173 258.257 346.962 258.659C347.768 259.062 348.396 259.674 348.847 260.495C349.298 261.316 349.523 262.354 349.523 263.609V270.974H347.204V263.875C347.204 262.636 346.898 261.702 346.286 261.074C345.69 260.446 344.845 260.132 343.749 260.132C342.928 260.132 342.211 260.293 341.599 260.615C340.987 260.937 340.512 261.412 340.174 262.04C339.852 262.668 339.691 263.448 339.691 264.382V270.974H337.372V253.058H339.691V261.629L339.232 260.712C339.65 259.875 340.295 259.223 341.164 258.756C342.034 258.289 343.049 258.056 344.208 258.056ZM360.652 258.056C361.699 258.056 362.617 258.257 363.406 258.659C364.212 259.062 364.84 259.674 365.291 260.495C365.742 261.316 365.967 262.354 365.967 263.609V270.974H363.648V263.875C363.648 262.636 363.342 261.702 362.73 261.074C362.134 260.446 361.288 260.132 360.193 260.132C359.372 260.132 358.655 260.293 358.043 260.615C357.431 260.937 356.956 261.412 356.618 262.04C356.296 262.668 356.135 263.448 356.135 264.382V270.974H353.815V258.177H356.038V261.629L355.676 260.712C356.094 259.875 356.739 259.223 357.608 258.756C358.478 258.289 359.493 258.056 360.652 258.056ZM375.743 271.119C374.455 271.119 373.311 270.837 372.313 270.274C371.314 269.71 370.525 268.938 369.945 267.956C369.365 266.958 369.075 265.831 369.075 264.575C369.075 263.304 369.365 262.177 369.945 261.195C370.525 260.213 371.314 259.448 372.313 258.901C373.311 258.338 374.455 258.056 375.743 258.056C377.015 258.056 378.151 258.338 379.149 258.901C380.164 259.448 380.953 260.213 381.517 261.195C382.097 262.161 382.387 263.288 382.387 264.575C382.387 265.847 382.097 266.974 381.517 267.956C380.953 268.938 380.164 269.71 379.149 270.274C378.151 270.837 377.015 271.119 375.743 271.119ZM375.743 269.091C376.565 269.091 377.297 268.906 377.942 268.535C378.602 268.165 379.117 267.642 379.488 266.966C379.858 266.274 380.043 265.477 380.043 264.575C380.043 263.658 379.858 262.869 379.488 262.209C379.117 261.533 378.602 261.01 377.942 260.639C377.297 260.269 376.565 260.084 375.743 260.084C374.922 260.084 374.189 260.269 373.545 260.639C372.9 261.01 372.385 261.533 371.999 262.209C371.612 262.869 371.419 263.658 371.419 264.575C371.419 265.477 371.612 266.274 371.999 266.966C372.385 267.642 372.9 268.165 373.545 268.535C374.189 268.906 374.922 269.091 375.743 269.091ZM385.593 270.974V253.058H387.912V270.974H385.593ZM397.825 271.119C396.537 271.119 395.393 270.837 394.395 270.274C393.396 269.71 392.607 268.938 392.027 267.956C391.447 266.958 391.158 265.831 391.158 264.575C391.158 263.304 391.447 262.177 392.027 261.195C392.607 260.213 393.396 259.448 394.395 258.901C395.393 258.338 396.537 258.056 397.825 258.056C399.098 258.056 400.233 258.338 401.232 258.901C402.246 259.448 403.035 260.213 403.599 261.195C404.179 262.161 404.469 263.288 404.469 264.575C404.469 265.847 404.179 266.974 403.599 267.956C403.035 268.938 402.246 269.71 401.232 270.274C400.233 270.837 399.098 271.119 397.825 271.119ZM397.825 269.091C398.647 269.091 399.379 268.906 400.024 268.535C400.684 268.165 401.199 267.642 401.57 266.966C401.94 266.274 402.125 265.477 402.125 264.575C402.125 263.658 401.94 262.869 401.57 262.209C401.199 261.533 400.684 261.01 400.024 260.639C399.379 260.269 398.647 260.084 397.825 260.084C397.004 260.084 396.271 260.269 395.627 260.639C394.983 261.01 394.467 261.533 394.081 262.209C393.694 262.869 393.501 263.658 393.501 264.575C393.501 265.477 393.694 266.274 394.081 266.966C394.467 267.642 394.983 268.165 395.627 268.535C396.271 268.906 397.004 269.091 397.825 269.091ZM413.28 275.803C412.104 275.803 410.961 275.634 409.849 275.296C408.754 274.974 407.86 274.508 407.168 273.896L408.279 272.109C408.875 272.624 409.608 273.027 410.477 273.316C411.347 273.622 412.257 273.775 413.207 273.775C414.721 273.775 415.833 273.421 416.541 272.713C417.25 272.004 417.604 270.926 417.604 269.477V266.773L417.846 264.237L417.725 261.678V258.177H419.923V269.236C419.923 271.489 419.36 273.147 418.232 274.21C417.105 275.272 415.454 275.803 413.28 275.803ZM412.99 270.443C411.75 270.443 410.639 270.185 409.656 269.67C408.69 269.139 407.917 268.407 407.337 267.473C406.773 266.539 406.491 265.461 406.491 264.237C406.491 262.998 406.773 261.919 407.337 261.002C407.917 260.068 408.69 259.344 409.656 258.828C410.639 258.313 411.75 258.056 412.99 258.056C414.085 258.056 415.084 258.281 415.986 258.732C416.888 259.167 417.604 259.843 418.136 260.76C418.683 261.678 418.957 262.837 418.957 264.237C418.957 265.622 418.683 266.773 418.136 267.69C417.604 268.608 416.888 269.3 415.986 269.767C415.084 270.218 414.085 270.443 412.99 270.443ZM413.256 268.415C414.109 268.415 414.866 268.238 415.527 267.883C416.187 267.529 416.702 267.038 417.073 266.41C417.459 265.783 417.653 265.058 417.653 264.237C417.653 263.416 417.459 262.692 417.073 262.064C416.702 261.436 416.187 260.953 415.527 260.615C414.866 260.261 414.109 260.084 413.256 260.084C412.402 260.084 411.637 260.261 410.961 260.615C410.3 260.953 409.777 261.436 409.39 262.064C409.02 262.692 408.835 263.416 408.835 264.237C408.835 265.058 409.02 265.783 409.39 266.41C409.777 267.038 410.3 267.529 410.961 267.883C411.637 268.238 412.402 268.415 413.256 268.415ZM424.911 275.803C424.299 275.803 423.703 275.699 423.123 275.489C422.543 275.296 422.044 275.007 421.625 274.62L422.616 272.882C422.938 273.188 423.292 273.421 423.679 273.582C424.065 273.743 424.476 273.823 424.911 273.823C425.474 273.823 425.941 273.678 426.312 273.389C426.682 273.099 427.029 272.584 427.351 271.843L428.148 270.081L428.39 269.791L433.414 258.177H435.685L429.477 272.254C429.106 273.155 428.688 273.864 428.22 274.379C427.77 274.894 427.27 275.256 426.723 275.465C426.175 275.691 425.571 275.803 424.911 275.803ZM427.955 271.385L422.108 258.177H424.524L429.501 269.574L427.955 271.385ZM448.034 270.974V256.172H442.236V254.072H456.224V256.172H450.426V270.974H448.034ZM458.516 270.974V258.177H460.836V270.974H458.516ZM459.676 255.714C459.225 255.714 458.847 255.569 458.541 255.279C458.251 254.989 458.106 254.635 458.106 254.217C458.106 253.782 458.251 253.42 458.541 253.13C458.847 252.84 459.225 252.695 459.676 252.695C460.127 252.695 460.497 252.84 460.787 253.13C461.093 253.404 461.246 253.75 461.246 254.168C461.246 254.603 461.101 254.973 460.811 255.279C460.522 255.569 460.143 255.714 459.676 255.714ZM465.265 270.974V258.177H467.487V261.654L467.27 260.784C467.624 259.899 468.22 259.223 469.057 258.756C469.895 258.289 470.926 258.056 472.15 258.056V260.301C472.053 260.285 471.956 260.277 471.86 260.277C471.779 260.277 471.699 260.277 471.618 260.277C470.378 260.277 469.396 260.648 468.671 261.388C467.946 262.128 467.584 263.199 467.584 264.599V270.974H465.265ZM480.56 271.119C479.464 271.119 478.498 270.918 477.661 270.515C476.839 270.113 476.195 269.501 475.728 268.68C475.277 267.843 475.051 266.797 475.051 265.541V258.177H477.371V265.276C477.371 266.531 477.669 267.473 478.264 268.101C478.877 268.728 479.73 269.042 480.825 269.042C481.631 269.042 482.331 268.881 482.927 268.559C483.523 268.221 483.982 267.738 484.304 267.111C484.626 266.467 484.787 265.694 484.787 264.793V258.177H487.106V270.974H484.908V267.521L485.27 268.439C484.852 269.292 484.224 269.952 483.386 270.419C482.549 270.886 481.606 271.119 480.56 271.119ZM497.103 271.119C495.798 271.119 494.63 270.837 493.6 270.274C492.585 269.71 491.788 268.938 491.208 267.956C490.628 266.974 490.338 265.847 490.338 264.575C490.338 263.304 490.628 262.177 491.208 261.195C491.788 260.213 492.585 259.448 493.6 258.901C494.63 258.338 495.798 258.056 497.103 258.056C498.262 258.056 499.293 258.289 500.195 258.756C501.113 259.207 501.822 259.883 502.321 260.784L500.557 261.919C500.139 261.291 499.623 260.833 499.011 260.543C498.415 260.237 497.771 260.084 497.078 260.084C496.241 260.084 495.492 260.269 494.832 260.639C494.171 261.01 493.648 261.533 493.261 262.209C492.875 262.869 492.682 263.658 492.682 264.575C492.682 265.493 492.875 266.29 493.261 266.966C493.648 267.642 494.171 268.165 494.832 268.535C495.492 268.906 496.241 269.091 497.078 269.091C497.771 269.091 498.415 268.946 499.011 268.656C499.623 268.35 500.139 267.883 500.557 267.256L502.321 268.366C501.822 269.252 501.113 269.936 500.195 270.419C499.293 270.886 498.262 271.119 497.103 271.119ZM511.995 258.056C513.042 258.056 513.96 258.257 514.749 258.659C515.554 259.062 516.182 259.674 516.633 260.495C517.084 261.316 517.31 262.354 517.31 263.609V270.974H514.991V263.875C514.991 262.636 514.685 261.702 514.073 261.074C513.477 260.446 512.631 260.132 511.536 260.132C510.715 260.132 509.998 260.293 509.386 260.615C508.774 260.937 508.299 261.412 507.961 262.04C507.638 262.668 507.477 263.448 507.477 264.382V270.974H505.158V253.058H507.477V261.629L507.018 260.712C507.437 259.875 508.081 259.223 508.951 258.756C509.821 258.289 510.835 258.056 511.995 258.056ZM521.602 270.974V258.177H523.921V270.974H521.602ZM522.762 255.714C522.311 255.714 521.932 255.569 521.626 255.279C521.336 254.989 521.191 254.635 521.191 254.217C521.191 253.782 521.336 253.42 521.626 253.13C521.932 252.84 522.311 252.695 522.762 252.695C523.212 252.695 523.583 252.84 523.873 253.13C524.179 253.404 524.332 253.75 524.332 254.168C524.332 254.603 524.187 254.973 523.897 255.279C523.607 255.569 523.229 255.714 522.762 255.714ZM528.35 270.974V258.177H530.573V261.654L530.355 260.784C530.71 259.899 531.306 259.223 532.143 258.756C532.98 258.289 534.011 258.056 535.235 258.056V260.301C535.139 260.285 535.042 260.277 534.945 260.277C534.865 260.277 534.784 260.277 534.704 260.277C533.464 260.277 532.481 260.648 531.757 261.388C531.032 262.128 530.669 263.199 530.669 264.599V270.974H528.35ZM545.097 270.974V268.27L544.977 267.763V263.151C544.977 262.169 544.687 261.412 544.107 260.881C543.543 260.334 542.689 260.06 541.546 260.06C540.789 260.06 540.048 260.189 539.323 260.446C538.599 260.688 537.987 261.018 537.487 261.436L536.521 259.698C537.181 259.167 537.971 258.764 538.889 258.49C539.823 258.201 540.797 258.056 541.812 258.056C543.567 258.056 544.92 258.482 545.87 259.336C546.821 260.189 547.296 261.493 547.296 263.247V270.974H545.097ZM540.894 271.119C539.943 271.119 539.106 270.958 538.381 270.636C537.673 270.314 537.125 269.871 536.738 269.308C536.352 268.728 536.159 268.077 536.159 267.352C536.159 266.66 536.32 266.032 536.642 265.469C536.98 264.905 537.52 264.455 538.26 264.117C539.017 263.778 540.032 263.609 541.304 263.609H545.363V265.276H541.401C540.241 265.276 539.46 265.469 539.058 265.855C538.655 266.241 538.454 266.708 538.454 267.256C538.454 267.883 538.703 268.39 539.203 268.777C539.702 269.147 540.394 269.332 541.28 269.332C542.15 269.332 542.907 269.139 543.551 268.753C544.211 268.366 544.687 267.803 544.977 267.062L545.435 268.656C545.129 269.413 544.59 270.016 543.817 270.467C543.044 270.902 542.069 271.119 540.894 271.119ZM558.376 271.119C557.313 271.119 556.339 270.878 555.453 270.395C554.583 269.896 553.883 269.163 553.351 268.197C552.836 267.231 552.578 266.024 552.578 264.575C552.578 263.127 552.828 261.919 553.327 260.953C553.843 259.988 554.535 259.263 555.405 258.78C556.291 258.297 557.281 258.056 558.376 258.056C559.633 258.056 560.744 258.329 561.71 258.877C562.676 259.424 563.441 260.189 564.005 261.171C564.569 262.137 564.851 263.271 564.851 264.575C564.851 265.879 564.569 267.022 564.005 268.004C563.441 268.986 562.676 269.751 561.71 270.298C560.744 270.845 559.633 271.119 558.376 271.119ZM551.588 275.658V258.177H553.81V261.629L553.665 264.599L553.907 267.569V275.658H551.588ZM558.183 269.091C559.004 269.091 559.737 268.906 560.381 268.535C561.042 268.165 561.557 267.642 561.928 266.966C562.314 266.274 562.507 265.477 562.507 264.575C562.507 263.658 562.314 262.869 561.928 262.209C561.557 261.533 561.042 261.01 560.381 260.639C559.737 260.269 559.004 260.084 558.183 260.084C557.378 260.084 556.645 260.269 555.985 260.639C555.34 261.01 554.825 261.533 554.439 262.209C554.068 262.869 553.883 263.658 553.883 264.575C553.883 265.477 554.068 266.274 554.439 266.966C554.825 267.642 555.34 268.165 555.985 268.535C556.645 268.906 557.378 269.091 558.183 269.091ZM574.844 271.119C573.781 271.119 572.807 270.878 571.921 270.395C571.051 269.896 570.351 269.163 569.819 268.197C569.304 267.231 569.046 266.024 569.046 264.575C569.046 263.127 569.296 261.919 569.795 260.953C570.311 259.988 571.003 259.263 571.873 258.78C572.759 258.297 573.749 258.056 574.844 258.056C576.101 258.056 577.212 258.329 578.178 258.877C579.144 259.424 579.91 260.189 580.473 261.171C581.037 262.137 581.319 263.271 581.319 264.575C581.319 265.879 581.037 267.022 580.473 268.004C579.91 268.986 579.144 269.751 578.178 270.298C577.212 270.845 576.101 271.119 574.844 271.119ZM568.056 275.658V258.177H570.278V261.629L570.133 264.599L570.375 267.569V275.658H568.056ZM574.651 269.091C575.472 269.091 576.205 268.906 576.849 268.535C577.51 268.165 578.025 267.642 578.396 266.966C578.782 266.274 578.975 265.477 578.975 264.575C578.975 263.658 578.782 262.869 578.396 262.209C578.025 261.533 577.51 261.01 576.849 260.639C576.205 260.269 575.472 260.084 574.651 260.084C573.846 260.084 573.113 260.269 572.453 260.639C571.808 261.01 571.293 261.533 570.906 262.209C570.536 262.869 570.351 263.658 570.351 264.575C570.351 265.477 570.536 266.274 570.906 266.966C571.293 267.642 571.808 268.165 572.453 268.535C573.113 268.906 573.846 269.091 574.651 269.091ZM592.352 270.974V268.27L592.232 267.763V263.151C592.232 262.169 591.942 261.412 591.362 260.881C590.798 260.334 589.945 260.06 588.801 260.06C588.044 260.06 587.303 260.189 586.579 260.446C585.854 260.688 585.242 261.018 584.742 261.436L583.776 259.698C584.437 259.167 585.226 258.764 586.144 258.49C587.078 258.201 588.052 258.056 589.067 258.056C590.822 258.056 592.175 258.482 593.125 259.336C594.076 260.189 594.551 261.493 594.551 263.247V270.974H592.352ZM588.149 271.119C587.199 271.119 586.361 270.958 585.636 270.636C584.928 270.314 584.38 269.871 583.994 269.308C583.607 268.728 583.414 268.077 583.414 267.352C583.414 266.66 583.575 266.032 583.897 265.469C584.235 264.905 584.775 264.455 585.516 264.117C586.273 263.778 587.287 263.609 588.56 263.609H592.618V265.276H588.656C587.497 265.276 586.715 265.469 586.313 265.855C585.91 266.241 585.709 266.708 585.709 267.256C585.709 267.883 585.958 268.39 586.458 268.777C586.957 269.147 587.65 269.332 588.535 269.332C589.405 269.332 590.162 269.139 590.806 268.753C591.467 268.366 591.942 267.803 592.232 267.062L592.691 268.656C592.385 269.413 591.845 270.016 591.072 270.467C590.299 270.902 589.325 271.119 588.149 271.119ZM598.843 270.974V253.058H601.162V270.974H598.843ZM605.59 270.974V253.058H607.909V270.974H605.59ZM612.338 270.974V258.177H614.657V270.974H612.338ZM613.498 255.714C613.047 255.714 612.668 255.569 612.362 255.279C612.072 254.989 611.927 254.635 611.927 254.217C611.927 253.782 612.072 253.42 612.362 253.13C612.668 252.84 613.047 252.695 613.498 252.695C613.949 252.695 614.319 252.84 614.609 253.13C614.915 253.404 615.068 253.75 615.068 254.168C615.068 254.603 614.923 254.973 614.633 255.279C614.343 255.569 613.965 255.714 613.498 255.714ZM123.524 313.901V299.099H117.726V296.998H131.714V299.099H125.916V313.901H123.524ZM134.007 313.901V301.103H136.326V313.901H134.007ZM135.166 298.64C134.715 298.64 134.337 298.496 134.031 298.206C133.741 297.916 133.596 297.562 133.596 297.143C133.596 296.709 133.741 296.347 134.031 296.057C134.337 295.767 134.715 295.622 135.166 295.622C135.617 295.622 135.988 295.767 136.278 296.057C136.584 296.33 136.737 296.677 136.737 297.095C136.737 297.53 136.592 297.9 136.302 298.206C136.012 298.496 135.633 298.64 135.166 298.64ZM140.754 313.901V301.103H142.977V304.58L142.759 303.711C143.113 302.826 143.709 302.15 144.547 301.683C145.384 301.216 146.415 300.983 147.639 300.983V303.228C147.543 303.212 147.446 303.204 147.349 303.204C147.269 303.204 147.188 303.204 147.108 303.204C145.868 303.204 144.885 303.574 144.16 304.315C143.436 305.055 143.073 306.126 143.073 307.526V313.901H140.754ZM156.05 314.046C154.954 314.046 153.988 313.845 153.151 313.442C152.329 313.04 151.685 312.428 151.218 311.607C150.767 310.77 150.542 309.724 150.542 308.468V301.103H152.861V308.202C152.861 309.458 153.159 310.4 153.755 311.028C154.367 311.655 155.22 311.969 156.315 311.969C157.121 311.969 157.821 311.808 158.417 311.486C159.013 311.148 159.472 310.665 159.794 310.038C160.116 309.394 160.277 308.621 160.277 307.719V301.103H162.597V313.901H160.398V310.448L160.761 311.366C160.342 312.219 159.714 312.879 158.876 313.346C158.039 313.812 157.096 314.046 156.05 314.046ZM172.593 314.046C171.288 314.046 170.121 313.764 169.09 313.201C168.075 312.637 167.278 311.865 166.698 310.883C166.118 309.901 165.828 308.774 165.828 307.502C165.828 306.23 166.118 305.104 166.698 304.122C167.278 303.14 168.075 302.375 169.09 301.828C170.121 301.264 171.288 300.983 172.593 300.983C173.752 300.983 174.783 301.216 175.685 301.683C176.603 302.134 177.312 302.81 177.811 303.711L176.047 304.846C175.629 304.218 175.113 303.759 174.501 303.47C173.905 303.164 173.261 303.011 172.569 303.011C171.731 303.011 170.982 303.196 170.322 303.566C169.662 303.937 169.138 304.46 168.752 305.136C168.365 305.796 168.172 306.585 168.172 307.502C168.172 308.42 168.365 309.217 168.752 309.893C169.138 310.569 169.662 311.092 170.322 311.462C170.982 311.832 171.731 312.018 172.569 312.018C173.261 312.018 173.905 311.873 174.501 311.583C175.113 311.277 175.629 310.81 176.047 310.182L177.811 311.293C177.312 312.178 176.603 312.863 175.685 313.346C174.783 313.812 173.752 314.046 172.593 314.046ZM187.485 300.983C188.532 300.983 189.45 301.184 190.239 301.586C191.044 301.989 191.672 302.6 192.123 303.421C192.574 304.242 192.8 305.281 192.8 306.536V313.901H190.481V306.802C190.481 305.562 190.175 304.629 189.563 304.001C188.967 303.373 188.121 303.059 187.026 303.059C186.205 303.059 185.488 303.22 184.876 303.542C184.264 303.864 183.789 304.339 183.451 304.967C183.128 305.595 182.967 306.375 182.967 307.309V313.901H180.648V295.984H182.967V304.556L182.508 303.639C182.927 302.802 183.571 302.15 184.441 301.683C185.311 301.216 186.325 300.983 187.485 300.983ZM197.092 313.901V301.103H199.411V313.901H197.092ZM198.252 298.64C197.801 298.64 197.422 298.496 197.116 298.206C196.826 297.916 196.681 297.562 196.681 297.143C196.681 296.709 196.826 296.347 197.116 296.057C197.422 295.767 197.801 295.622 198.252 295.622C198.703 295.622 199.073 295.767 199.363 296.057C199.669 296.33 199.822 296.677 199.822 297.095C199.822 297.53 199.677 297.9 199.387 298.206C199.097 298.496 198.719 298.64 198.252 298.64ZM203.839 313.901V301.103H206.061V304.58L205.844 303.711C206.198 302.826 206.794 302.15 207.632 301.683C208.469 301.216 209.5 300.983 210.724 300.983V303.228C210.627 303.212 210.531 303.204 210.434 303.204C210.354 303.204 210.273 303.204 210.193 303.204C208.952 303.204 207.97 303.574 207.245 304.315C206.52 305.055 206.158 306.126 206.158 307.526V313.901H203.839ZM220.587 313.901V311.197L220.467 310.689V306.078C220.467 305.096 220.177 304.339 219.597 303.808C219.033 303.26 218.18 302.987 217.036 302.987C216.279 302.987 215.538 303.116 214.814 303.373C214.089 303.615 213.477 303.945 212.977 304.363L212.011 302.625C212.671 302.093 213.461 301.691 214.379 301.417C215.313 301.128 216.287 300.983 217.302 300.983C219.057 300.983 220.41 301.409 221.36 302.262C222.311 303.116 222.786 304.419 222.786 306.174V313.901H220.587ZM216.384 314.046C215.434 314.046 214.596 313.885 213.871 313.563C213.163 313.241 212.615 312.798 212.229 312.235C211.842 311.655 211.649 311.003 211.649 310.279C211.649 309.587 211.81 308.959 212.132 308.396C212.47 307.832 213.01 307.381 213.751 307.043C214.507 306.705 215.522 306.536 216.794 306.536H220.853V308.202H216.891C215.732 308.202 214.95 308.396 214.548 308.782C214.145 309.168 213.944 309.635 213.944 310.182C213.944 310.81 214.193 311.317 214.693 311.704C215.192 312.074 215.885 312.259 216.77 312.259C217.64 312.259 218.397 312.066 219.041 311.679C219.702 311.293 220.177 310.73 220.467 309.989L220.926 311.583C220.62 312.339 220.08 312.943 219.307 313.394C218.534 313.828 217.56 314.046 216.384 314.046ZM233.866 314.046C232.803 314.046 231.829 313.804 230.943 313.321C230.074 312.822 229.373 312.09 228.841 311.124C228.326 310.158 228.068 308.951 228.068 307.502C228.068 306.053 228.318 304.846 228.817 303.88C229.333 302.914 230.025 302.19 230.895 301.707C231.781 301.224 232.771 300.983 233.866 300.983C235.123 300.983 236.234 301.256 237.2 301.804C238.167 302.351 238.932 303.116 239.495 304.098C240.059 305.063 240.341 306.198 240.341 307.502C240.341 308.806 240.059 309.949 239.495 310.931C238.932 311.913 238.167 312.678 237.2 313.225C236.234 313.772 235.123 314.046 233.866 314.046ZM227.078 318.585V301.103H229.3V304.556L229.156 307.526L229.397 310.496V318.585H227.078ZM233.673 312.018C234.495 312.018 235.227 311.832 235.872 311.462C236.532 311.092 237.047 310.569 237.418 309.893C237.804 309.2 237.997 308.404 237.997 307.502C237.997 306.585 237.804 305.796 237.418 305.136C237.047 304.46 236.532 303.937 235.872 303.566C235.227 303.196 234.495 303.011 233.673 303.011C232.868 303.011 232.135 303.196 231.475 303.566C230.831 303.937 230.315 304.46 229.929 305.136C229.558 305.796 229.373 306.585 229.373 307.502C229.373 308.404 229.558 309.2 229.929 309.893C230.315 310.569 230.831 311.092 231.475 311.462C232.135 311.832 232.868 312.018 233.673 312.018ZM251.376 313.901V311.197L251.255 310.689V306.078C251.255 305.096 250.965 304.339 250.385 303.808C249.822 303.26 248.968 302.987 247.825 302.987C247.068 302.987 246.327 303.116 245.602 303.373C244.877 303.615 244.265 303.945 243.766 304.363L242.8 302.625C243.46 302.093 244.249 301.691 245.167 301.417C246.101 301.128 247.076 300.983 248.09 300.983C249.846 300.983 251.199 301.409 252.149 302.262C253.099 303.116 253.574 304.419 253.574 306.174V313.901H251.376ZM247.172 314.046C246.222 314.046 245.385 313.885 244.66 313.563C243.951 313.241 243.404 312.798 243.017 312.235C242.631 311.655 242.437 311.003 242.437 310.279C242.437 309.587 242.598 308.959 242.92 308.396C243.259 307.832 243.798 307.381 244.539 307.043C245.296 306.705 246.311 306.536 247.583 306.536H251.642V308.202H247.68C246.52 308.202 245.739 308.396 245.336 308.782C244.934 309.168 244.732 309.635 244.732 310.182C244.732 310.81 244.982 311.317 245.481 311.704C245.98 312.074 246.673 312.259 247.559 312.259C248.429 312.259 249.185 312.066 249.83 311.679C250.49 311.293 250.965 310.73 251.255 309.989L251.714 311.583C251.408 312.339 250.869 312.943 250.095 313.394C249.322 313.828 248.348 314.046 247.172 314.046ZM257.865 313.901V295.984H260.184V313.901H257.865ZM264.613 313.901V295.984H266.932V313.901H264.613ZM271.36 313.901V301.103H273.679V313.901H271.36ZM272.52 298.64C272.069 298.64 271.69 298.496 271.384 298.206C271.094 297.916 270.949 297.562 270.949 297.143C270.949 296.709 271.094 296.347 271.384 296.057C271.69 295.767 272.069 295.622 272.52 295.622C272.971 295.622 273.341 295.767 273.631 296.057C273.937 296.33 274.09 296.677 274.09 297.095C274.09 297.53 273.945 297.9 273.655 298.206C273.365 298.496 272.987 298.64 272.52 298.64ZM292.122 308.927C291.671 308.927 291.284 308.774 290.962 308.468C290.64 308.146 290.479 307.744 290.479 307.261C290.479 306.778 290.64 306.383 290.962 306.078C291.284 305.772 291.671 305.619 292.122 305.619C292.589 305.619 292.967 305.772 293.257 306.078C293.563 306.383 293.716 306.778 293.716 307.261C293.716 307.744 293.563 308.146 293.257 308.468C292.967 308.774 292.589 308.927 292.122 308.927ZM314.196 313.901V299.099H308.398V296.998H322.385V299.099H316.587V313.901H314.196ZM331.943 313.901V311.197L331.822 310.689V306.078C331.822 305.096 331.532 304.339 330.952 303.808C330.388 303.26 329.535 302.987 328.391 302.987C327.634 302.987 326.894 303.116 326.169 303.373C325.444 303.615 324.832 303.945 324.333 304.363L323.366 302.625C324.027 302.093 324.816 301.691 325.734 301.417C326.668 301.128 327.642 300.983 328.657 300.983C330.413 300.983 331.765 301.409 332.716 302.262C333.666 303.116 334.141 304.419 334.141 306.174V313.901H331.943ZM327.739 314.046C326.789 314.046 325.951 313.885 325.227 313.563C324.518 313.241 323.97 312.798 323.584 312.235C323.197 311.655 323.004 311.003 323.004 310.279C323.004 309.587 323.165 308.959 323.487 308.396C323.825 307.832 324.365 307.381 325.106 307.043C325.863 306.705 326.877 306.536 328.15 306.536H332.208V308.202H328.246C327.087 308.202 326.306 308.396 325.903 308.782C325.5 309.168 325.299 309.635 325.299 310.182C325.299 310.81 325.549 311.317 326.048 311.704C326.547 312.074 327.24 312.259 328.126 312.259C328.995 312.259 329.752 312.066 330.397 311.679C331.057 311.293 331.532 310.73 331.822 309.989L332.281 311.583C331.975 312.339 331.435 312.943 330.662 313.394C329.889 313.828 328.915 314.046 327.739 314.046ZM354.45 300.983C355.481 300.983 356.391 301.184 357.18 301.586C357.969 301.989 358.581 302.6 359.016 303.421C359.467 304.242 359.693 305.281 359.693 306.536V313.901H357.373V306.802C357.373 305.562 357.083 304.629 356.504 304.001C355.924 303.373 355.111 303.059 354.064 303.059C353.291 303.059 352.614 303.22 352.034 303.542C351.455 303.864 351.004 304.339 350.682 304.967C350.376 305.595 350.222 306.375 350.222 307.309V313.901H347.903V306.802C347.903 305.562 347.613 304.629 347.034 304.001C346.47 303.373 345.657 303.059 344.594 303.059C343.837 303.059 343.168 303.22 342.588 303.542C342.009 303.864 341.558 304.339 341.236 304.967C340.913 305.595 340.752 306.375 340.752 307.309V313.901H338.433V301.103H340.656V304.508L340.293 303.639C340.696 302.802 341.316 302.15 342.154 301.683C342.991 301.216 343.965 300.983 345.077 300.983C346.301 300.983 347.356 301.288 348.242 301.9C349.127 302.496 349.707 303.405 349.981 304.629L349.039 304.242C349.425 303.26 350.102 302.472 351.068 301.876C352.034 301.28 353.162 300.983 354.45 300.983ZM363.959 313.901V301.103H366.278V313.901H363.959ZM365.119 298.64C364.668 298.64 364.289 298.496 363.983 298.206C363.693 297.916 363.549 297.562 363.549 297.143C363.549 296.709 363.693 296.347 363.983 296.057C364.289 295.767 364.668 295.622 365.119 295.622C365.57 295.622 365.94 295.767 366.23 296.057C366.536 296.33 366.689 296.677 366.689 297.095C366.689 297.53 366.544 297.9 366.254 298.206C365.964 298.496 365.586 298.64 365.119 298.64ZM370.707 313.901V295.984H373.027V313.901H370.707ZM384.28 313.901V296.998H386.261L397.447 310.883H396.408V296.998H398.824V313.901H396.843L385.657 300.017H386.696V313.901H384.28ZM411.495 313.901V311.197L411.374 310.689V306.078C411.374 305.096 411.084 304.339 410.504 303.808C409.941 303.26 409.087 302.987 407.944 302.987C407.187 302.987 406.446 303.116 405.721 303.373C404.996 303.615 404.384 303.945 403.885 304.363L402.919 302.625C403.579 302.093 404.368 301.691 405.286 301.417C406.22 301.128 407.195 300.983 408.209 300.983C409.965 300.983 411.318 301.409 412.268 302.262C413.218 303.116 413.693 304.419 413.693 306.174V313.901H411.495ZM407.291 314.046C406.341 314.046 405.504 313.885 404.779 313.563C404.07 313.241 403.523 312.798 403.136 312.235C402.749 311.655 402.556 311.003 402.556 310.279C402.556 309.587 402.717 308.959 403.039 308.396C403.378 307.832 403.917 307.381 404.658 307.043C405.415 306.705 406.43 306.536 407.702 306.536H411.761V308.202H407.799C406.639 308.202 405.858 308.396 405.455 308.782C405.053 309.168 404.851 309.635 404.851 310.182C404.851 310.81 405.101 311.317 405.6 311.704C406.099 312.074 406.792 312.259 407.678 312.259C408.547 312.259 409.304 312.066 409.949 311.679C410.609 311.293 411.084 310.73 411.374 309.989L411.833 311.583C411.527 312.339 410.988 312.943 410.214 313.394C409.441 313.828 408.467 314.046 407.291 314.046ZM423.276 314.046C422.036 314.046 420.925 313.772 419.942 313.225C418.976 312.678 418.211 311.913 417.647 310.931C417.083 309.949 416.802 308.806 416.802 307.502C416.802 306.198 417.083 305.063 417.647 304.098C418.211 303.116 418.976 302.351 419.942 301.804C420.925 301.256 422.036 300.983 423.276 300.983C424.355 300.983 425.329 301.224 426.199 301.707C427.069 302.19 427.761 302.914 428.277 303.88C428.808 304.846 429.074 306.053 429.074 307.502C429.074 308.951 428.816 310.158 428.301 311.124C427.802 312.09 427.117 312.822 426.247 313.321C425.378 313.804 424.387 314.046 423.276 314.046ZM423.469 312.018C424.275 312.018 424.999 311.832 425.644 311.462C426.304 311.092 426.819 310.569 427.19 309.893C427.576 309.2 427.77 308.404 427.77 307.502C427.77 306.585 427.576 305.796 427.19 305.136C426.819 304.46 426.304 303.937 425.644 303.566C424.999 303.196 424.275 303.011 423.469 303.011C422.648 303.011 421.915 303.196 421.271 303.566C420.627 303.937 420.111 304.46 419.725 305.136C419.338 305.796 419.145 306.585 419.145 307.502C419.145 308.404 419.338 309.2 419.725 309.893C420.111 310.569 420.627 311.092 421.271 311.462C421.915 311.832 422.648 312.018 423.469 312.018ZM427.842 313.901V310.448L427.987 307.478L427.745 304.508V295.984H430.065V313.901H427.842ZM439.841 314.046C438.745 314.046 437.779 313.845 436.942 313.442C436.12 313.04 435.476 312.428 435.009 311.607C434.558 310.77 434.333 309.724 434.333 308.468V301.103H436.652V308.202C436.652 309.458 436.95 310.4 437.546 311.028C438.158 311.655 439.011 311.969 440.106 311.969C440.912 311.969 441.612 311.808 442.208 311.486C442.804 311.148 443.263 310.665 443.585 310.038C443.907 309.394 444.068 308.621 444.068 307.719V301.103H446.388V313.901H444.189V310.448L444.552 311.366C444.133 312.219 443.505 312.879 442.667 313.346C441.83 313.812 440.887 314.046 439.841 314.046ZM464.816 308.927C464.365 308.927 463.979 308.774 463.657 308.468C463.335 308.146 463.174 307.744 463.174 307.261C463.174 306.778 463.335 306.383 463.657 306.078C463.979 305.772 464.365 305.619 464.816 305.619C465.283 305.619 465.662 305.772 465.952 306.078C466.258 306.383 466.411 306.778 466.411 307.261C466.411 307.744 466.258 308.146 465.952 308.468C465.662 308.774 465.283 308.927 464.816 308.927ZM483.532 313.901V296.998H485.948V313.901H483.532ZM497.509 300.983C498.556 300.983 499.474 301.184 500.263 301.586C501.069 301.989 501.697 302.6 502.148 303.421C502.599 304.242 502.824 305.281 502.824 306.536V313.901H500.505V306.802C500.505 305.562 500.199 304.629 499.587 304.001C498.991 303.373 498.145 303.059 497.05 303.059C496.229 303.059 495.512 303.22 494.9 303.542C494.288 303.864 493.813 304.339 493.475 304.967C493.153 305.595 492.992 306.375 492.992 307.309V313.901H490.673V301.103H492.895V304.556L492.533 303.639C492.951 302.802 493.596 302.15 494.465 301.683C495.335 301.216 496.35 300.983 497.509 300.983ZM512.407 314.046C511.167 314.046 510.056 313.772 509.073 313.225C508.107 312.678 507.342 311.913 506.778 310.931C506.214 309.949 505.933 308.806 505.933 307.502C505.933 306.198 506.214 305.063 506.778 304.098C507.342 303.116 508.107 302.351 509.073 301.804C510.056 301.256 511.167 300.983 512.407 300.983C513.486 300.983 514.46 301.224 515.33 301.707C516.2 302.19 516.892 302.914 517.408 303.88C517.939 304.846 518.205 306.053 518.205 307.502C518.205 308.951 517.947 310.158 517.432 311.124C516.933 312.09 516.248 312.822 515.378 313.321C514.509 313.804 513.518 314.046 512.407 314.046ZM512.6 312.018C513.405 312.018 514.13 311.832 514.775 311.462C515.435 311.092 515.95 310.569 516.321 309.893C516.707 309.2 516.9 308.404 516.9 307.502C516.9 306.585 516.707 305.796 516.321 305.136C515.95 304.46 515.435 303.937 514.775 303.566C514.13 303.196 513.405 303.011 512.6 303.011C511.779 303.011 511.046 303.196 510.402 303.566C509.758 303.937 509.242 304.46 508.856 305.136C508.469 305.796 508.276 306.585 508.276 307.502C508.276 308.404 508.469 309.2 508.856 309.893C509.242 310.569 509.758 311.092 510.402 311.462C511.046 311.832 511.779 312.018 512.6 312.018ZM516.973 313.901V310.448L517.118 307.478L516.876 304.508V295.984H519.195V313.901H516.973ZM523.584 313.901V301.103H525.903V313.901H523.584ZM524.744 298.64C524.293 298.64 523.914 298.496 523.608 298.206C523.318 297.916 523.174 297.562 523.174 297.143C523.174 296.709 523.318 296.347 523.608 296.057C523.914 295.767 524.293 295.622 524.744 295.622C525.195 295.622 525.565 295.767 525.855 296.057C526.161 296.33 526.314 296.677 526.314 297.095C526.314 297.53 526.169 297.9 525.879 298.206C525.589 298.496 525.211 298.64 524.744 298.64ZM538.279 313.901V311.197L538.158 310.689V306.078C538.158 305.096 537.869 304.339 537.289 303.808C536.725 303.26 535.871 302.987 534.728 302.987C533.971 302.987 533.23 303.116 532.505 303.373C531.781 303.615 531.169 303.945 530.669 304.363L529.703 302.625C530.363 302.093 531.153 301.691 532.071 301.417C533.005 301.128 533.979 300.983 534.994 300.983C536.749 300.983 538.102 301.409 539.052 302.262C540.003 303.116 540.478 304.419 540.478 306.174V313.901H538.279ZM534.076 314.046C533.125 314.046 532.288 313.885 531.563 313.563C530.855 313.241 530.307 312.798 529.92 312.235C529.534 311.655 529.341 311.003 529.341 310.279C529.341 309.587 529.502 308.959 529.824 308.396C530.162 307.832 530.702 307.381 531.442 307.043C532.199 306.705 533.214 306.536 534.486 306.536H538.545V308.202H534.583C533.423 308.202 532.642 308.396 532.24 308.782C531.837 309.168 531.636 309.635 531.636 310.182C531.636 310.81 531.885 311.317 532.385 311.704C532.884 312.074 533.576 312.259 534.462 312.259C535.332 312.259 536.089 312.066 536.733 311.679C537.393 311.293 537.869 310.73 538.158 309.989L538.617 311.583C538.311 312.339 537.772 312.943 536.999 313.394C536.226 313.828 535.251 314.046 534.076 314.046Z" fill="black"/>
</g>
<defs>
<clipPath id="clip0_1242_2364">
<rect width="673.75" height="330" fill="white"/>
</clipPath>
</defs>
</svg>
