<svg width="584" height="150" viewBox="0 0 584 150" fill="none" xmlns="http://www.w3.org/2000/svg">
<path d="M20.799 105.797V88.2966H38.299V90.7966H25.799V95.7966H35.799V98.2966H25.799V103.297H38.299V105.797H20.799ZM41.199 105.797V88.2966H46.199V90.7966H48.699V93.2966H51.199V90.7966H53.699V88.2966H58.699V105.797H53.699V95.7966H51.199V100.797H48.699V95.7966H46.199V105.797H41.199ZM61.599 105.797V88.2966H76.599V90.7966H79.099V98.2966H76.599V100.797H66.599V105.797H61.599ZM66.599 98.2966H74.099V90.7966H66.599V98.2966ZM84.499 105.797V103.297H81.999V90.7966H84.499V88.2966H96.999V90.7966H99.499V103.297H96.999V105.797H84.499ZM86.999 103.297H94.499V90.7966H86.999V103.297ZM104.899 105.797V103.297H102.399V88.2966H107.399V98.2966H109.899V88.2966H112.399V98.2966H114.899V88.2966H119.899V103.297H117.399V105.797H114.899V103.297H112.399V100.797H109.899V103.297H107.399V105.797H104.899ZM122.799 105.797V88.2966H140.299V90.7966H127.799V95.7966H137.799V98.2966H127.799V103.297H140.299V105.797H122.799ZM143.199 105.797V88.2966H158.199V90.7966H160.699V98.2966H155.699V100.797H158.199V103.297H160.699V105.797H153.199V103.297H150.699V100.797H148.199V105.797H143.199ZM148.199 98.2966H153.199V95.7966H155.699V90.7966H148.199V98.2966ZM186.499 105.797V103.297H191.499V90.7966H186.499V88.2966H201.499V90.7966H196.499V103.297H201.499V105.797H186.499ZM204.399 105.797V88.2966H216.899V90.7966H219.399V93.2966H221.899V100.797H219.399V103.297H216.899V105.797H204.399ZM209.399 103.297H214.399V100.797H216.899V93.2966H214.399V90.7966H209.399V103.297ZM224.799 105.797V88.2966H242.299V90.7966H229.799V95.7966H239.799V98.2966H229.799V103.297H242.299V105.797H224.799ZM245.199 105.797V93.2966H247.699V90.7966H250.199V88.2966H257.699V90.7966H260.199V93.2966H262.699V105.797H257.699V100.797H250.199V105.797H245.199ZM250.199 98.2966H257.699V93.2966H255.199V90.7966H252.699V93.2966H250.199V98.2966ZM268.099 105.797V103.297H265.599V100.797H270.599V103.297H278.099V98.2966H268.099V95.7966H265.599V90.7966H268.099V88.2966H280.599V90.7966H283.099V93.2966H278.099V90.7966H270.599V95.7966H280.599V98.2966H283.099V103.297H280.599V105.797H268.099ZM306.399 105.797V88.2966H311.399V90.7966H313.899V93.2966H316.399V90.7966H318.899V88.2966H323.899V105.797H318.899V95.7966H316.399V100.797H313.899V95.7966H311.399V105.797H306.399ZM329.299 105.797V103.297H334.299V90.7966H329.299V88.2966H344.299V90.7966H339.299V103.297H344.299V105.797H329.299ZM347.199 105.797V88.2966H352.199V90.7966H354.699V93.2966H357.199V95.7966H359.699V88.2966H364.699V105.797H359.699V100.797H357.199V98.2966H354.699V95.7966H352.199V105.797H347.199ZM370.099 105.797V103.297H375.099V90.7966H370.099V88.2966H385.099V90.7966H380.099V103.297H385.099V105.797H370.099ZM387.999 105.797V88.2966H392.999V90.7966H395.499V93.2966H397.999V90.7966H400.499V88.2966H405.499V105.797H400.499V95.7966H397.999V100.797H395.499V95.7966H392.999V105.797H387.999ZM410.899 105.797V103.297H415.899V90.7966H410.899V88.2966H425.899V90.7966H420.899V103.297H425.899V105.797H410.899ZM428.799 105.797V100.797H431.299V98.2966H433.799V95.7966H436.299V93.2966H438.799V90.7966H428.799V88.2966H446.299V93.2966H443.799V95.7966H441.299V98.2966H438.799V100.797H436.299V103.297H446.299V105.797H428.799ZM449.199 105.797V88.2966H466.699V90.7966H454.199V95.7966H464.199V98.2966H454.199V103.297H466.699V105.797H449.199ZM494.999 105.797V103.297H492.499V100.797H489.999V93.2966H492.499V90.7966H494.999V88.2966H504.999V90.7966H507.499V93.2966H502.499V90.7966H497.499V93.2966H494.999V100.797H497.499V103.297H502.499V100.797H507.499V103.297H504.999V105.797H494.999ZM512.899 105.797V103.297H510.399V90.7966H512.899V88.2966H525.399V90.7966H527.899V103.297H525.399V105.797H512.899ZM515.399 103.297H522.899V90.7966H515.399V103.297ZM530.799 105.797V88.2966H543.299V90.7966H545.799V93.2966H548.299V100.797H545.799V103.297H543.299V105.797H530.799ZM535.799 103.297H540.799V100.797H543.299V93.2966H540.799V90.7966H535.799V103.297ZM551.199 105.797V88.2966H568.699V90.7966H556.199V95.7966H566.199V98.2966H556.199V103.297H568.699V105.797H551.199Z" fill="#95FF13"/>
<path fill-rule="evenodd" clip-rule="evenodd" d="M98.9281 14.3623V53.4324H114V42.2903H153.264V27.3143H114V15.2183H162.768V0.242308H114.079V14.3623H98.9281ZM568.079 0.242308H567.629L544.301 28.1783L520.877 0.242308H520.079V23.3623H505.517V69.3623H520.397V23.0903L544.301 51.4103L568.079 23.0307V0.242308ZM568.109 23.3623V69.3623H583.085V0.242308H583.079V23.3623H568.109ZM301.079 0.242308H261.065C258.505 0.242308 256.137 0.882307 253.961 2.16231C251.785 3.44231 250.057 5.17031 248.777 7.34631C247.497 9.45831 246.857 11.8263 246.857 14.4503V54.3623H261.079V69.3623H301.769C304.329 69.3623 306.665 68.7223 308.777 67.4423C310.953 66.1623 312.681 64.4343 313.961 62.2583C315.305 60.0823 315.977 57.7143 315.977 55.1543V15.3623H301.079V0.242308ZM326.549 54.3623V15.3623H341.079V0.242308H395.477V15.2183H344.597C343.573 15.2183 342.773 15.4743 342.197 15.9863C341.685 16.4983 341.429 17.2983 341.429 18.3863V51.2183C341.429 52.2423 341.685 53.0423 342.197 53.6183C342.773 54.1303 343.573 54.3863 344.597 54.3863H395.477V69.3623H341.079V54.3623H326.549ZM40.4708 69.3623L0.438812 0.242308H17.7188L46.7108 50.4503L75.7028 0.242308H92.8868L52.8548 69.3623H40.4708ZM114.079 69.3623V54.3863H162.768V69.3623H114.079ZM172.332 54.3623V0.146309H187.212V54.3863H241.452V69.3623H187.079V54.3623H172.332ZM261.737 54.3863H300.905V15.2183H261.737V54.3863ZM403.086 69.3623V0.242308H417.774V69.3623H403.086ZM440.705 54.3623V0.242308H425.825V54.3623H440.705ZM480.079 53.3623H494.945V0.242308H479.873V54.3863H441.079V69.3623H480.079V53.3623Z" fill="#E2F6C2"/>
<path d="M37.8273 64.8438L54.9705 65.7173L52.874 69.4323H40.5134L37.8273 64.8438Z" fill="#A5F524"/>
<path d="M46.6629 50.1905L54.9268 65.7391L37.8718 64.8827L46.6629 50.1905Z" fill="#A5F524"/>
<path d="M46.4542 52.0588L53.7821 65.5529L46.4542 60.8338L38.9666 64.7182L46.4542 52.0588Z" fill="#4A6919"/>
</svg>
