<?xml version="1.0" encoding="UTF-8"?>
<svg id="text_colour" data-name="text colour" xmlns="http://www.w3.org/2000/svg" viewBox="0 0 1920 1080">
  <defs>
    <style>
      .cls-1, .cls-2, .cls-3, .cls-4 {
        stroke: #f4ffd8;
      }

      .cls-1, .cls-2, .cls-3, .cls-4, .cls-5 {
        fill: #f4ffd8;
      }

      .cls-1, .cls-2, .cls-4 {
        stroke-miterlimit: 10;
      }

      .cls-1, .cls-3 {
        stroke-linecap: round;
        stroke-width: 4px;
      }

      .cls-3 {
        stroke-linejoin: round;
      }

      .cls-4 {
        opacity: .55;
      }
    </style>
  </defs>
  <path class="cls-1" d="M555.39,615.71c2.89-10.24,3.86-19.96,3.97-28.11.56,9.66-.82,19.23-3.97,28.11Z"/>
  <path class="cls-2" d="M687.9,592.63c18.87-10.24,32.3-27.5,37.83-47.16,2.45-8.73,3.35-17.94,2.46-27.22-3.13-32.85-27.97-60.42-61.21-67.41-13.57-.23-27.13-.45-40.7-.68-33.18-.55-66.36-1.1-99.55-1.65-.13,19.01-.25,38-.38,57.01,1.66,1.55,3.31,3.2,4.93,4.95,3.32,3.57,6.21,7.2,8.74,10.81,13.34,19.06,16.56,37.78,17.72,45.03.51,3.21,1.75,11.01,1.61,21.29-.11,8.15-1.08,17.87-3.97,28.11-3.32,11.79-9.19,24.27-19.2,35.82-3.48,4.02-7.13,7.55-10.87,10.65-.04,7.03-.09,14.07-.14,21.1,19.12.52,38.23,1.03,57.34,1.55-.02-2.49-.05-5-.07-7.49-.23-24.62-.47-49.24-.7-73.87,15.24-.26,30.48-.52,45.72-.77,18.08,26.87,36.16,53.72,54.24,80.58,23.24.52,46.49,1.03,69.74,1.55-21.18-30.73-42.36-61.46-63.54-92.2ZM651.48,547.69c-9.83.11-19.66.23-29.49.34-12.9.15-25.79.29-38.7.44.23-14.41.48-28.83.71-43.24.02-1.34.04-2.68.06-4.02h64.31c11.4.99,20.51,9.89,21.69,20.92.46,4.28-.31,8.48-2.05,12.23-3.03,6.51-9,11.65-16.54,13.34Z"/>
  <circle class="cls-2" cx="840.11" cy="486.91" r="36.57"/>
  <line class="cls-2" x1="1076.95" y1="465.69" x2="1090.49" y2="485.19"/>
  <g>
    <line class="cls-5" x1="1250.14" y1="478.9" x2="1275.78" y2="475.44"/>
    <path class="cls-5" d="M1250.11,478.66c3-.98,6.36-1.89,9.43-2.7,1.88-.44,4.49-1.07,6.3-1.67,3.35-.85,6.52-.54,9.91.91.15.07.21.25.14.39-2.82,2.39-5.94,3.52-9.39,3.6-3.02-.13-6.75.11-9.78.08-2.18-.02-4.35-.02-6.54-.13-.27,0-.33-.42-.07-.5h0Z"/>
  </g>
  <g>
    <line class="cls-5" x1="1207.57" y1="422.3" x2="1224.02" y2="405.37"/>
    <path class="cls-5" d="M1207.39,422.13c1.57-2.43,3.44-5,5.15-7.33,1.09-1.39,2.59-3.33,3.53-4.8,1.92-2.55,4.41-4.04,7.76-4.8.17-.03.33.08.36.24-.58,3.4-2.08,6-4.57,8.01-2.27,1.57-4.83,3.84-7.05,5.5-1.59,1.2-3.18,2.4-4.83,3.54-.22.16-.51-.13-.36-.35h0Z"/>
  </g>
  <path class="cls-5" d="M1141.72,394.24c-.56-3.25-1.02-6.87-1.41-10.16-.19-2.01-.46-4.81-.81-6.77-.4-3.58.34-6.84,2.22-10.16.08-.14.27-.18.4-.1,2.01,3.26,2.7,6.67,2.32,10.26-.54,3.11-.79,7.02-1.23,10.16-.31,2.26-.6,4.52-1,6.77-.04.27-.46.28-.5,0h0Z"/>
  <g>
    <line class="cls-5" x1="1063.89" y1="424.72" x2="1042.6" y2="404.88"/>
    <path class="cls-5" d="M1063.72,424.9c-2.94-1.97-6.09-4.29-8.95-6.4-1.71-1.33-4.09-3.18-5.88-4.36-3.06-2.31-5.14-5.24-6.47-9.07-.07-.21.13-.42.34-.37,2.72.64,4.86,1.9,6.86,3.31,2.03,1.4,3.36,3.52,4.98,5.32,1.22,1.35,3.64,4.11,4.81,5.51,1.56,1.88,3.14,3.75,4.64,5.69.17.21-.11.53-.34.37h0Z"/>
  </g>
  <g>
    <line class="cls-5" x1="1030.51" y1="487.24" x2="1002.93" y2="491"/>
    <path class="cls-5" d="M1030.54,487.49c-3.24,1.01-6.86,1.96-10.15,2.81-2.02.46-4.83,1.13-6.78,1.74-3.58.89-7,.62-10.64-.8-.15-.06-.22-.23-.15-.38,3.05-2.46,6.44-3.6,10.13-3.73,3.24.1,7.25-.19,10.51-.19,2.34,0,4.68-.03,7.03.05.27,0,.34.42.07.5h0Z"/>
  </g>
  <g>
    <line class="cls-5" x1="1045.39" y1="549.05" x2="1019.86" y2="563.08"/>
    <path class="cls-5" d="M1045.51,549.27c-2.79,2.18-5.99,4.45-8.89,6.5-1.8,1.2-4.31,2.9-5.99,4.22-3.16,2.19-6.59,3.25-10.65,3.31-.22,0-.36-.26-.24-.44,1.46-2.38,3.33-4.03,5.3-5.48,1.97-1.49,4.4-2.09,6.62-3.07,1.67-.74,5.05-2.17,6.74-2.85,2.28-.9,4.55-1.81,6.86-2.63.26-.1.47.27.24.44h0Z"/>
  </g>
  <g>
    <line class="cls-5" x1="1229.82" y1="556.07" x2="1254.01" y2="568.4"/>
    <path class="cls-5" d="M1229.94,555.84c3.16.98,6.6,2.22,9.71,3.37,1.88.75,4.5,1.78,6.42,2.36,3.37,1.27,5.95,3.41,8.06,6.61.12.18-.01.43-.23.45-2.64.2-4.91-.34-7.07-1.08-2.19-.71-3.91-2.32-5.82-3.53-1.44-.91-4.3-2.79-5.71-3.75-1.88-1.3-3.76-2.59-5.59-3.97-.22-.16-.04-.54.23-.45h0Z"/>
  </g>
  <line class="cls-2" x1="1141.98" y1="599.37" x2="1141.98" y2="598.82"/>
  <polyline class="cls-2" points="1141.7 522.23 1141.45 454.72 1141.35 427.13 1141.29 411.18"/>
  <polyline class="cls-2" points="1172.25 599.37 1167.9 599.37 1141.98 599.37 1132.58 599.37 1111.78 599.37"/>
  <path class="cls-2" d="M1172.25,459.07c-2.62-6.21-8.39-10.51-15-11.13-9.44-.89-15.36,6.23-15.81,6.78"/>
  <path class="cls-2" d="M1210.47,488.09c-1.41.28-8.41,1.53-15-2.9-8.39-5.65-8.7-15.53-8.71-16.45"/>
  <path class="cls-2" d="M1157.74,479.87c4.32-4.66,11.28-5.02,15.39-1.59,4.66,3.89,5.05,12.18-.39,17.07,4.72,1.59,7.99,5.83,8.22,10.64.21,4.38-2.12,8.46-5.81,10.64-3.71,2.2-8.36,2.2-12.09,0"/>
  <path class="cls-2" d="M1180.57,503.56c10.09-1.3,18.61,4.37,20.22,11.63,1.03,4.62-.45,11.2-5.8,14.51-5.96,3.69-12.53.73-13.07.48,0,.79-.02,7.21-4.83,10.64-4.62,3.28-10.86,1.86-14.51-.48-6.11-3.91-3.86-9.71-10.16-14.51-2.49-1.9-5.27-2.84-7.75-3.28-1.07-.19-2.07-.28-2.98-.32"/>
  <path class="cls-2" d="M1123.39,529.7c-6.54,1.94-15.72,1.04-21.77-4.83-3.77-3.66-8.47-11.35-5.32-17.9,2.57-5.37,9.13-8.06,14.51-7.26,6.25.93,9.64,6.38,12.58,11.12,3.38,5.45,4.53,10.55,5.5,16.09-1.39,1.04-3.02,2.04-5.5,2.78Z"/>
  <path class="cls-2" d="M1132.62,598.62c0,.25-.02.5-.03.75"/>
  <rect class="cls-2" x="1111.78" y="599.37" width="60.47" height="15.48"/>
  <rect class="cls-2" x="1117.1" y="614.85" width="52.26" height="13.06"/>
  <rect class="cls-2" x="1123.88" y="627.91" width="42.57" height="12.58"/>
  <path class="cls-2" d="M1127.75,640.49c.84,9.06,8.67,15.86,17.42,15.48,8.23-.35,15.19-6.96,15.96-15.48"/>
  <ellipse class="cls-4" cx="1140.32" cy="678.45" rx="75.47" ry="9.89"/>
  <circle class="cls-2" cx="1262.96" cy="421.07" r="13.07"/>
  <circle class="cls-2" cx="1100.75" cy="459.07" r="8.26"/>
  <path class="cls-2" d="M1156.52,598.25c2.24-23.48,10.4-37.13,17.67-45.33,8.67-9.78,13.88-9.36,24.19-20.8,6.51-7.23,19.53-21.68,20.32-41.61,1.16-29.53-25.41-48.93-28.06-50.8-19.14-13.52-39.57-12.63-45.96-12.09,0,57.08,0,114.17,0,171.25,3.94-.21,7.89-.42,11.83-.63Z"/>
  <path class="cls-2" d="M1132.87,588.96c.11-10.31-.34-18.46-.86-24.51-.42-4.95-.85-8.07-1.37-15.79-.81-11.94-.41-13.82-1.44-19.93-.11-.61-.2-1.21-.31-1.81,2.45-1.82,4.16-3.74,8.53-4.48.35-.06,1.96-.31,4.17-.21.03,0,.06,0,.11,0l.28,76.59c-3.12-.07-6.24-.14-9.36-.2.14-3.41.22-6.63.25-9.66Z"/>
  <path class="cls-2" d="M1141.59,522.23c-2.21-.1-3.83.15-4.17.21-4.37.73-6.09,2.66-8.53,4.48.11.6.2,1.2.31,1.81,1.03,6.11.64,7.98,1.44,19.93.52,7.72.95,10.85,1.37,15.79.52,6.04.97,14.2.86,24.51-.84-9.25-3.81-15.75-5.61-19.1-4.7-8.75-11.02-13.89-17.9-19.35-9.71-7.73-14.99-9.21-20.8-13.07-16.22-10.77-29.33-35.33-25.16-59.02,3.93-22.37,21.68-34.89,27.09-38.71,21.53-15.18,44.6-13.29,50.85-12.58.08,31.7.16,63.4.24,95.1Z"/>
  <path class="cls-2" d="M1287.25,514.94c-.02,1.76-.05,4.4-.09,7.91-.09-2.68-.06-5.32.09-7.91Z"/>
  <path class="cls-2" d="M1546.2,671.2c-20.53,10.73-40.88,8.63-47.6,7.83-5.96-.7-11.63-2-17.04-3.79-33.19-10.93-56.32-39.92-72-59.57-18.05-22.6-17.08-28.87-55.74-82.84-.08-.1-.15-.22-.23-.32-.2,48.74-.4,97.47-.6,146.21h-65.6c.35-56.5.69-113.02,1.03-169.51l-.06-.02s.05-.06.06-.09c.03-3.95.05-6.79.06-8.5-.02.19-.02.4-.03.59.02-1.7.03-2.55.04-2.55,0,0,0,.65,0,1.95.49-8.21,2.08-15.94,4.59-22.92,5.88-16.39,16.82-28.67,30.52-33.38,16.88-5.8,33.17,1.56,36.27,2.95,15.14,6.84,20.04,17.3,41.22,52.13,26.54,43.65,41.89,65.11,46.34,71.26,11.56,15.99,17.96,24.85,28.68,36.4,19.51,21,49.16,52.92,77.05,47.19,13.3-2.74,21.27-13.02,22.47-11.61,1.52,1.78-10.8,18.86-29.42,28.6Z"/>
  <path class="cls-2" d="M1510.71,538.75c0,14.31-11.59,25.92-25.91,25.92s-25.91-11.61-25.91-25.92c0-6.16,2.13-11.8,5.73-16.24,0-4.37-.95-10.65-5.33-16.82-3.25-4.58-7.29-7.55-10.53-9.38-1.36.21-2.74.33-4.16.33-14.29,0-25.91-11.59-25.91-25.91s11.61-25.91,25.91-25.91,25.92,11.59,25.92,25.91c0,6.07-2.1,11.65-5.61,16.07.17,3.72,1.08,8.76,4.15,14.05,3.6,6.18,8.58,10.03,12.2,12.23,1.15-.15,2.34-.24,3.54-.24,14.31,0,25.91,11.59,25.91,25.91Z"/>
  <path class="cls-2" d="M1585.28,596.72c0,21.83-17.67,39.5-39.5,39.5s-39.48-17.67-39.48-39.5c0-17.29,11.1-31.98,26.56-37.33,3.22-5.13,6.83-13.11,6.78-23.26-.02-7.02-1.79-12.85-3.68-17.12-17.05-4.37-29.66-19.83-29.66-38.26,0-21.79,17.68-39.48,39.48-39.48s39.5,17.68,39.5,39.48c0,17.06-10.79,31.58-25.92,37.1-2.53,4.47-5.25,10.96-5.93,19.13-.74,9.2,1.38,16.81,3.46,21.81,16.43,4.78,28.4,19.95,28.4,37.91Z"/>
  <circle class="cls-2" cx="1577.57" cy="538.75" r="18"/>
  <path class="cls-2" d="M835.31,684.67c29.47-9.23,49.08-25.63,49.3-42.51.14-10.94-7.11-19.89-19.14-30.03-28.21-23.78-67.61-42.5-75.54-46.22-16.1-7.56-30.61-13.91-42.55-30.82-7.48-10.59-9.87-19.54-10.65-26.6-1.35-12.18,1.76-21.94,2.94-25.55,10.6-32.23,44.51-41.9,55.16-44.94,7.98-2.27,20.2-4.58,35.49-2.73-5.08.8-11.71,2.21-19.2,4.85-7.23,2.55-12.46,5.25-14.21,6.17-12.41,6.58-22.12,11.72-27.5,22.75-5.24,10.75-3.56,21.33-3.01,24.24,1.41,7.36,4.63,12.31,5.37,13.42,4.34,6.57,9.6,9.73,10.71,10.37,4.36,2.33,11.26,5.96,19.78,10.23,28.64,14.34,38.25,17.11,59.36,28.62,26.32,14.34,34.21,22.47,39.99,32.85,3.01,5.41,8.04,14.72,7.48,26.96-.58,12.79-6.57,22.12-11.22,28.72-18.79,26.67-50.59,36.94-62.56,40.23Z"/>
  <path class="cls-2" d="M765,579.95c-2.35,9.48-4.01,22.55-1.01,37.3,1.57,7.73,3.38,16.67,10.54,25.14,7.7,9.1,17.17,12.44,23.52,14.6,21.24,7.2,40.7,2.13,49.46-.81-5.86,3.89-14.38,8.93-25.34,13.38-6.69,2.71-15.61,6.27-27.77,7.91-12.55,1.69-21.84,2.94-31.42-2.23-9.71-5.24-14.06-14.01-15.41-16.83-5.64-11.77-3.7-22.96-1.62-34.06,1.85-9.89,6.4-26.42,19.06-44.4Z"/>
  <path class="cls-2" d="M339.78,585.42c.25,5.54,3.65,10.58,8.8,13.21h16.31c-3.42,6-6.84,11.99-10.25,17.99-26.49.19-52.99.38-79.48.56-3.77.03-7.55.06-11.31.08-5.51,2.74-8.8,8.57-8.33,14.7.51,6.17,4.8,11.46,10.78,13.21h1.19c23.82-.08,47.63-.15,71.45-.23-13.23,28.92-40.85,44.14-64.11,38.89-2.71-.61-5.24-1.48-7.6-2.53-14.07-6.21-22.02-18.82-24.4-22.89-7.34-11.96-14.95-23.96-22.88-36-18.05-27.42-36.68-53.52-55.71-78.35-41.05-53.55-83.98-101.2-127.06-143.54,61.14-6.05,107.69-4.24,127.06.94,15.1,4.04,26.36,11.3,26.36,11.3,8.8,5.67,14.95,11.94,18.82,16.47,18.35,31.45,36.7,62.9,55.05,94.36,6.91,11.84,13.82,23.69,20.72,35.53,3.35-5.5,6.7-10.98,10.05-16.48,1.08,3.75,3.69,7.05,7.33,8.98,11.06.11,22.11.23,33.17.35,18.48.19,36.95.38,55.43.56-3.33,5.84-6.66,11.69-9.99,17.54-10.04-.1-20.09-.22-30.12-.32-7,2.34-11.56,8.85-11.26,15.68Z"/>
  <path class="cls-2" d="M454.12,441.93c-6.46,11.35-12.94,22.73-19.4,34.08-.5.88-1,1.75-1.5,2.63h-92.47c-6.04,2.11-10.14,7.63-10.28,13.71-.18,7.92,6.43,12.46,6.86,12.73,26.87.15,53.71.28,80.57.45-3.45,6.07-6.92,12.14-10.37,18.21-33.69.31-67.38.62-101.07.93-.11.02-.23.05-.33.08,6.5-10.67,13.01-21.33,19.51-32-5.21-.07-10.42-.15-15.63-.21-6.39-.09-12.79-.18-19.19-.26v-65.42c22.06,2.74,39.26,1.77,50.36.47,7.91-.92,13.87-2.13,18.13-3.19,2.23-.56,3.99-1.07,5.32-1.47,11.37-3.46,18.43-7.47,23.11-9.77,8.81-4.33,21.51-8.61,33.65-10.39,13.12-1.95,25.59-.98,31.8,6,1.78,1.99,8.44,10.56.94,33.41Z"/>
  <path class="cls-3" d="M559.36,587.6c-.06-.17-.81-5.67-1.07-8.87-.43-5.02-.53-9.21-.55-12.19,0,11.61-2.96,20.35-5.05,25.29-7.96,18.75-22.77,28.17-27.11,30.84-1.15.71-2.61,1.61-4.71,2.65-1.68.83-5.08,2.53-9.53,4.03-8.99,3.04-22.29,5.3-34.42-1.83-14.86-8.74-17.77-25.68-18.13-27.92-2.58-16.54,6.08-28.61,8.47-31.84.45-.61.92-1.21,1.42-1.81,8.89-10.81,24.82-20.73,34.57-15.22,5.89,3.33,6.96,10.86,7.09,11.81,1.26,9.84-6.25,20.78-19.38,26.16-.7.29-1.43.56-2.17.82.87-.07,1.74-.15,2.6-.25,14.66-1.69,26.62-7.7,34.51-15.5,6.81-6.72,10.6-14.78,10.51-22.53-.1-7.97-4.29-15.22-10.23-20.89-3.62-3.49-7.9-6.38-12.27-8.51-2.34-1.14-4.7-2.05-7.02-2.71-4.68-1.34-9.59-1.78-14.58-1.43-18.76,1.31-38.67,13.75-51.75,31.46-5.21,7.06-9.35,14.96-11.88,23.32-6.45,21.27-4.74,52.59,17.88,72.66,18.84,16.72,46.28,20.39,69.46,11.37,3.21-1.26,6.35-2.75,9.37-4.5,2.56-1.48,5.04-3.12,7.4-4.95,10.56-8.13,18.26-19.1,22.6-31.38-3.32,11.79-9.19,24.27-19.2,35.82-3.48,4.02-7.13,7.55-10.87,10.65-3.02,2.52-6.09,4.75-9.16,6.73-19.39,12.56-38.77,15.23-45.11,15.91-41.8-.16-83.59-.31-125.4-.48-4.67-2.51-7.7-7.18-7.84-12.25-.16-6.3,4.22-12.23,10.77-14.2,26.12-.5,52.25-.98,78.37-1.47-3.1-3.92-6.2-7.84-9.3-11.77-26.24.08-52.48.17-78.73.25-23.82.08-47.63.15-71.45.23h-1.19c-5.98-1.75-10.27-7.04-10.78-13.21-.48-6.13,2.82-11.96,8.33-14.7,3.77-.02,7.55-.05,11.31-.08,26.49-.18,52.99-.36,79.48-.56,15.95-.11,31.89-.23,47.83-.35-1.48-5.88-2.95-11.75-4.42-17.64h-49.47c-5.16-2.63-8.55-7.67-8.8-13.21-.31-6.84,4.26-13.34,11.26-15.68,10.03.1,20.08.22,30.12.32,5.47.06,10.94.12,16.42.18.16-5.89.32-11.77.48-17.64-2.3-.02-4.61-.05-6.91-.07-18.47-.19-36.95-.38-55.43-.56-11.06-.12-22.11-.23-33.17-.35-3.64-1.94-6.25-5.23-7.33-8.98-.43-1.52-.61-3.12-.51-4.73.4-6.25,5.04-11.65,11.41-13.15.1-.03.22-.06.33-.08,33.69-.31,67.38-.61,101.07-.93,1.58,0,3.16-.02,4.75-.04,4.72-6.05,9.47-12.09,14.2-18.12-2.86-.02-5.71-.03-8.57-.05-26.87-.17-53.71-.31-80.57-.45-.43-.27-7.04-4.82-6.86-12.73.15-6.09,4.24-11.6,10.28-13.71h129.8c8.38,1.26,33.64,6.1,55.8,26.88,1.66,1.55,3.31,3.2,4.93,4.95,3.32,3.57,6.21,7.2,8.74,10.81,13.34,19.06,16.56,37.78,17.72,45.03.51,3.21,1.75,11.01,1.61,21.29Z"/>
  <path class="cls-2" d="M922.22,522.88c-.1,42.87-.19,85.74-.29,128.61,1.73,18.57,17.24,32.63,34.78,32.68,19.08.05,35.55-16.51,35.08-36.88.2-50.57.4-101.13.6-151.7-3.01-16.74-15.95-25.07-23.79-22.74-5.81,1.72-10.05,9.65-10.69,18.84-1.37,8.67-4.74,12.96-7.79,15.29-8.71,6.64-21.04,1.94-26.08,9.29-1.55,2.26-1.82,4.81-1.81,6.6Z"/>
  <circle class="cls-2" cx="932.31" cy="483.17" r="15.3"/>
  <circle class="cls-2" cx="937.08" cy="442.5" r="13.06"/>
  <circle class="cls-2" cx="972.6" cy="430.21" r="9.15"/>
  <circle class="cls-2" cx="904.56" cy="453.89" r="5.7"/>
  <path class="cls-2" d="M1000.29,622.73c1.21,12.85.77,23.37.1,30.77-1.07,11.82-2.72,15.57-3.51,17.18-5.46,11.16-16.68,16.03-22.19,17.95,14.81-.4,29.63-.79,44.44-1.19,1.48-5.92,4.18-20.09-1.18-36.73-4.69-14.57-13.24-23.79-17.66-27.98Z"/>
</svg>